<mxfile host="app.diagrams.net" agent="Mozilla/5.0 (Windows NT 10.0; Win64; x64) AppleWebKit/537.36 (KHTML, like Gecko) Chrome/139.0.0.0 Safari/537.36 Edg/139.0.0.0" version="28.1.0" pages="3">
  <diagram id="vM8fxDD7liS2lbMWXIOC" name="Block Diagram">
    <mxGraphModel dx="1355" dy="880" grid="1" gridSize="10" guides="1" tooltips="1" connect="1" arrows="1" fold="1" page="1" pageScale="1" pageWidth="850" pageHeight="1100" math="0" shadow="1">
      <root>
        <mxCell id="0" />
        <mxCell id="1" parent="0" />
        <mxCell id="o2Rn62l9WOTBWWrnKpjL-5" value="" style="rounded=0;whiteSpace=wrap;html=1;fillColor=#e1d5e7;strokeColor=#9673a6;sketch=1;curveFitting=1;jiggle=2;" parent="1" vertex="1">
          <mxGeometry x="760" y="290" width="150" height="110" as="geometry" />
        </mxCell>
        <mxCell id="o2Rn62l9WOTBWWrnKpjL-3" value="" style="rounded=0;whiteSpace=wrap;html=1;movable=1;resizable=1;rotatable=1;deletable=1;editable=1;locked=0;connectable=1;fillColor=#dae8fc;strokeColor=#6c8ebf;perimeterSpacing=1;glass=0;sketch=1;curveFitting=1;jiggle=2;" parent="1" vertex="1">
          <mxGeometry x="210" y="290" width="410" height="550" as="geometry" />
        </mxCell>
        <mxCell id="o2Rn62l9WOTBWWrnKpjL-4" value="STM32 F767ZI Microcontroller Board" style="text;html=1;align=center;verticalAlign=middle;whiteSpace=wrap;rounded=0;fillColor=none;" parent="1" vertex="1">
          <mxGeometry x="435" y="805" width="125" height="30" as="geometry" />
        </mxCell>
        <mxCell id="o2Rn62l9WOTBWWrnKpjL-7" value="BME280 Temp/Pressure&lt;div&gt;/Humidity&amp;nbsp;&lt;span style=&quot;background-color: transparent; color: light-dark(rgb(0, 0, 0), rgb(255, 255, 255));&quot;&gt;Sensor&lt;/span&gt;&lt;/div&gt;" style="text;html=1;align=center;verticalAlign=middle;whiteSpace=wrap;rounded=0;fillColor=none;" parent="1" vertex="1">
          <mxGeometry x="760" y="350" width="150" height="50" as="geometry" />
        </mxCell>
        <mxCell id="o2Rn62l9WOTBWWrnKpjL-9" value="" style="endArrow=classic;startArrow=classic;html=1;rounded=0;" parent="1" edge="1">
          <mxGeometry width="50" height="50" relative="1" as="geometry">
            <mxPoint x="660" y="340" as="sourcePoint" />
            <mxPoint x="720" y="340" as="targetPoint" />
          </mxGeometry>
        </mxCell>
        <mxCell id="o2Rn62l9WOTBWWrnKpjL-10" value="SCL" style="text;html=1;align=center;verticalAlign=middle;whiteSpace=wrap;rounded=0;" parent="1" vertex="1">
          <mxGeometry x="730" y="340" width="30" height="10" as="geometry" />
        </mxCell>
        <mxCell id="o2Rn62l9WOTBWWrnKpjL-11" value="PB8" style="text;html=1;align=center;verticalAlign=middle;whiteSpace=wrap;rounded=0;" parent="1" vertex="1">
          <mxGeometry x="620" y="334" width="40" height="10" as="geometry" />
        </mxCell>
        <mxCell id="o2Rn62l9WOTBWWrnKpjL-12" value="" style="endArrow=classic;startArrow=classic;html=1;rounded=0;" parent="1" edge="1">
          <mxGeometry width="50" height="50" relative="1" as="geometry">
            <mxPoint x="660" y="360" as="sourcePoint" />
            <mxPoint x="720" y="360" as="targetPoint" />
          </mxGeometry>
        </mxCell>
        <mxCell id="o2Rn62l9WOTBWWrnKpjL-13" value="SDA" style="text;html=1;align=center;verticalAlign=middle;whiteSpace=wrap;rounded=0;" parent="1" vertex="1">
          <mxGeometry x="730" y="350" width="30" height="20" as="geometry" />
        </mxCell>
        <mxCell id="o2Rn62l9WOTBWWrnKpjL-14" value="PB9" style="text;html=1;align=center;verticalAlign=middle;whiteSpace=wrap;rounded=0;" parent="1" vertex="1">
          <mxGeometry x="620" y="355" width="40" height="10" as="geometry" />
        </mxCell>
        <mxCell id="o2Rn62l9WOTBWWrnKpjL-15" value="&lt;h1 style=&quot;margin-top: 0px;&quot;&gt;I2C 1&lt;/h1&gt;" style="text;html=1;whiteSpace=wrap;overflow=hidden;rounded=0;" parent="1" vertex="1">
          <mxGeometry x="660" y="240" width="70" height="40" as="geometry" />
        </mxCell>
        <mxCell id="o2Rn62l9WOTBWWrnKpjL-17" value="" style="shape=mxgraph.signs.tech.usb;html=1;pointerEvents=1;fillColor=#000000;strokeColor=none;verticalLabelPosition=bottom;verticalAlign=top;align=center;" parent="1" vertex="1">
          <mxGeometry x="470" y="241" width="30" height="49" as="geometry" />
        </mxCell>
        <mxCell id="o2Rn62l9WOTBWWrnKpjL-18" value="&lt;h1 style=&quot;margin-top: 0px;&quot;&gt;USB Power&lt;/h1&gt;" style="text;html=1;whiteSpace=wrap;overflow=hidden;rounded=0;" parent="1" vertex="1">
          <mxGeometry x="450" y="170" width="80" height="60" as="geometry" />
        </mxCell>
        <mxCell id="mFrMhZoLyBJ9m17EuElv-2" value="SDO" style="text;html=1;align=center;verticalAlign=middle;whiteSpace=wrap;rounded=0;" parent="1" vertex="1">
          <mxGeometry x="730" y="390" width="30" height="20" as="geometry" />
        </mxCell>
        <mxCell id="mFrMhZoLyBJ9m17EuElv-3" value="CSB" style="text;html=1;align=center;verticalAlign=middle;whiteSpace=wrap;rounded=0;" parent="1" vertex="1">
          <mxGeometry x="730" y="370" width="30" height="20" as="geometry" />
        </mxCell>
        <mxCell id="mFrMhZoLyBJ9m17EuElv-4" value="GND" style="text;html=1;align=center;verticalAlign=middle;whiteSpace=wrap;rounded=0;" parent="1" vertex="1">
          <mxGeometry x="730" y="310" width="30" height="20" as="geometry" />
        </mxCell>
        <mxCell id="mFrMhZoLyBJ9m17EuElv-5" value="VCC" style="text;html=1;align=center;verticalAlign=middle;whiteSpace=wrap;rounded=0;" parent="1" vertex="1">
          <mxGeometry x="730" y="290" width="30" height="20" as="geometry" />
        </mxCell>
        <mxCell id="mFrMhZoLyBJ9m17EuElv-6" value="" style="endArrow=classic;startArrow=classic;html=1;rounded=0;" parent="1" edge="1">
          <mxGeometry width="50" height="50" relative="1" as="geometry">
            <mxPoint x="660" y="319.58" as="sourcePoint" />
            <mxPoint x="720" y="319.58" as="targetPoint" />
          </mxGeometry>
        </mxCell>
        <mxCell id="mFrMhZoLyBJ9m17EuElv-7" value="" style="endArrow=classic;startArrow=classic;html=1;rounded=0;" parent="1" edge="1">
          <mxGeometry width="50" height="50" relative="1" as="geometry">
            <mxPoint x="660" y="299.58" as="sourcePoint" />
            <mxPoint x="720" y="299.58" as="targetPoint" />
          </mxGeometry>
        </mxCell>
        <mxCell id="mFrMhZoLyBJ9m17EuElv-8" value="GND" style="text;html=1;align=center;verticalAlign=middle;whiteSpace=wrap;rounded=0;" parent="1" vertex="1">
          <mxGeometry x="620" y="315" width="40" height="10" as="geometry" />
        </mxCell>
        <mxCell id="mFrMhZoLyBJ9m17EuElv-9" value="3V3" style="text;html=1;align=center;verticalAlign=middle;whiteSpace=wrap;rounded=0;" parent="1" vertex="1">
          <mxGeometry x="620" y="295" width="40" height="10" as="geometry" />
        </mxCell>
        <mxCell id="mFrMhZoLyBJ9m17EuElv-10" value="" style="endArrow=classic;startArrow=classic;html=1;rounded=0;" parent="1" edge="1">
          <mxGeometry width="50" height="50" relative="1" as="geometry">
            <mxPoint x="660" y="380" as="sourcePoint" />
            <mxPoint x="720" y="380" as="targetPoint" />
          </mxGeometry>
        </mxCell>
        <mxCell id="mFrMhZoLyBJ9m17EuElv-11" value="" style="endArrow=classic;startArrow=classic;html=1;rounded=0;" parent="1" edge="1">
          <mxGeometry width="50" height="50" relative="1" as="geometry">
            <mxPoint x="660" y="399.17" as="sourcePoint" />
            <mxPoint x="720" y="399.17" as="targetPoint" />
          </mxGeometry>
        </mxCell>
        <mxCell id="mFrMhZoLyBJ9m17EuElv-12" value="GND" style="text;html=1;align=center;verticalAlign=middle;whiteSpace=wrap;rounded=0;" parent="1" vertex="1">
          <mxGeometry x="620" y="395" width="40" height="10" as="geometry" />
        </mxCell>
        <mxCell id="mFrMhZoLyBJ9m17EuElv-13" value="3V3" style="text;html=1;align=center;verticalAlign=middle;whiteSpace=wrap;rounded=0;" parent="1" vertex="1">
          <mxGeometry x="620" y="375" width="40" height="10" as="geometry" />
        </mxCell>
        <mxCell id="EFEDg0LtyCpn1xqtLNVm-10" value="" style="shape=image;verticalLabelPosition=bottom;labelBackgroundColor=default;verticalAlign=top;aspect=fixed;imageAspect=0;image=data:image/png,iVBORw0KGgoAAAANSUhEUgAABLAAAASwCAYAAADrIbPPAAAQAElEQVR4AezdB7xV1bXo/zHpvYhEwQYqRoELRiVqrFhRuRrQoAjY6N37f/fm+T7JJ7kvNy++vPeMcgq9iiBgQRREQBFQI7F3UayIKCJNejvrP+chIOApu6y15lxz/fKZE87Ze605xvjOLTln7L3XriL8DwEEEEAAAQQQQAABBBBAAAEEfBegPgQSLUADK9HbR/IIIIAAAggggAACCCAQnwCREEAAAQRsCdDAsiVPXAQQQAABBBBAII0C1IwAAggggAACCOQgQAMrBzROQQABBBBAwKYAsRFAAAEEEEAAAQQQSJsADay07Tj1IoCAEWAigAACCCCAAAIIIIAAAggkSIAGVoI2y61UyQYBBBBAAAEEEEAAAQQQQAABBPwXcKNCGlhu7ANZIIAAAggggAACCCCAAAII+CpAXQggkLcADay8CVkAAQQQQAABBBBAAAEEohZgfQQQQACBdAvQwEr3/lM9AggggAACCKRHgEoRQAABBBBAAIHECtDASuzWkTgCCCCAQPwCREQAAQQQQAABBBBAAAEbAjSwbKgTE4E0C1A7AggggAACCCCAAAIIIIAAAlkK0MDKEsyFw8kBAQQQQAABBBBAAAEEEEAAAQT8F6DCHwVoYP1owVcIIIAAAggggAACCCCAAAJ+CVANAgh4IkADy5ONpAwEEEAAAQQQQAABBKIRYFUEEEAAAQTsC9DAsr8HZIAAAggggAACvgtQHwIIIIAAAggggEBeAjSw8uLjZAQQQACBuASIgwACCCCAAAIIIIAAAukVoIGV3r2n8vQJUDECCCCAAAIIIIAAAggggAACiRSggZXVtnEwAggggAACCCCAAAIIIIAAAgj4L0CFrgnQwHJtR8gHAQQQQAABBBBAAAEEEPBBgBoQQACBEAVoYIWIyVIIIIAAAggggAACCIQpwFoIIIAAAgggsF+ABtZ+B/5EAAEEEEAAAT8FqAoBBBBAAAEEEEDAAwEaWB5sIiUggAAC0QqwOgIIIIAAAggggAACCCBgV4AGll1/oqdFgDoRQAABBBBAAAEEEEAAAQQQQCBngcQ0sHKukBMRQAABBBBAAAEEEEAAAQQQQCAxAiSKQFkCNLDKUuE2BBBAAAEEEEAAAQQQQCC5AmSOAAIIeCdAA8u7LaUgBBBAAAEEEEAAgfwFWAEBBBBAAAEEXBKggeXSbpALAggggAACPglQCwIIIIAAAggggAACIQnQwAoJkmUQQACBKARYEwEEEEAAAQQQQAABBBBAQIQGFo8C3wWoDwEEEEAAAQQQQAABBBBAAAEEEi6QQQMr4RWSPgIIIIAAAggggAACCCCAAAIIZCDAIQi4K0ADy929ITMEEEAAAQQQQAABBBBImgD5IoAAAghEIkADKxJWFkUAAQQQQAABBBDIVYDzEEAAAQQQQACBIwVoYB0pwvcIIIAAAggkX4AKEEAAAQQQQAABBBDwSoAGllfbSTEIIBCeACshgAACCCCAAAIIIIAAAgi4IkADy5Wd8DEPakIAAQQQQAABBBBAAAEEEEAAAf8FYqiQBlYMyIRAAAEEEEAAAQQQQAABBBBAoCIB7kMAgYoFaGBV7MO9CCCAAAIIIIAAAgggkAwBskQAAQQQ8FiABpbHm0tpCCCAAAIIIIBAdgIcjQACCCCAAAIIuClAA8vNfSErBBBAAIGkCpA3AggggAACCCCAAAIIhC5AAyt0UhZEAIF8BTgfAQQQQAABBBBAAAEEEEAAgUMFaGAdquHP11SCAAIIIIAAAggggAACCCCAAAL+C6SmQhpYqdlqCkUAAQQQQAABBBBAAAEEEPipALcggEASBGhgJWGXyBEBBBBAAAEEEEAAAZcFyA0BBBBAAIGIBWhgRQzM8ggggAACCCCAQCYCHIMAAggggAACCCBQvgANrPJtuAcBBBBAIFkCZIsAAggggAACCCCAAAKeCtDA8nRjKQuB3AQ4CwEEEEAAAQQQQAABBBBAAAH3BGhghb0nrIcAAggggAACCCCAAAIIIIAAAv4LUGGsAjSwYuUmGAIIIIAAAggggAACCCCAwAEB/kYAAQQyFaCBlakUxyGAAAIIIIAAAggg4J4AGSGAAAIIIJAKARpYqdhmikQAAQQQQACB8gW4BwEEEEAAAQQQQMB1ARpYru8Q+SGAAAJJECBHBBBAAAEEEEAAAQQQQCBCARpYEeKyNALZCHAsAggggAACCCCAAAIIIIAAAgiULeBTA6vsCrkVAQQQQAABBBBAAAEEEEAAAQR8EqCWFArQwErhplMyAggggAACCCCAAAIIpF2A+hFAAIFkCdDAStZ+kS0CCCCAAAIIIICAKwLkgQACCCCAAAKxCdDAio2aQAgggAACCCBwpADfI4AAAggggAACCCCQiQANrEyUOAYBBBBwV4DMEEAAAQQQQAABBBBAAAHvBWhgeb/FFFi5AEcggAACCCCAAAIIIIAAAggggIDLAuE0sFyukNwQQAABBBBAAAEEEEAAAQQQQCAcAVZBwJIADSxL8IRFAAEEEEAAAQQQQACBdApQNQIIIIBA9gI0sLI34wwEEEAAAQQQQAABuwJERwABBBBAAIGUCdDAStmGUy4CCCCAAAL7BfgTAQQQQAABBBBAAIHkCNDASs5ekSkCCLgmQD4IIIAAAggggAACCCCAAAKxCNDAioWZIOUJcDsCCCCAAAIIIIAAAggggAACCPgvkG+FNLDyFeR8BBBAAAEEEEAAAQQQQAABBKIXIAICqRaggZXq7ad4BBBAAAEEEEAAAQTSJECtCCCAAAJJFaCBldSdI28EEEAAAQQQQMCGADERQAABBBBAAAELAjSwLKATEgEEEEAg3QJUjwACCCCAAAIIIIAAAtkJ0MDKzoujEUDADQGyQAABBBBAAAEEEEAAAQQQSJEADawUbfbhpfIdAggggAACCCCAAAIIIIAAAgj4L+BHhTSw/NhHqkAAAQQQQAABBBBAAAEEEIhKgHURQMC6AA0s61tAAggggAACCCCAAAII+C9AhQgggAACCOQjQAMrHz3ORQABBBBAAAEE4hMgEgIIIIAAAgggkFoBGlip3XoKRwABBNIoQM0IIIAAAggggAACCCCQRAEaWEncNXJGwKYAsRFAAAEEEEAAAQQQQAABBBCIWYAGVszgJhwTAQQQQAABBBBAAAEEEEAAAQT8F6DC8ARoYIVnyUoIIIAAAggggAACCCCAAALhCrAaAgggUCpAA6uUgT8QQAABBBBAAAEEEPBVgLoQQAABBBBIvgANrOTvIRUggAACCCCAQNQCrI8AAggggAACCCBgVYAGllV+giOAAALpEaBSBBBAAAEEEEAAAQQQQCBXARpYucpxHgLxCxARAQQQQAABBBBAAAEEEEAAgVQKpKyBlco9pmgEEEAAAQQQQAABBBBAAAEEUiZAub4J0MDybUepBwEEEEAAAQQQQAABBBAIQ4A1EEAAAYcEaGA5tBmkggACCCCAAAIIIOCXANUggAACCCCAQDgCNLDCcWQVBBBAAAEEEIhGgFURQAABBBBAAAEEEBAaWDwIEEAAAe8FKBABBBBAAAEEEEAAAQQQSLYADaxk7x/ZxyVAHAQQQAABBBBAAAEEEEAAAQQQsCYQWwPLWoUERgABBBBAAAEEEEAAAQQQQACB2AQIhEAUAjSwolBlTQQQQAABBBBAAAEEEEAgdwHORAABBBA4QoAG1hEgfIsAAggggAACCCDggwA1IIAAAggggIBPAjSwfNpNakEAAQQQQCBMAdZCAAEEEEAAAQQQQMARARpYjmwEaSCAgJ8CVIUAAggggAACCCCAAAIIIJC/AA2s/A1ZIVoBVkcAAQQQQAABBBBAAAEEEEAAAf8FKqyQBlaFPNyJAAIIIIAAAggggAACCCCAQFIEyBMBfwVoYPm7t1SGAAIIIIAAAggggAAC2QpwPAIIIICAkwI0sJzcFpJCAAEEEEAAAQSSK0DmCCCAAAIIIIBA2AI0sMIWZT0EEEAAAQTyF2AFBBBAAAEEEEAAAQQQOESABtYhGHyJAAI+CVALAggggAACCCCAAAIIIICALwI0sHzZySjqYE0EEEAAAQQQQAABBBBAAAEEEPBfIAEV0sBKwCaRIgIIIIAAAggggAACCCCAgNsCZIcAAtEK0MCK1pfVEUAAAQQQQAABBBBAIDMBjkIAAQQQQKBcARpY5dJwBwIIIIAAAgggkDQB8kUAAQQQQAABBPwUoIHl575SFQIIIIBArgKchwACCCCAAAIIIIAAAs4J0MBybktICIHkC1ABAggggAACCCCAAAIIIIAAAmEK0MAKUzO8tVgJAQQQQAABBBBAAAEEEEAAAQT8F6DCDAVoYGUIxWEIIIAAAggggAACCCCAAAIuCpATAgikQYAGVhp2mRoRQAABBBBAAAEEEKhIgPsQQAABBBBwXIAGluMbRHoIIIAAAgggkAwBskQAAQQQQAABBBCIToAGVnS2rIwAAgggkJ0ARyOAAAIIIIAAAggggAACZQrQwCqThRsRSKoAeSOAAAIIIIAAAggggAACCCDgnwANrCP3lO8RQAABBBBAAAEEEEAAAQQQQMB/ASpMlAANrERtF8kigAACCCCAAAIIIIAAAu4IkAkCCCAQlwANrLikiYMAAggggAACCCCAwE8FuAUBBBBAAAEEMhCggZUBEocggAACCCCAgMsC5IYAAggggAACCCDguwANLN93mPoQQACBTAQ4BgEEEEAAAQQQQAABBBBwWIAGlsObQ2rJEiBbBBBAAAEEEEAAAQQQQAABBBCIRsClBlY0FbIqAggggAACCCCAAAIIIIAAAgi4JEAuCGQtQAMrazJOQAABBBBAAAEEEEAAAQRsCxAfAQQQSJcADax07TfVIoAAAggggAACCBwQ4G8EEEAAAQQQSIwADazEbBWJIoAAAggg4J4AGSGAAAIIIIAAAgggEIcADaw4lImBAAIIlC/APQgggAACCCCAAAIIIIAAApUI0MCqBIi7kyBAjggggAACCCCAAAIIIIAAAggg4LPA/gaWzxVSGwIIIIAAAggggAACCCCAAAII7BfgTwQSKkADK6EbR9oIIIAAAggggAACCCBgR4CoCCCAAALxC9DAit+ciAgggAACCCCAQNoFqB8BBBBAAAEEEMhKgAZWVlwcjAACCCCAgCsC5IEAAggggAACCCCAQHoEaGClZ6+pFAEEjhTgewQQQAABBBBAAAEEEEAAgUQI0MBKxDa5mySZIYAAAggggAACCCCAAAIIIICA/wK2K6SBZXsHiI8AAggggAACCCCAAAIIIJAGAWpEAIE8BGhg5YHHqQgggAACCCCAAAIIIBCnALEQQAABBNIqQAMrrTtP3QgggAACCCCQTgGqRgABBBBAAAEEEihAAyuBm0bKCCCAAAJ2BYiOAAIIIIAAAggggAAC8QrQwIrXm2gIILBfgD8RQAABBBBAAAEEEEAAAQQQyFiABlbGVK4dYFX9YwAAEABJREFUSD4IIIAAAggggAACCCCAAAIIIOC/ABUaARpYRoGJAAIIIIAAAggggAACCCDgrwCVIYBA4gVoYCV+CykAAQQQQAABBBBAAIHoBYiAAAIIIICATQEaWDb1iY0AAggggAACaRKgVgQQQAABBBBAAIEcBWhg5QjHaQgggAACNgSIiQACCCCAAAIIIIAAAmkUoIGVxl2n5nQLUD0CCCCAAAIIIIAAAggggAACCROggZXDhnEKAggggAACCCCAAAIIIIAAAgj4L0CF7gjQwHJnL8gEAQQQQAABBBBAAAEEEPBNgHoQQACBUARoYIXCyCIIIIAAAggggAACCEQlwLoIIIAAAgggQAOLxwACCCCAAAII+C9AhQgggAACCCCAAAKJFqCBlejtI3kEEEAgPgEiIYAAAggggAACCCCAAAK2BGhg2ZInbhoFqBkBBBBAAAEEEEAAAQQQQAABBHIQSFgDK4cKOQUBBBBAAAEEEEAAAQQQQAABBBImQLoIHC5AA+twD75DAAEEEEAAAQQQQAABBPwQoAoEEEDAIwEaWB5tJqUggAACCCCAAAIIhCvAaggggAACCCDghgANLDf2gSwQQAABBBDwVYC6EEAAAQQQQAABBBDIW4AGVt6ELIAAAghELcD6CCCAAAIIIIAAAggggEC6BWhgpXv/01M9lSKAAAIIIIAAAggggAACCCCAQGIFMm5gJbZCEkcAAQQQQAABBBBAAAEEEEAAgYwFOBABFwVoYLm4K+SEAAIIIIAAAggggAACSRYgdwQQQACBkAVoYIUMynIIIIAAAggggAACYQiwBgIIIIAAAggg8KMADawfLfgKAQQQQAABvwSoBgEEEEAAAQQQQAABTwRoYHmykZSBAALRCLAqAggggAACCCCAAAIIIICAfQEaWPb3wPcMqA8BBBBAAAEEEEAAAQQQQAABBPwXiLRCGliR8rI4AggggAACCCCAAAIIIIAAApkKcBwCCJQnQAOrPBluRwABBBBAAAEEEEAAgeQJkDECCCCAgJcCNLC83FaKQgABBBBAAAEEchfgTAQQQAABBBBAwDUBGliu7Qj5IIAAAgj4IEANCCCAAAIIIIAAAgggEKIADawQMVkKAQTCFGAtBBBAAAEEEEAAAQQQQAABBPYL0MDa7+Dnn1SFAAIIIIAAAggggAACCCCAAAL+C6SgQhpYKdhkSkQAAQQQQAABBBBAAAEEEKhYgHsRQMBtARpYbu8P2SGAAAIIIIAAAgggkBQB8kQAAQQQQCAyARpYkdGyMAIIIIAAAgggkK0AxyOAAAIIIIAAAgiUJUADqywVbkMAAQQQSK4AmSOAAAIIIIAAAggggIB3AjSwvNtSCkIgfwFWQAABBBBAAAEEEEAAAQQQQMAlARpY0ewGqyKAAAIIIIAAAggggAACCCCAgP8CVBiTAA2smKAJgwACCCCAAAIIIIAAAgggUJYAtyGAAAKVC9DAqtyIIxBAAAEEEEAAAQQQcFuA7BBAAAEEEPBcgAaW5xtMeQgggAACCCCQmQBHIYAAAggggAACCLgrQAPL3b0hMwQQQCBpAuSLAAIIIIAAAggggAACCEQiQAMrElYWRSBXAc5DAAEEEEAAAQQQQAABBBBAAIEjBfxrYB1ZId8jgAACCCCAAAIIIIAAAggggIB/AlSUKgEaWKnabopFAAEEEEAAAQQQQAABBH4U4CsEEEAgKQI0sJKyU+SJAAIIIIAAAggg4KIAOSGAAAIIIIBADAI0sGJAJgQCCCCAAAIIVCTAfQgggAACCCCAAAIIVCxAA6tiH+5FAAEEkiFAlggggAACCCCAAAIIIICAxwI0sDzeXErLToCjEUAAAQQQQAABBBBAAAEEEEDATYEwG1huVkhWCCCAAAIIIIAAAggggAACCCAQpgBrIRC7AA2s2MkJiAACCCCAAAIIIIAAAggggAACCCCQjQANrGy0OBYBBBBAAAEEEEDAHQEyQQABBBBAAIHUCNDASs1WUygCCCCAAAI/FeAWBBBAAAEEEEAAAQSSIEADKwm7RI4IIOCyALkhgAACCCCAAAIIIIAAAghELEADK2Jgls9EgGMQQAABBBBAAAEEEEAAAQQQQMB/gdwrpIGVux1nIoAAAggggAACCCCAAAIIIBCvANEQSKkADayUbjxlI4AAAggggAACCCCQVgHqRgABBBBIngANrOTtGRkjgAACCCCAAAK2BYiPAAIIIIAAAgjEKkADK1ZugiGAAAIIIHBAgL8RQAABBBBAAAEEEEAgUwEaWJlKcRwCCLgnQEYIIIAAAggggAACCCCAAAKpEKCBlYptLr9I7kEAAQQQQAABBBBAAAEEEEAAAf8Fkl4hDayk7yD5I4AAAggggAACCCCAAAIIxCFADAQQsChAA8siPqERQAABBBBAAAEEEEiXANUigAACCCCQmwANrNzcOAsBBBBAAAEEELAjQFQEEEAAAQQQQCCFAjSwUrjplIwAAgikXYD6EUAAAQQQQAABBBBAIFkCNLCStV9ki4ArAuSBAAIIIIAAAggggAACCCCAQGwCNLBioz4yEN8jgAACCCCAAAIIIIAAAggggID/AlQYhgANrDAUWQMBBBBAAAEEEEAAAQQQQCA6AVZGAIHUC9DASv1DAAAEEEAAAQQQQACBNAhQIwIIIIAAAkkWoIGV5N0jdwQQQAABBBCIU4BYCCCAAAIIIIAAApYEaGBZgicsAgggkE4BqkYAAQQQQAABBBBAAAEEsheggZW9GWcgYFeA6AgggAACCCCAAAIIIIAAAgikTCCVDayU7THlIoAAAggggAACCCCAAAIIIJBKAYr2R4AGlj97SSUIIIAAAggggAACCCCAQNgCrIcAAgg4IUADy4ltIAkEEEAAAQQQQAABfwWoDAEEEEAAAQTyFaCBla8g5yOAAAIIIIBA9AJEQAABBBBAAAEEEEi1AA2sVG8/xSOAQJoEqBUBBBBAAAEEEEAAAQQQSKoADayk7hx52xAgJgIIIIAAAggggAACCCCAAAIIWBCIuYFloUJCIoAAAggggAACCCCAAAIIIIBAzAKEQyBcARpY4XqyGgIIIIAAAggggAACCCAQjgCrIIAAAggcFKCBdZCCLxBAAAEEEEAAAQR8E6AeBBBAAAEEEPBDgAaWH/tIFQgggAACCEQlwLoIIIAAAggggAACCFgXoIFlfQtIAAEE/BegQgQQQAABBBBAAAEEEEAAgXwEaGDlo8e58QkQCQEEEEAAAQQQQAABBBBAAAEE/Bcop0IaWOXAcDMCCCCAAAIIIIAAAggggAACSRQgZwR8FKCB5eOuUhMCCCCAAAIIIIAAAgjkI8C5CCCAAAKOCdDAcmxDSAcBBBBAAAEEEPBDgCoQQAABBBBAAIHwBGhghWfJSggggAACCIQrwGoIIIAAAggggAACCCBQKkADq5SBPxBAwFcB6kIAAQQQQAABBBBAAAEEEEi+AA2s5O9h1BWwPgIIIIAAAggggAACCCCAAAII+C/gdIU0sJzeHpJDAAEEEEAAAQQQQAABBBBIjgCZIoBAVAI0sKKSZV0EEEAAAQQQQAABBBDIXoAzEEAAAQQQKEOABlYZKNyEAAIIIIAAAggkWYDcEUAAAQQQQAAB3wRoYPm2o9SDAAIIIBCGAGsggAACCCCAAAIIIICAQwI0sBzaDFJBwC8BqkEAAQQQQAABBBBAAAEEEEAgHAEaWOE4RrMKqyKAAAIIIIAAAggggAACCCCAgP8CVFipAA2sSok4AAEEEEAAAQQQQAABBBBAwHUB8kMAAb8FaGD5vb9UhwACCCCAAAIIIIBApgIchwACCCCAgLMCNLCc3RoSQwABBBBAAIHkCZAxAggggAACCCCAQBQCNLCiUGVNBBBAAIHcBTgTAQQQQAABBBBAAAEEEDhCgAbWESB8i4APAtSAAAIIIIAAAggggAACCCCAgE8CNLDK3k1uRQABBBBAAAEEEEAAAQQQQAAB/wWoMCECNLASslGkiQACCCCAAAIIIIAAAgi4KUBWCCCAQPQCNLCiNyYCAggggAACCCCAAAIVC3AvAggggAACCFQoQAOrQh7uRAABBBBAAIGkCJAnAggggAACCCCAgL8CNLD83VsqQwABBLIV4HgEEEAAAQQQQAABBBBAwEkBGlhObgtJJVeAzBFAAAEEEEAAAQQQQAABBBBAIGwB9xpYYVfIeggggAACCCCAAAIIIIAAAggg4J4AGSGQhQANrCywOBQBBBBAAAEEEEAAAQQQcEmAXBBAAIG0CNDASstOUycCCCCAAAIIIIBAWQLchgACCCCAAAIJEKCBlYBNIkUEEEAAAQTcFiA7BBBAAAEEEEAAAQSiFaCBFa0vqyOAAAKZCXAUAggggAACCCCAAAIIIIBAuQI0sMql4Y6kCZAvAggggAACCCCAAAIIIIAAAgj4KXBoA8vPCqkKAQQQQAABBBBAAAEEEEAAAQQOFeBrBBInQAMrcVtGwggggAACCCCAAAIIIGBfgAwQQAABBOIUoIEVpzaxEEAAAQQQQAABBH4U4CsEEEAAAQQQQCBDARpYGUJxGAIIIIAAAi4KkBMCCCCAAAIIIIAAAmkQoIGVhl2mRgQQqEiA+xBAAAEEEEAAAQQQQAABBBwXoIHl+AYlIz2yRAABBBBAAAEEEEAAAQQQQAAB/wXsVUgDy549kRFAAAEEEEAAAQQQQAABBNImQL0IIJCTAA2snNg4CQEEEEAAAQQQQAABBGwJEBcBBBBAIH0CNLDSt+dUjAACCCCAAAIIIIAAAggggAACCCRKgAZWoraLZBFAAAEE3BEgEwQQQAABBBBAAAEEEIhLgAZWXNLEQQCBnwpwCwIIIIAAAggggAACCCCAAAIZCNDAygDJ5UPIDQEEEEAAAQQQQAABBBBAAAEE/BdIe4U0sNL+CKB+BBBAAAEEEEAAAQQQQCAdAlSJAAIJFqCBleDNI3UEfBUIgqCmnrWZAQYBBvx3wGOAxwCPAbceA+wH+8FjgMcAj4GEPAaUb78v0sDybUepB4GEC+j/M2imS/hBz+1MwUAw4L8DDx8DPK75t43HAI8BHgM8BngM8BiI9jHwD/0zpHeDBpZ3W0pBCCReYICuoIaeDATKFeAOBBBAAAEEEEAAAQQQKFegUCkVlHtvQu+ggZXQjSNtBPIUcPL0IAhq6sT668lAAAEEEEAAAQQQQAABBBDIXmC9PmWant4NGlg5byknIoBABAI36zWP0ZOBAAIIIIAAAggggAACCDgikKg0xiulzFs0E5V0JsnSwMpEiWMQQCAugWFxBSIOAggggAACCCCAQIwChEIAgTgE9uogI/X0ctDA8nJbKQqB5AkEQXChzvpsPRkIIIAAAgggUIYANyGAAAIIIFCJwBNKqVWVHJPYu2lgJXbrSBwB7wR49ZV3W0pBCDgnQEIIIIAAAggggIDPAgU+F0cDy+fdpTYEEiIQBMEJOtUuemg03BMAABAASURBVDKcFyBBBBBAAAEEEEAAAQQQcFDgTaXUCw7mFVpKNLBCo2QhBDIU4LCyBAbpG6vpyUAAAQQQQAABBBBAAAEEEMhewOtXXxmORDawTOJMBBDwQyAIgtq6kr56MhBAAAEEEEAAAQQQQACBwwT4JiOB7/RRM/T0etDA8np7KQ6BRAj00Fk20ZOBAAIIIIAAAgggEL4AKyKAgP8CY5VSO30vkwaW7ztMfQi4L8DF293fIzJEAAEEUi5A+QgggAACCDgrsEdnNkpP7wcNLO+3mAIRcFcgCILLdHb/oicDAQR8F6A+BBBAAAEEEEAAgSgEHlVKrYliYdfWpIHl2o6QDwLpEuDVV1nsN4cigAACCCCAAAIIIIAAAkcIeH/x9gP10sA6IMHfaRCgRocEgiBoqdPprCcDAQQQQAABBBBAAAEEEEAge4FXlVLLsz8tmWdk2cBKZpFkjQACTgoM0VlV1ZOBAAIIIIAAAggggAACzgmQUAIEUvPqK7MXNLCMAhMBBGIVCIKgrg54l54MBBBAAAEEEEDAXwEqQwABBKIT+EYvPUvP1AwaWKnZagpFwCmB23U2jfRkIIAAAgggUKEAdyKAAAIIIIBAmQJjlFK7y7zH0xtpYHm6sZSFgKsCQRAondtQPRkIIBCPAFEQQAABBBBAAAEE/BIwjavRfpVUeTU0sCo34ggEEAhX4Gq93Ol6JmiQKgIIIIAAAggggAACCCDgjMBMpdRaZ7KJKREaWDFBpz4MAAj8KMCrr3604CsEEEAAAQQQQAABBBBAIFsBty/enm01GR5PAytDKA5DAIH8BYIgOE2v0klPBgIIIIAAAggggAACCJQjwM0IVCDwd6XUaxXc7+1dNLC83VoKQ8BJgSE6K/7d0QgMBBBAAAEEEIhUgMURQAABXwVS+eors5n8ImkUmAggELlAEAQNdZA79GQggAACCCRCgCQRQAABBBBAwDGB1Tqfx/VM5aCBlcptp2gErAiY5lV9G5Fffvlluf3225kYxP8YwBxzHgM8BngM8BjgMcBjgMeAF4+Bvn37yt69e238OnNozNFKqT2H3pCmr2lgpWm3qRUBSwJBEJh/a8zbB7POIIwT/vKXv8iDDz7IxIDHAI8BHgM8BngM8BjgMcBjgMcAj4GcHgO7du2SatWqhfHrSa5r7NQnjtUztcP8Upna4lNSOGUi4ILAdTqJU/WMfXzyySfy9NNPxx6XgAgggAACCCCAAAIIIOCPwNCh1j9M/WGl1LpKRL2+mwaW19tLcQg4IzDMVibFxcVSUlJiKzxxEUAAAQQQQAABBBIlQLII/FTg/PPPlw4dOvz0jnhvSe3F2w8w08A6IMHfCCAQiUAQBG30wpfrGfvYunWrTJo0Kfa4BEQAAQQQQCDVAhSPAAIIeCbgwKuvliql3vKMNetyaGBlTcYJCCCQpYB5ra3K8pxQDp8yZYps3rw5lLVYBAEEEIhTgFgIIIAAAggg4IZA8+bN5aabbrKdTKHtBFyITwPLhV0gBwQ8FQiC4ChdWk89Yx86thQVFcUel4DOCJAIAggggAACCCCAAAJ5CwwYMECqV6+e9zp5LPClPneOnqkfNLBS/xAAAIHyBEK5vbdepa6esY8FCxbIihUrYo9LQAQQQAABBBBAAAEEEPBDoGbNmtK/f3/bxYxUSu21nYQL8WlgRbkLrI1AigWCIKiqyx+sp5XBq6+ssBMUAQQQQAABBBBAAAFvBG6++Wb52c9+llk90Ry1Qy87Xk+GFqCBpREYCCAQicANetWT9Ix9rFy5UubPnx97XAIigAACCCCAAAII5C7AmQi4JuDAxdunKqU2uOZiKx8aWLbkiYuA/wLDbZVoXn1VUlJiKzxxEUAAAQQQsCVAXAQQQACBkAQuuOACOeecc0JaLedluHj7IXQ0sA7B4EsEEAhHIAiCM/VKF+sZ+9iyZYtMnjw59rgERAABXwSoAwEEEEAAAQQQEHHg1VfPKaXeYy9+FKCB9aMFXyGAQHgCw8JbKruVTPPqhx9+yO4kjg5XgNUQQAABBBBAAAEEEEiwwHHHHSddu3a1XQGvvjpiB2hgHQHCtwi4IJDkHIIgaKrz765n7EPHFvP2wdgDExABBBBAAAEEEEAAAQS8ERg4cKBUr17dZj2f6eBz9WQcIuBrA+uQEvkSAQRiFuin49XSM/bxzDPPyMcffxx7XAIigAACCCCAAAIIIICANYFQA9eqVUv69TO/0oS6bLaLFSul9mV7ku/H08DyfYepD4EYBYIgME9TDIwx5GGhCgoKDvuebxBAAAEEEEAAAQQyEeAYBBA4IHDzzTdL06bmTSUHbon976064gQ9GUcI0MA6AoRvEUAgL4Eb9dnH6Rn7+Oijj2ThwoWxxyUgAggggAACpQL8gQACCCDghcCwYdYu53vAb4pSavOBb/j7RwEaWD9a8BUCCOQvMDz/JXJbwVz7qqSkJLeTOQsBBJwQIAkEEEAAAQQQQMCmwIUXXihnnXWWzRQCHbxIT0YZAjSwykDhJgQQyF4gCIIO+qzz9Ix9bN68WaZMmRJ7XAcDkhICCCCAAAIIIIAAAgjkKDB06NAczwzttAVKqRWhrebZQjSwPNtQyslXgPPzELD2WtvJkyfLli1b8kidUxFAAAEEEEAAAQQQQCDNAscff7x06dLFNkGh7QRcjh9+A8vlaskNAQQiEQiCoJleuJuesQ/ztsHi4uLY4xIQAQQQQAABBBBAAIHUC3gEMHDgQKle3XwmlbWiVurIz+jJKEeABlY5MNyMAAJZCQzQR9fQM/Yxf/58WbnS/Fsfe2gCIoAAAggggAACeQuwAAII2BeoVauW9O3b13YihUopLupbwS7QwKoAh7sQQKBygSAIauqj+utpZRQUFFiJS1AEEEAAAWcESAQBBBBAAIG8BLp37y5NmzbNa408T/5Bnz9ZT0YFAjSwKsDhLgQQyEjAvHXwmIyODPmgFStWyKJFi0JeleUQSKMANSOAAAIIIIAAAukVcODi7ZOUUlzUt5KHIA2sSoC4GwEEKhUYXukRER1QVFQkQWA+aTaiANksy7EIIIAAAggggAACCCCQOIGLLrpIfvGLX9jM27xtkIv6ZrADNLAyQOKQeASIkjwB3Ty6UGd9tp6xj02bNsmUKVNij0tABBBAAAEEEEAAAQQQ8EfAgVdfzVdKpe6ivrk8gmhg5aLGOQggcEBg6IEv4v570qRJsnXr1rjDEg8BBBBAAAEEEEAAARcEyCEEgRNOOEG6dOkSwkp5LTEir7NTdDINrBRtNqUiEKZAEAQn6PW66hn7KCkpkeJiXmUbOzwBEUAAAQQQ8EqAYhBAIO0CAwcOlGrVqtlk+EAHf1ZPRgYCNLAyQOIQBBAoU2CgvtXKv/bz5s2TTz/9VIdnIIAAAghYFSA4AggggAACCRWoVauW9O3b13b2RUopLuqb4S7QwMoQisMQQOBHgSAIauvv+ulpZRQUFFiJS1AEohBgTQQQQAABBBBAAIH4Bbp37y5HH310/IF/jLhRfzlVT0aGAjSwMoTiMAQQOEygh/6uiZ6xjw8++ECee+65Q+PyNQIIIIAAAggggAACCCCQlcCwYcOyOj6CgycqpbiobxawNLCywPL3UCpDIGsBaxdvLywslCDgVbZZ7xgnIIAAAggggAACCCCAQKnAxRdfLGeeeWbp15b+KNFxLV3UV0dO6KCBldCNI20EbAno5tFlOnY7PWMfGzdulIceeij2uAREAAEEEEAAAQQQQOCgAF8kXsCBV189qZT6PPGQMRdAAytmcMIh4IGAtVdfTZw4UbZu5VW2HjyGKAEBBBBAIOUClI8AAgjYEjjxxBPlhhtusBX+QFwu6ntAIou/aWBlgcWhCKRdIAiCltrgX/WMfZSUlEhxMa+yjR2egAgg4KoAeSGAAAIIIIBADgIDBw6UatWq5XBmaKe8o1daoicjSwEaWFmCcTgCKRcYrOuvqmfs46mnnpLPP+dVtrHDex2Q4hBAAAEEEEAAAQTSJFC7dm3p27ev7ZILlVJc1DeHXaCBlQMapyCQRoEgCOrqunvr+eOI8asRI0bEGI1QCCCAAAIIIIAAAggg4JvArbfeKk2aNLFZ1nodfLqejBwEaGDlgBbmKayFQIIEbte5NtIz9vHee+/JkiVLYo9LQAQQQAABBBBAAAEEEPBHYOhQa5fzLUXUf4xXSm3XfzNyEKCBlQMapyCQNoEgCJSu2dq/9gUFBaJz0CkwEEAAAQQQQAABBFIsQOkI5CxwySWXSPv27XM+P4QT9+o1uKivRsh10MDKVY7zEEiXwFW63NP1jH1s2LBBpk2bFntcAiKAAAIIIOCnAFUhgAAC6RRw4NVXs5VSX6VTP5yqaWCF48gqCPguMMxWgRMmTJDt23mVrS1/4iKAQBkC3IQAAggggAACiRI46aST5IYbbrCdc4HtBJIenwZW0neQ/BGIWCAIgtN0iE56xj727dsnxcW8yjZ2+BgCEgIBBBBAAAEEEEAAgbgEBg4cKNWqVYsrXFlx3lBKvVjWHdyWuQANrMytOBIBlwTizGWIDmbl34o5c+bIl19+qcMzEEAAAQQQQAABBBBAAIHsBWrXri19+vTJ/sRwzygMd7l0rmbll1I3qMkCAQQqEwiCoKE+5g49rQxz8XYrgQmKAAIIIIAAAggggAACXgj06NFDmjRpYrOW73Twh/Vk5ClAAytPQE5HwHMB07yqb6PGd955R5YtW2YjNDERQAABBBBAAAEEjhTgewQSKuDAxdvHKKV2JZTPqbRpYDm1HSSDgDsCQRCYfx/M2wetJFVYWCg6ByuxCYoAAggggEAUAqyJAAIIIBCvQMeOHaVdu3bxBj082h797Wg9GSEImF9QQ1iGJRBAwEOB63RNp+oZ+1i/fr1Mnz499rgERAAB5wVIEAEEEEAAAQQQyFhgyBBrz8cfyPFRpdSaA9/wd34CNLDy8+NsBHwWGGaruPHjx8v27dtthfc8LuUhgAACCCCAAAIIIOC/wEknnSQ33HCD7UILbCfgU3waWD7tJrXEI5CCKEEQtNFlXq5n7GPfvn0ycuTI2OMSEAEEEEAAAQQQQAABBPwRGDRokFStWtVmQa8opZbbTMC32FYaWL4hUg8CHgoM1TUpPWMfs2fPllWrVsUel4AIIIAAAggggAACCCAQvoCNFevUqSN9+vSxEfrQmLz66lCNEL6mgRUCIksg4JNAEARH6Xp66mllFBTw77wVeIIigAACCCCAgKsC5IUAAlkK9OjRQ446yvxak+WJ4R3+jV7qET0ZIQrQwAoRk6UQ8ESgt66jrp6xj7feekteeOGF2OMSEAEEEEDAdwHqQwABBBBIk8DQoeYNJVYrHq2U2m01Aw+D08DycFMpCYFcBYIgMG8SH5zr+fmex6uv8hXkfAQiFGBpBBBAAAEEEEAgAQKXXXaZ/Mu//IvNTE3jaozNBHyNTQPL152lLgRyEzAf03GxOf4iAAAQAElEQVRSbqfmd9b3338vM2bMyG8Rx88mPQQQQAABBBBAAAEEEIhWwIFXX81USq2Ntsp0rk4DK537ntSqyTt6geHRhyg7wrhx42THjh1l38mtCCCAAAIIIIAAAggggEAlAi1btpR//dd/reSoyO8eEXmEdAT4SZU0sH5Cwg0IpFMgCIL2uvKL9Yx97N27V0aOHBl7XAIigAACCCCAAAIIIOCvQPoqGzRokFStaq6KYq32l5RSr1uL7nlgGliebzDlIZCFgLVXXz3++OOyevXqLFLlUAQQQAABBBBAIAYBQiCAQGIE6tatK717m8+jsppyodXongengeX5BlMeApkIBEHQVB/XXU8rg4u3W2EnKAIIIBCLAEEQQAABBBCIQ6Bnz57SuHHjOEKVF8M8I/94eXdye/4CNLDyN2QFBHwQ6KuLqKVn7OONN96Ql156Kfa4BEQgQQKkigACCCCAAAIIIFCBgFJKHLh4+yil1J4K0uSuPAVoYOUJyOkIJF0gCILquoZBeloZhYVxvMrWSmkERQABBBBAAAEEEEAAgRgELrvsMmnTpk0MkcoNsVPfM1ZPRoQCNLAixPVqaYrxWeBGXdxxesY+vvvuO5kxY0bscQmIAAIIIIAAAggggAAC/gg48Oqr6Uqp770RdbQQGliObgxpIRCjgLWLt48bN0527jRPVsRYLaEQQAABBBBAAAEEEIhYgOXjE2jZsqV07tw5voBlRyoo+2ZuDVOABlaYmqyFQMIEgiDooFM+T8/Yx549e2TUqFGxxyUgAggggAACCCRCgCQRQACBjAQGDx4sVatWzejYiA5aqpR6O6K1WfYQARpYh2DwJQIpFBhmq+bHHntMvv76a1vhiYsAAgikQIASEUAAAQQQ8Fugbt260rt3b9tF8uqrmHaABlZM0IRBwDWBIAia6Zy66WllFBTw77wVeIJmJ8DRCCCAAAIIIIAAAs4K9OrVSxo1amQzvy918Cf1ZMQgQAMrBmRCIOCowACdVw09Ix1lLf7aa6/Jyy+/XNZd3IYAAggggAACCCCAAAIIVCqglBIHLt4+Uim1t9JkOSAUARpYoTBGugiLIxC6QBAENfWi/fW0Mnj1lRV2giKAAAIIIIAAAggg4I3A5ZdfLq1bt7ZZz3YdfLyeYQ7WqkCABlYFONyFgMcC3XRtx+gZ+1i7dq3MmjUr9rgERAABBBBAAAEEEEiDADWmRcCBV19NVUptSIu3C3XSwHJhF8gBgfgFhscfcn/EsWPHyq5du/Z/w58IIIAAAggg4J4AGSGAAAKOC5x88snSuXNnm1kGOnihnowYBWhgxYhNKARcEAiC4EKdx9l6xj727Nkjo0ePjj0uARFAAIG4BYiHAAIIIIAAAtEJDB48WKpUsdrOeE4p9X50FbJyWQJWd7yshLgNAQQiFxgaeYRyAjzyyCOyZs2acu7lZgQOE+AbBBBAAAEEEEAAAQR+IlC3bl256667fnJ7zDfw6quYwU04GlhGgYmAlwI/LSoIghP0rV31tDK4eLsVdoIigAACCCCAAAIIIOCNwG233SaNGjWyWc+nOvg8PRkxC9DAqgic+xDwT2CgLqmanrGPV199Vf7xj3/EHpeACCCAAAIIIIAAAggg4IeAUkqGDBkSTTGZr1qklNqX+eEcGZYADaywJFkHAccFgiCorVPsp6eVwauvrLATFAEEEEAAAQQQiE2AQAhELXDFFVdI69atow5T0fpb9Z2T9GRYEKCBZQGdkAhYEuih4zbRM/bx7bffyqxZs2KPS0AEEEAAAQQSJkC6CCCAAAIVCAwdau1yvgeymqKU2nzgG/6OV4AGVrzeREPApoC1f+3NJw/u3r3bZu3ERgCB1AhQKAIIIIAAAgj4KHDqqafKddddZ7O0QAfn4u0awdaggWVLnrgIxCgQBEFHHa6dnrEP07gaM2ZM7HEJmIcApyKAAAIIIIAAAggg4JjA4MGDpUoVqy2MBUqpjxxjSVU6Vnc/VdIUmyoBB4u19uqrRx55RMxbCB00ISUEEEAAAQQQQAABBBBIgEC9evXkzjvvtJ0pr76yvAOuNrAssxAeAX8EgiBoqau5Xk8rg4u3W2EnKAIIIIAAAggggAACSRGoNM/bbrtNGjZsWOlxER7wsV77GT0ZFgVoYFnEJzQCMQkM1nGq6hn7WL58ubzyyiuxxyUgAggggAACCCCQLgGqRcBfAaWUOHDx9iKlVIm/ysmojAZWMvaJLBHISSAIgrr6xN56Whm8+soKO0ERQAABBHIR4BwEEEAAAScFrrrqKjn99NNt5mY+dXCyzQSIvV+ABtZ+B/5EwFeB23RhjfSMfaxZs0Yee+yx2OMSEAEE7AkQGQEEEEAAAQQQCFvAgVdfTVZKbQm7LtbLXoAGVvZmnIFAIgSCIFA60WF6WhmjR48W8wmEVoInNyiZI4AAAggggAACCCCAwD8FTj31VLnmmmvE4v/M2waLLMYn9CECNLAOweBLHwSo4RCBq/TXVl5ru2vXLhk7dqwOz0AAAQQQQAABBBBAAAEEchMYMmSIVKlitW0xTyn1SW7Zc1bYAj99JIQdgfUQQMCWgLVXX82aNUvWrl1rq27iIoAAAggggAACCCCAQCYCDh9Tv359ufPOO21nWGA7AeL/KEAD60cLvkLAG4EgCE7TxXTS08rg4u1W2AmKAAIIIIAAAhYECIkAAtEI3HbbbdKgQYNoFs9s1Q/0Yc/pyXBEgAaWIxtBGgiELDBEr2flv++XXnpJXnvtNR2egQACCCCAQEYCHIQAAggggMBhAkopceDi7YVKqeCwxPjGqoCVX3CtVkxwBDwXCIKgoS7xDj2tjMLCQitxCYpAugWoHgEEEEAAAQQQ8Efg6quvlp///Oc2C9qog0/Vk+GQAA0shzaDVBAIScA0r+qHtFZWy3z99dfy+OOPZ3WOMweTCAIIIIAAAggggAACCDgh4MCrryYqpbY5gUESBwVoYB2k4It8BTjfvkAQBOa/afP2QSvJjBo1Svbs2WMlNkERQAABBBBAAAEEEEAg+QKtWrWSTp2sXc7XAO7TfxTpyahAwMZd5pddG3GJiQAC0Qhcp5c9Vc/Yx86dO2Xs2LGxxyUgAggggAACCCCAAAIJFCDlcgSGDBkiVapYbVU8qZT6opz0uNmigNVHhcW6CY2ArwLDbBU2Y8YMWbduna3wxEUAAQQQQACB1AlQMAII+CZQv359ueOOO2yXVWA7AeKXLUADq2wXbkUgcQJBELTRSV+up5VRUMC/81bgQwxaq1YtOffcc6Vfv34yfPhwJgY8BtLwGKBGHuc8BngM8BjgMeDQY8D8TtGgQYMQf8LNeql39BlL9WQ4KEADy8FNISUEchQYqs9TesY+XnjhBXnzzTdjj0vA3AWqVasmrVu3ll69eklxcbG89tprsnnzZlm+fLmMGTNGHnjgAWaGBg9wHI8VHgM8BngM8BjgMcBjgMdAKI8BB159VaiUCnL/KZszoxSggRWlLmsjEJNAEASNdaieeloZRUV5XePQSs5pCqr/T1hOPvlkufnmm2XEiBFiGo6bNm2S999/Xx588EEZNGiQnH322VKjRo00sVArAggggAACCCCAAAKHCqzX30zXk+GoAA0sRzcmu7Q4GgHpow3q6hn7WL16tcyePTv2uAQsX+BAs+qvf/2rLFq0SNavXy+ffvqpmOuUDRs2TC688EKpW9fKw6X8pLkHAQQQQAABBBBAAAG7AmP1E7/b7aaQSfT0HkMDK717T+WeCARBUFWXMlhPK2PUqFGyZ88eK7EJul/AfErL+eefL6ZhtWLFioPNqt/+9rdyxRVXSOPG5gV6+4/lTwQQQAABBBBAIPUCACDwU4G9+qZRejIcFqCB5fDmkBoCGQrcoI87Sc/Yx86dO2Xs2LGxxyWgiLng+lVXXVXq//XXX8vf//53MQ2rn//85/AggAACCCAQuQABEEAAAc8EZiulvvKsJu/KoYHl3ZZSUAoFhtuqefr06fL999/bCp+6uI0aNZLu3buXvhXw22+/lQULFkjfvn3l2GOPTZ0FBSPggQAlIIAAAggggIA7AiPcSYVMyhOggVWeDLcjkACBIAja6zQv1tPKMB9zayVwioIef/zxpRdZN82qtWvXimkamouxN2zYMEUK5ZXK7QgggAACCCCAAAII5C3whlLqpbxXYYHIBWhgRU5MAAQiFcjv1Vd5pLZs2TJ5++2381iBU8sTqF+/vtx1112yfPlyWbVqlRQXF4t5uyCfElieGLcjgAACCCCAAAIIIJCzQEHOZ3JirAI0sPLk5nQEbAkEQdBUx+6up5XBq6/CZdfP+kiHDh1k3LhxsmbNGpkwYYKce+65Ym4PNxKrIYAAAggggAACCCCAwD8FvtN/z9Azo8FBdgVoYNn1JzoC+Qj01SfX0jP2YV4VNGfOnNjj+hjwqKOOkrvvvlvee+89eeWVV6RPnz5Sr149H0ulJgQQQAABBBBAAAEEXBMYo58w3uVaUuRTtgANrLJduBUBpwWCIKiuExykp5UxcuRI2bvXfNKslfCJD1qlShW54oor5JFHHpFvvvlG7r//fmndunXi66IABBBAAIE4BIiBAAIIIBCSwB69zmg9GQkRoIGVkI0iTQSOELhRf3+cnrGPHTt2yPjx42OP60PAE088Uf7zP/9TPv30U1m0aJHcdNNNwnWtfNhZakicAAkjgAACCCCAAAIijyil1gCRHAEaWMnZKzJF4FABaxdvnzZtmqxfv/7QXPi6AgHToPrNb34j8+bNk88//1z++Mc/SosWLSo4Ixl3kSUCCCCAAAIIIIAAAgkX4OLtCdtAGlgJ2zDS9UYg50KCIOigTz5PTyujsLDQStykBa1atWrp9ay++OILmTVrllx77bVi3jqYtDrIFwEEEEAAAQQQQAABDwVeUUr9w8O6vC4pwQ0sr/eF4hCoSGBYRXdGed/zzz8v77zzTpQhvFj7uuuuk7feeqv0EwWbNWvmRU0UgQACCCCAAAIIIICAPYHQI48IfUUWjFyABlbkxARAIDyBIAhMN6RbeCtmt1JRUVF2J6Ts6A4dOsjixYtl7ty50rZt25RVT7kIIIAAAggg4LQAySGAwAGBb/QXj+rJSJgADayEbRjppl5ggBaooWfs48svv5Qnn3wy9rhJCNiyZUuZPn26/OMf/5COHTsmIWVyRAABBBDIQYBTEEAAAQS8EBitlNrtRSUpK4IGVso2nHKTKxAEQU2dfX89rYyRI0fK3r17rcR2NWjjxo3l/vvvlxUrVkj37t1F/x+hq6mSFwKuCJAHAggggAACCCBgU2CXDj5GT0YCBWhgJXDTSDm1At105cfoGfvYvn27jB8/Pva4rgasU6eO3HPPPaWfKnj33XeL+aTB+HIlEgIIIIAAAggggAACCOQoMEs/6bw2x3M5zbIADSzLG0B4CwLJDTncVuoPPfSQbNiwwVZ4Z+KaTxa8/fbb5YMPPpB7KhEjrwAAEABJREFU771XGjZs6ExuJIIAAggggAACCCCAAAKVCnDx9kqJ3D0gpwaWu+WQGQJ+CgRBcIGu7Gw9rYzCwkIrcV0KetVVV8nrr78ukydPlpNOOsml1MgFAQQQQAABBBBAAIHIBDxa+CWl1Ose1ZO6UmhgpW7LKTihAsNs5f3cc8/Je++9Zyu89bhnnnmmPPvss7JgwQJp37699XxIAAEEEEAAAQQSJ0DCCCDghkCBG2mQRa4CNLByleM8BGISCILgBB2qq55WRlpffdWiRQt58MEHS191dfnll1uxJygCCCCAwAEB/kYAAQQQQCAvgdX67Nl6MhIsQAMrwZtH6qkRGKgrraZn7OPzzz+XuXPnxh7XZkDzyYJ//etf5cMPP5RevXpJlSr8M2lzP4gdogBLIYAAAggggAAC6RUYpZTak97y/aic38z82Eeq8FQgCILaurR+eloZxcXFsm/fPiux4w5as2ZNMZ8ouHLlSvntb38rtWrV+kkK3IAAAggggAACCCCAAAKJE9ipMx6rJyPhAjSwEr6BCUufdLMXuFWf0kTP2Me2bdtk4sSJsce1EfD888+XFStWyP333y9NmljhtlE2MRFAAAEEEEAAAQQQSIPANKXU92ko1LEaQ0+HBlbopCyIQKgCw0JdLYvFpk6dKhs3bszijGQeOmjQIFmyZImYa14lswKyRgABBBBAAAEEEPBTgKpCEigMaR2WsSxAA8vyBhAegfIEgiDoqO9rp2fsQ8cW3y/eXq9ePZk+fbqYt0nWqFEjdmMCIoAAAggggEAMAoRAAIG0CyxRSr2ddgRf6qeB5ctOUoePAkNtFfXss8/KBx98YCt85HFPP/10Wb58uXTv3j3yWARAAAEEki5A/ggggAACCCRYgFdfJXjzjkydBtaRInyPgAMCQRC01Glcr6eVUVRUZCVuHEG7desmr7zyirRp0yaOcMRAwAgwEUAAAQQQQAABBOIX+FKHfFJPhicCNLA82UjK8E5gsK6oqp6xj08//VTmzZsXe9yKA+Z/b/Xq1Usv0j5z5kypX79+/guyAgIIIIAAAggggAACCLgsUKSU2utyguSWnQANrOy8kns0mSdGIAiCujrZ3npaGeaaUPv27bMSO6qgzZs3l8WLF8vdd98dVQjWRQABBBBAAAEEEEAAAXcEtutUJuiZzuFp1TSwPN1Yykq0wG06+0Z6xj62bt0qEydOjD1ulAE7dOggb731llx44YVRhmFtBBBAAAEEEEAAAY8EKCXxAlOVUhsTXwUFHCZAA+swDr5BwK5AEARKZ2Dt4u0PPvigbN68WafgxzDNq4ULF0rTpk39KIgqEEAAAQQQSI4AmSKAAAK2BAIdmIu3awTfBg0s33aUepIucJUu4Aw9Yx+6eSaFhf78O3+gedWoUaPYLQmIAAIIhCPAKggggAACCCCQg8BzSqn3cziPUxwXoIHl+AaRXuoEhtmq2LxSacWKFbbChxqX5lWonMlejOwRQAABBBBAAAEE0ibgz7Pyadu5SuqlgVUJEHcjEJdAEAStdKxOeloZ5b36ykoyeQSleZUHHqcigAACCCCAAAIIIJBsgU91+nP1ZHgoQAMr+k0lAgKZCgzRB1r5b3LlypUyf/58HT7Zg+ZVsveP7BFAAAEEEEAAAQQQyFOgSClVkuca+ZzOuREKWPllOcJ6WBqBRAoEQdBAJ36nnlZGcXGxlJQk+995mldWHjoERQABBBBAAAEEQhZgOQRyFtiqz5ykJ8NTARpYnm4sZSVOwDSv6tvIesuWLTJpUrL/nad5ZeORQ0wEEEAAAWcFSAwBBBBIp8AUpdTmdJaejqppYKVjn6nSYYEgCMx/h+btg1aynDJlivzwww9WYocRlOZVGIqsgQACRwrwPQIIIIAAAggkSiDQ2XLxdo3g8zC/OPtcH7UhkASB63SSp+oZ+9DNM0nyxdt/+ctfivn0xEaNGsVuR8BKBTgAAQQQQAABBBBAAIG4BJ5RSn0UVzDi2BGggWXHnagIHCow7NBvfvw6+q+eeeYZ+fjjj6MPFEGEM888s/TC8zSvIsBlSQQQQAABBBBAAAEEkiVQkKx0yTYXAb8bWLmIcA4CMQoEQdBah7tcTyujoCCZ/863bdtWnn32WTnqqKOsuBEUAQQQQAABBBBAAAEEnBEwr7xaKM6kQyJRCdDAikqWdRHITGCoPkzpGfswr7wyb7+LPXCeAX/+85+XNq+aNGmS50qcjgACCCCAAAIIIHCoAF8jkFCBIqVUSUJzJ+0sBGhgZYHFoQiEKRAEQWO9Xi89rYyioiIpKUnWv/OnnHKKLF68WI455hgrZgRFAAEEEECgEgHuRgABBBCIV8B86uCUeEMSzZYADSxb8sRFQKSPRqirZ+zDfOrg5MmTY4+bT8CWLVuWNq+aN2+ezzKciwACzguQIAIIIIAAAgggkLHAJKXUloyP5sBEC9DASvT2kXxSBYIgqKpzH6ynlTFp0iTZsiU5/84ff/zxsmjRIjnxxBOteCUuKAkjgAACCCCAAAIIIOC/gHk7SZH/ZVLhAQEaWAck+BuBQwRi+PIGHeMkPWMf5m2DxcXFscfNNWCzZs1KX3ll3j6Y6xqchwACCCCAAAIIIIAAAt4JzFNKfepdVRRUrkBUDaxyA3IHAgiUCgwv/dPCH/Pnz5eVK1daiJx9yKZNm8pzzz0nrVq1yv5kzkAAAQQQQAABBBBAAIE4BGzFKLAVmLh2BGhg2XEnaooFgiBor8u/WE8ro6AgGf/OH3XUUaWfNnjGGWdYcSIoAggggAACCCAQnwCREEAgS4EP9PHP6clIkQANrBRtNqU6IzDMViYrVqwovZaUrfiZxm3cuLEsXLhQ2rVrl+kpHIcAAgggkHYB6kcAAQQQSJNAgVIqSFPB1CpCA4tHAQIxCgRB0FSHu1VPK6OoqEh0DlZiZxq0QYMGYt7mePbZZ2d6CschgEBIAiyDAAIIIIAAAggkQGCjzvEhPRkpE6CBlbINp1zrAn11BrX0jH1s3rxZHnzwwdjjZhOwXr16MnfuXDn33HOzOc2lY8kFAQQQQAABBBBAAAEEohUYr5TaFm0IVndRgAaWi7uS6pz8LT4Iguq6ukF6WhmTJk2SLVu2WImdSdDatWvLnDlz5KKLLsrkcI5BAAEEEEAAAQQQQACB9Ans0yWP1JPhhUB2RdDAys6LoxHIR+BGffJxesY+SkpKxLx9MPbAGQasWbOmPP7443LZZZdleAaHIYAAAggggAACCCCAgKSP4Eml1BfpK5uKjQANLKPARCAeAWsXb583b558+umn8VSZQ5SJEydKp06dcjiTUxBAAAEEEEAAgfwEOBsBBBIlMCJR2ZJsqAI0sELlZDEEyhYIgqCDvud8Pa2MgoICK3EzCdqhQwfp3r17JodyDAIIIICAmwJkhQACCCCAQBwC7+ggy/RkpFSABlZKN56yYxew9uqrDz74QJ577rnYC8404F/+8hdRSmV6OMch4KkAZSGAAAIIIIAAAghUIlCglAoqOYa7PRaggeXx5lKaGwJBEByrM/mNnlaGufaVzsFK7MqCmmteXXHFFZUdltn9HIUAAggggAACCCCAAAK+CnyvC5uuJyPFAjSwUrz5R5bO95EJDNAr19Qz9rFp0yaZOnVq7HEzCaifPRHz6qtMjuUYBBBAAAEEEEAAAQQQSLXAOP37w45UC4RcfBKXo4GVxF0j58QIBEFgGlemgWUlZ3Nx9K1bt1qJXVnQG264Qc4999zKDuN+BBBAAAEEEEAAAQRcFCCn+AT26lAj9WSkXIAGVsofAJQfuUA3HeEYPWMfJSUlUlxcHHvcTAJWqVJF/uu//iuTQzkGAQQQQAABBLwVoDAEEEAgI4HHlVKrMzqSg7wWoIHl9fZSnAMCw23lMHfuXPnss89sha8wbs+ePaVt27YVHsOdCCCAAAIZCHAIAggggAAC/gsU+F8iFWYiQAMrEyWOQSAHgSAILtCnna2nlTFixAgrcSsLWr16dfnP//zPyg7jfgRiEyAQAggggAACCCCAgLMCbyilXnI2OxKLVYAGVqzcBEuZwDBb9b7//vvy/PPPxxU+qzj9+vWTli1bZnUOByOAAAIIIIAAAggggEAqBdx8Vj6VW2G/aBpY9vdAREjCN4EgCE7QNXXR08ooLCwUnYOV2BUFrVOnjvzud7+r6BDuQwABBBBAAAEEEEAAAQSMwFr9x0w9PRuUk6sADaxc5TgPgYoFBuq7q+sZ+9iwYYNMnTo19riZBBw2bJg0a9Ysk0M5BgEEEEAAAQQQQACBsgW4NS0CY5VSu9JSLHVWLkADq3IjjkAgK4EgCGrrE/rpaWVMmDBBtm/fbiV2RUEbNWokv/3tbys6hPsQQAABBBBAICYBwiCAAAKOC+zR+Y3Sk4HAQQEaWAcp+AKB0ARu1Ss10TP2sW/fPhk5cmTscTMJ+B//8R/SuHHjTA7lGAQQQCAJAuSIAAIIIIAAAtEJPKKU+ia65Vk5iQI0sJK4a+TsuoC1i7c/+eST8sUXXzjnc+yxx4p5+6BziZGQZQHCI4AAAggggAACCCBQpgAXby+TJd030sBK9/5TfcgCQRB01Eu20zOecUSUgoKCI25x41tz4fZ69eq5kQxZIIAAAggggAACCCCAgMsC/1BKveJyguRmRyD1DSw77ET1WGCordreffddWbp0qa3w5cY99dRTpV8/a5cEKzcv7kAAAQQQQAABBBBAAAEnBSJ7Vt7JakkqYwEaWBlTcSACFQsEQdBSH3G9nlZGYWGh6BysxK4o6P333y81atSo6BDuQwABBBBAAAEEEEiGAFkiELXAGh3gUT0ZCPxEgAbWT0i4AYGcBQbrM6vqGftYv369TJs2Lfa4lQW87rrrpHPnzpUdxv0IIIAAAgikSIBSEUAAAQQqEBitlNpdwf3clWIBGlgp3nxKD08gCIK6erXeeloZEyZMkO3bt1uJXV7QmjVryogRXHuxPB9uRwCBPAQ4FQEEEEAAAQR8FNilixqjJwOBMgVoYJXJwo0IZC1wmz6jkZ6xj3379snIkSNjj1tZwP/4j/+QU045pbLDuN+SAGERQAABBBBAAAEEEHBMYIZS6jvHciIdhwRoYDm0GaSSKIGDyQZBoPQ3Q/W0MubMmSNffvmlldjlBT3xxBPlnnvuKe9ubkcAAQQQQAABBBBAAAEEjhTg4u1HivD9YQIWG1iH5cE3CCRZ4Cqd/Bl6Whkuvk3vvvvuk7p1zbsqrZAQFAEEEEAAAQQQQAABBJwSqDSZF5VSb1R6FAekWoAGVqq3n+JDErD26qu3335bli1bFlIZ4SxzxRVXyE033RTOYqyCAAIIIIAAAgggsF+APxHwW6DQ7/KoLgwBGlhhKLJGagWCIGili79GTyujoMCtV9lWr15dXMvJysYQFAEEEEDASQGSQgABBBBwUuArndVsPRkIVChAA6tCHu5EoFKBIfoIK/8dff/99/Lwwxwhn/QAABAASURBVA/r8O6MYcOGyRlnWHs3pTsQZIKAvwJUhgACCCCAAAIIhC0wSim1J+xFWc8/ASu/ePvHSEVpFAiCoIGu+049rYxx48bJjh07rMQuK2jz5s3lD3/4Q1l3cdthAnyDAAIIIIAAAggggAAC/xQwv9CM/efX/IVAhQI0sCrk4U4nBdxJyjSv6ttIZ+/evTJq1CgbocuN+X/+z/+RBg1MT6/cQ7gDAQQQQAABBBBAAAEEEDhUYLpSav2hN/A1AocJHPINDaxDMPgSgUwFgiAw/+2Ytw9mekqox82ePVu++sq8VTzUZXNe7IILLpBbb7015/M5EQEEEEAAAQQQQAABBKIRcHxVty7q6zhW2tMzv4Sn3YD6EchF4Fp90ql6WhkuXSi9atWqUlxcLPqZEysWBEUAAQQQQAABBCIWYHkEEIhGYIn+HeKdaJZmVR8FaGD5uKvUFIfA8DiClBXjzTfflBdffLGsu6zcdvHFF0v79u2txCYoAggggEBSBMgTAQQQQACBnwgU/uQWbkCgAgEaWBXgcBcCZQkEQdBa3365nlaGS6++MgBdu3Y1fzERQCBqAdZHAAEEEEAAAQT8EfhCl/KkngwEMhaggZUxFQcicFBgqP5K6Rn7WLduncyYMSP2uOUFVEpJly5dyrvbudtJCAEEEEAAAQQQQAABBJwQKFZK7XUiE5JIjAANrMRslROJpj6JIAgaa4ReeloZ48aNk507d1qJXVbQ888/X4477riy7uI2BBBAAAEEEEAAAQQQQKAsgW36xgl6MtwWcC47GljObQkJOS7QR+dXV8/Yx969e2XkyJGxx60oIG8frEiH+xBAAAEEEEAAAQTSLUD15Qg8pJTaWM593IxAuQI0sMql4Q4EDhcIgqCqvmWwnlbGY489Jl9//bWV2GUF1f+nIzSwypLhNgQQQAABBBAITYCFEEDAN4FAF1SgJwOBrAVoYGVNxgkpFrhB136SnlaGaxdvP+uss6Rly5ZWLAiKAAIIIJC5AEcigAACCCDgkMCz+onwDxzKh1QSJEADK0GbRarWBYbZyuD111+Xv//977bClxmXV1+VycKNfgpQFQIIIIAAAggggEA4AoXhLMMqaRSggZXGXafmrAWCIGivT7pETyvDtVdfGYQbb7zR/JXh5DAEEEAAAQQQQAABBBBIucAnuv55ejIQyEmABlZObBZOIqRtAWuvvlq7dq3MnDnTdv2HxW/btq38/Oc/P+w2vkEAAQQQQAABBBBAAAEEKhAoVkqVVHA/dx0Q4O8yBWhglcnCjQj8KBAEQVP93a16Whljx46VXbt2WYldXlDePlieDLcjgAACCCCAAAIIuCBADs4JbNUZTdKTgUDOAjSwcqbjxBQJ9NW11tIz9rFnzx4ZPXp07HErC8jbBysT4n4EEEAAAQQSL0ABCCCAQJgCk5VSm8NckLXSJ0ADK317TsVZCARBUF0fPkhPK+PRRx+VNWvWWIldXtBWrVpJu3btyrub2xFAAAEEDgrwBQIIIIAAAghogUDPIj0ZCOQlQAMrLz5OToGAuVL5cbbqdPHi7bx90NajIaVxKRsBBBBAAAEEEEAg6QLPKKU+SnoR5G9fgAaW/T0gA7cFrF28/dVXX5Xly5fnrRP2Arx9MGxR1kMAAQQQQAABBBBAwGuBAq+ro7jYBGhgVU7NESkVCIKggy79fD2tDBdffXX88cfLOeecY8WDoAgggAACCCCAAAIIIJA4AfPKqwUJyppUHRaggeXw5pCadQFrr7769ttv5ZFHHrEOcGQCV155pSiljryZ7xFAAAEEEEAAAQQQ+KcAfyFwmEChUspcA+uwG/kGgVwEaGDlosY53gsEQXCsLvI3eloZY8eOlV27dlmJXVHQq666qqK7uQ8BBBBAAAEEwhBgDQQQQMAPAfOpgw/6UQpVuCBAA8uFXSAHFwUG6KRq6hn72L17t4waNSr2uJUFrFKlilx++eWVHcb9CCCAgBMCJIEAAggggAAC1gUmKqW2WM+CBLwRoIHlzVZSSFgCQRCYxpVpYIW1ZFbrmLcOmrcQZnVSDAefeeaZ0rRp0xgiEcIRAdJAAAEEEEAAAQQQQCBXgRJ9YrGeDARCE6CBFRolC3kk0E3XcoyeeY7cTnfx4u2mEnP9K/M3EwEEEEAAAQQQQAABBBCoRGCeUurTSo7hbgSyEnC7gZVVKRyMQGgC1i7evnz5cnnllVdCKyTMhWhghanJWggggAACCCCAAAIIeC0wIuvqOAGBSgRoYFUCxN3pEgiC4AJd8Tl6WhmFhYVW4lYWtE6dOnLBBYamsiO5HwEEEEAAAQQQQMCWAHERcETgfZ3HYj0ZCIQqQAMrVE4W80DA2quvvvnmG3n00UedJLzoooukVq1aTuZGUggggAACCIQowFIIIIAAAvkLFCqlgvyXYQUEDheggXW4B9+lWCAIguN1+V30tDJGjx4t5hMIrQSvJChvH6wEiLsRQOAQAb5EAAEEEEAAgRQLbNC1T9WTgUDoAjSwQidlwQQLDNS5V9cz9mEaV2PGjIk9bqYBaWBlKhXScSyDAAIIIIAAAggggEAyBSYopbYnM3Wydl2ABpbrO0R+OQlke1IQBLX1Of31tDJmzpwpa9eutRK7sqDHHnus/Mu//Etlh3E/AggggAACCCCAAAIIpFtgny6/WE8GApEIlNfAiiQYiyLgsMCtOrcmeloZrl683WBcccUVop9FMV8yEShX4IcffpD3339fFixYII888ggTAx4DPAZ4DBzyGFi6dGm5/35yhx8C8+fP5zF/yGOenwXs/Cy0YYN5915O/02FddIc/XvDl2EtxjoIHClAA+tIEb5Pq4C1i7f//e9/l1dffdVZd94+6OzWWEls1apVct9990n//v3luuuuk3bt2slRRx0lDRs2lLZt20qnTp2kW7duTAx4DPAY4DFwyGPgtddes/JvNkHjEfjoo4+kc+fOPOYPeczzs0D8PwvdfffdUq9evXge9OVHKSj/Lu5BIH8BGlj5G7JCwgWCIOioS2inp5VRVFRkJW4mQfUzKEIDKxMpv48xz+aZa7Rdcskl0qJFC/n3f/93GTt2rDz99NPy7rvvysaNG/0GoDoEEIhHwNModevWld69e3taHWUZAfOzXElJifmSiYA1gYEDB0qNGjWsxdeB39a/OyzVfzMQiEyABlZktCycIIGhtnJds2aNPPbYY7bCVxrXvKKmWbNmlR7HAX4KLFq0SH7961+LeQwMGDBAli1bJrrh62exnlRFGQgg4J7AbbfdJo0aNXIvMTIKRWDz5s0yZcqUUNZiEQRyFahVq1bpq+NzPT+k83j1VUiQLFO+AA2s8m24JwUC+pfxlrrM6/W0MkaNGiXmEwitBM8gqLn+VQaH+XQItWiB7du3y5AhQ+Tqq6+WOXPmOP0Y1ekyEEAAAWcFlFIybJi1qxQ46+JTYhMnTpQtW7b4VBK1JFCge/fu0rRpU5uZf6+DP6wnA4FIBWhgRcqbxsUTV/NgnXFVPWMfu3btKn0bVuyBswh41VVXZXE0h/og8MYbb8g555wjxcXFvNrKhw2lBgQQsCpg/n/09NNPt5oDwaMTMG8bNG8fjC4CKyOQmcDw4cMzOzC6o8YppXZEtzwruysQb2Y0sOL1JppDAkEQ1NXpWLsoxYwZM+S7777TKbg5atasKRdffLGbyZFV6AL6vwf53//7f8t5550nH374YejrsyACCCCQRgFefeX3rs+dO1c+++wzv4ukuugF8oxw6aWXSvv27fNcJa/T9+qzR+rJQCByARpYkRMTwGGB23Ru1i5KUVDg9tvEL7jgAqlTp44mYvgusHPnTunZs6f8j//xP2TPnj2+l0t9CCCAQCwCp512mphPZo0lWMqD2Cp/xIgRtkITF4GDAg40yh9XSq0+mBBfIBChQJUI12ZpBJwVCIJA6eSsXbz9xRdfFPNWLZ2Ds+NS/WyOs8mRWGgC33zzjXTs2FGmT58e2poshAACiRMg4QgEhg4dKlWq8KN2BLROLPnuu+/K888/70QuJJFegRYtWsj111u7nO8BeDq5ByT4O3IB/l81cmICOCpgLu50hq3cCgsLbYXOOG7Dhg0zPpYDkynw1ltvlb5lcPny5ckswKmsSQYBBBD4UcD8f+jtt9/+4w185Z2A+VlOPyHqXV0UlCwB86E7VatauZzvAajXlVJ/P/ANfyMQtQANrKiFWd9VAWuvvlq9erXMnj3bVRd7eRE5VoEnnnhCLrzwQlm1alWscQmGAAIIpEHgrrvukvr166eh1FTWuH79epk2bVoqa6dodwTq1q0rvXtbu5zvAQhefXVAgr9jEaCBFQtzPEGIkpmAfraslT7yGj2tjFGjRnGdISvyBD0g8Pbbb0v37t1l27ZtB27ibwQQQACBkATM2wbNqyJCWo5lHBQYN26cbN++3cHMSClNAuZVno0aNbJZ8lodfJaeDEsCaQxLAyuNu07NQzSBlce+uVi2+aFHx2cgYEVgy5Yt0q1bNzGPRSsJEBQBBBDwXKBz585y8skne15lesvbu3evjBzJB6558ghIbBlKKTHX2bNcwBil1C7LORA+ZQJWfolPmTHlOiQQBEEDnc6deloZDz/8sKxbt85KbIIiYAT69+8vH3/8sfmSiQACCCAQgcDw4cMjWNXVJdOX1+zZs+Wrr75KX+FU7JTA1VdfLaeffrrNnPbo4KP1ZCAQqwANrFi5CeaAgGleWbsohbngpwMGpJBSgbFjx4ppoqa0fMpGwE0BsvJKoG3bttKxY0evaqKYwwVGjOCSP4eL8J0NgWHDhtkIe2jMWUqpbw69ga8RiEOABlYcysRwQiAIAvN4N28ftJLPsmXL5M0337QSm6AIvPfee3L33Xd7CUFRCCCAgCsC5pdK/UudK+mQR8gCr732mrz00kshr8pyCGQnYF551alTp+xOCv/ogvCXZEUEKhcwv9BXfhRHIOCHgLlw+6m2SnH41Ve2SIgbo8DixYtlx44dMUYkFAIIIJAugSZNmkiPHj3SVXTKqi0o4Hf2lG25k+WaD4mw3ChfruO/4iQOSXkvQAMrlC1mkYQIWLsoxapVq+SJJ55ICBNp+iiwadMmH8uiJgQQQMAZgT59+kidOnWcyYdEwhX49ttvZdYsPnAtXFVWy1bAfOqg+fTBbM8L+Xg6uRKyKMtlLEADK2MqDkyyQBAErXX+V+hpZZhPqzGfWmMlOEER0AIbN27UfzIQQAABBKIQqFatmgwePDiKpVnTEYExY8bIrl184Fpo28FCOQn07t1b6tWrl9O5IZ20Rq/zmJ4MBKwI0MCywk5QCwJDdUylZ+zDvG1r/PjxscclIAKHCtDAOlSDrxFAAIFwBbp06SInnHBCuItWshp3xyewe/duGT2aD1yLT5xIZQlUrVpVzNsHy7ovxttGK6V2xxiPUAgcJkAD6zAOvvFRIAiCxrquXnpaGdOnT5f169dbiU1QBA4kRoFBAAAQAElEQVQI0MA6IMHfCBwU4AsEQhMYPtzaVQpCq4GFyheYNWuWmLcQln8E9yAQvcD1118vLVq0iD5Q+RHMSxDHlH839yAQvQANrOiNiWBfoLdOoa6eVgYX/LTCTtAjBKJpYB0RhG8RQACBFAqcddZZcsEFF6Sw8vSUPGLEiPQUS6XOCjjQKJ+hlPrOWSASS4UADaxUbHN6iwyCoKqu3tpFKZYsWSLvvPOOTqGcwc0IxCBgrr+2YsWKGCIRAgEEEEifgAO/VKYPPcaKX3rpJXnttddijEgoBH4q0L59e7nkkkt+eke8t3Dx9ni9iVaGQOIbWGXUxE0IHCpwg/7G2mttCwsLdXgGAnYFFixYIOvWrbObBNERQAABDwWOPfZYufnmmz2sjJIOCPBK+gMS/G1TwIFG+QtKqTdsGhyIzd/pFqCBle79T0P1w2wV+eWXX8qTTz5pKzxxETgoMG3atINf8wUCCCCAQHgC/fr1k5o1a4a3ICs5JbB69WqZPXu2UzmFkAxLJEygadOm0r17d9tZ86y87R0gfqkADaxSBv7wUSAIgva6LmuvtR05cqSYt27pHBgIWBPYsmULjVRr+gRGAAE/BfZXVaNGDRk4cOD+b/jTSwHzs9yePXu8rI2ikiPQv39/qVWrls2Ev9LBn9CTgYB1ARpY1reABCIUsPbqqx07dsj48eMjLI2lEchM4IknnpBt27ZldjBHIRCXAHEQ8ECgW7duYt5C6EEplFCGgPlZbuzYsWXcw00IxCdQvXp1FxrlI5VSdHLj23YiVSBAA6sCHO5KrkAQBE119rfqaWU89NBDsmHDBiuxCZoOgUyrNI/FTI/lOAQQQACBzAWGDbP2PFnmSXJkzgLm7ffr16/P+XxORCAMgd/85jfSvHnzMJbKdY0d+sRxejIQcEKABpYT20ASEQj01WtW9FpbfXd0gwt+RmfLytkJvP3229mdwNEIIIAAApUK/OpXv5IOHTpUehwHJFeAn+WSu3c+Ze7AxdunK6Xo5Pr0oEp4LXk0sBJeOel7KxAEQXVd3CA9rYzFixfLe++9ZyU2QRFAAAEEEEAgegFefRW9sc0I5me5d99912YKxEZAzjvvPPnlL39pW6LgxwT4CgH7AjSw7O8BGYQvcKNe8jg9rYzCQj6kwwo8QRFAAAEEEIhB4Pjjj5euXbvGEIkQtgQie/WVrYKIm0gBBxrlzyul3kkkHkl7K0ADy9utTXVh1i5K8fnnn8tTTz2VanyKRwABBBBAICoBF9YdNGiQmAsru5ALOYQv8Nlnn8ncuXPDX5gVEchC4LjjjpObbropizMiOZRn5SNhZdF8BGhg5aPHuc4JBEHQQSd1vp5Whvm45X379lmJTVAEEEAgAwEOQQCBPARq164t/fr1y2MFTnVdoLi4WPhZzvVd8j8/Bxrln2vlJ/VkIOCUAA0sp7aDZEIQGBrCGjktsW3bNpkwYUJO53JSkgSSlWurVq2SlTDZIoAAAg4L3HrrrdKkSROHMyS1fAS2bt3Kz3L5AHJuKAK1atVyoVE+UinFs/Kh7CiLhClAAytMTdbKTCCio4IgOFYv3U1PK+Ohhx6SjRs3WolNUATKE+jWzdp/EuWlxO0IIIBAYgUcuCZNYu2SkPiUKVNk8+bNSUiVHD0W6NGjhxx99NE2K9ymg/OsvEZghCQQ4jI0sELEZCnrAgN0BjX1jH3o5plw8fbY2QmYgcCNN94oVarwT30GVByCAAIIVChw2WWXSbt27So8hjuTK8DPcsndO98yL6tRHnONU5VSPCsfMzrhMhPgt5rMnDjKcQH9Q4dpXJkGlpVMn3vuOXn//fetxCYoAhUJNG/eXC644IKKDuE+BBBAAIEMBBz4pTKDLDmkHIFKb37mmWfko48+qvQ4DkAgSoGOHTvabpQHuj4u3q4RGG4K0MByc1/IKnuBbvqUY/S0Mnj1lRV2gmYowNsIM4TiMAQQqEAg3Xe1bNlSOnfunG4Ez6sfMWKE5xVSXhIEhg8fbjvNZ5VSH9hOgvgIlCdAA6s8GW5PmsAwWwmbj1ueN2+erfDERaBSga5du/I2wkqVYjiAEAggkFiBIUOGSNWqVRObP4lXLLBixQpZuHBhxQdxLwIRC5x88skuNMoLIi6T5RHIS4AGVl58nOyCQBAE5v1R59jKhY9bjk+eSLkJmLcRXnPNNbmdzFkIIIBAygXq1asnd911V8oV/C6/qKhI9M+TfhdJdc4LDB482Haj/BON9LSeDAScFaCB5ezWRJKYr4sOtVXYtm3bZOLEibbCExeBjAX+7//9v1K9evWMj+dABBBAAIH9Arfffrs0atRo/zf86Z3Apk2bZMqUKd7VRUHJEjCN8t69e9tOukgpVWI7CeKHKuDdYjSwvNvSdBWkny07XlfcVU8rw/zAY37wsRKcoAhkIXDGGWeIeWYvi1M4FAEEEEi9gP5lToYOtfY8Wer94wAwT0Ru3bo1jlDESKRAPEnfcccd0rBhw3iClR1li755kp4MBJwWoIHl9PaQXAYCA/UxVl5WoptnYl5yruMzEEiEwB//+Edp2rRpInIlSQQQQMAFgU6dOsnPf/5zF1JJbg4OZ15SUsLPcg7vT1pSq1KliguN8im6Yf9DWsypM7kCNLCSu3epz1w3kGpphH56WhmLFi2SDz/80EpsgiKQi4B5C8z/+l//K5dTOQcBBCwKENqewLBh1j4jxl7RKYr85JNPyueff56iiinVRQHTKD/ttNNsphbo4IV6MhBwXoAGlvNbRIIVCPTQ9x2tp5VRWMi/81bgCZqXgLm+wkUXXZTXGgk8mZQRQACBrAVOP/10ufrqq7M+jxOSIzBixIjkJEum3goMHz7cdm3zlVIf206C+AhkIkADKxMljnFVwNrTop988ok8/XSaPqTD1YcAeWUrYF6m/thjj8lJJ52U7akcjwACCKRKYMiQIaJ/qUtVzWkq9p133pGlS5emqWRqdVDAXKP0yiuvtJ1Zge0EiI9ApgI0sDKVyvc4zg9VIAiCjnrBdnpaGcXFxWKum2AlOEERyFPAXAdr7ty5Ur9+/TxX4nQEEEDATwHzluvbbrvNz+KoqlTAvJJe/zxZ+jV/IGBLwLxN2XKjfIWufaGejLAFWC8SARpYkbCyaAwC1j4SyHxSzaRJfEhHDHtMiAgF2rZtK9OnT5eqVatGGIWlEUAAgWQK3HXXXTT5k7l1GWX9/fffy7Rp0zI6loPsCfgeuXHjxtKrVy/bZRbpBpq5BpbtPIiPQEYCNLAyYuIglwT0s2UtdT7X62llTJ48WTZv3mwldpxB9+7dG2c4YlkQ6Ny5s/zlL3+xEJmQCCCAgLsCprFv3j7oboYZZ8aB5QiMGzdOduzYUc693IxAPAJ9+vSRunXrxhOs7Cib9M0P6slAIDECNLASs1UkeojAYP21lZeN6OZZaj5u+ZVXXtHMDN8Ffvvb38qAAQN8L5P6EMhRgNPSKGCa+y1bmufK0li9/zWbJ+hGjhzpf6FU6LSAaZQPHmx+pbGa5iSl1BarGRAcgSwFaGBlCcbhdgV0A8k8TdHbVhYLFiyQjz76yFb4WOMuXryY63zFKm4vmPlBfujQiN6Va68sIiOAAAI5CTjwiWA55c1JmQmYDzJZvXp1ZgdzFAIRCdxwww22P1CnRJdWpCcDgUQJ0MBK1HaRrBYwbxRvpP+2MswFP+MObCveunXrxHxCj634xI1PQD/7JgUFBXLPPffEF5RICCCAgIMC7dq1k44dzefEOJgcKYUiMGLEiFDWYREE8hG4++678zk9jHPn6p//PgtjIdZAIE6BNDSw4vQkVoQCQRAovfwwPa2MlStXyjPPPGMltq2gzz77rK3QxLUgcO+998qf//xnC5EJiQACCLghwKtR3diHqLJ49dVX5eWXX45qedZFICOBX/ziF3LRRRdldGyEBxVEuLbtpYnvsQANLI8318PSrtQ1naGnlWFefVVSYl5tayW8laDPPfeclbgEtSfwu9/9Tu6//37Rz8rZS4LICCCAgAWBo48+Wnr06GEhMiHjEjCvNo4rVrLjkH2UAsOGWXs+/kBZ7+svFuvJQCBxAjSwErdlqU7Y2r/2P/zwg0yZMiV1+C+88ILs2rUrdXWnvWDzsvZRo0ZJlSr8X0TaHwvUj0CaBPr27Su1a9cOp2RWcU7gm2++kVmzZjmXFwmlS+CYY46R7t272y66UD9RGdhOgvgI5CLAbye5qHFO7AJBELTSQa/R08qYPHmymCaWleAWg27bto2X2lv0txm6f//+pU3batWq2UyD2CkWoHQE4hQw/9YNGjQozpDEillg9OjRsnv37pijEg6BwwXMz1c1a9Y8/MZ4v9ugw03Vk4FAIgVoYCVy21KZ9BBdtZXHq26eSXFxsQ6fzsHbCBO773kn3rNnT5k5c6bUqFEj77VYAAEEEHBZoGvXrnL88ce7nCK55SFgXk0+ZsyYPFbgVATyFzA/Tw0YMCD/hfJbYbxSant+S3A2AvYErDQE7JVL5CQK6AZSA533nXrGPPaHmz9/vnz88cf7v0nhn1zIPYWbfkjJ5pe62bNn87aaQ0z4EgEE/BMYPny4f0VR0UGBGTNmyNq1aw9+zxcI2BDo1q2bNGvWzEboAzH36S9G6slAILEC0TawEstC4o4J3KHzqa+nlZH2C36aT+zZvHmzFXuCuiFw7bXXyrx586RevXpuJEQWCCCAQIgC55xzjvzqV78KcUWWck0g7T/LubYfac3HgYu3z1FKfRmpP4sjELEADayIgVk+P4EgCMxj1Lx9ML+Fcjz7o48+koULF+Z4th+n7du3T5YsWeJHMVSRs0DHjh1L/1to1KhRzmtwIgIIIOCigAO/VLrI4k1OL774orzxxhuJqYdE/RQwTfIOHTrYLm6E7QSIj0C+AqY5kO8anI9AlALmwu3mAu5Rxih37aKiItFNtHLvT8sdvI0wLTtdcZ3nn3++mMfC0UcfXfGB3IsAAgjYE8gq8rHHHivmbT1ZncTBiRLg1VeJ2i5vk3XgbcpvK6WWeQtMYakRoIGVmq1ObKHWLkph3jY3ZcqUxMKFmTgXcg9TM9lrnX322bJ06VIxv/QluxKyL1+AexBIj4C5oLLlTwRLD7aFSletWiXmOo4WQhMSgYMCJ5xwgnTp0uXg95a+KLAUl7AIhCpAAytUThYLUyAIgtZ6vSv0tDImTZokW7ZssRLbtaAffvihrF692rW03M3H88xat24ty5YtE/MDmeelUh4CCHgsYBpXpoHlcYmpL23kyJGyd+/e1DsAYFdg4MCBUr16dZtJrNPBH9aTgUDiBWhgJX4L/Szgn1UN1X8rPWMfJSUlUlxcHHtclwPyKiyXdyf+3Fq1aiXmuiKnnHJK/MGJiAACCIQgYN46eMwxx4SwEku4KLBjxw4ZP368i6mRU4oEateuLf369bNd8Til1A7bSRAfgYoEMr2PBlamUhwXq0AQBI11wF56WhlPRf8xlQAAEABJREFUP/20fPLJJ1ZiuxqUBparO2MvrxNPPLH0lVht2rSxlwSREUAAgRwFHLgmTY6Zc1omAlOnTpX169dncijHIBCZQI8ePaRJkyaRrX/IwuV9aV6COKq8O7kdgaQJ0MBK2o6lJ9/eutS6eloZXPDzp+zm4t26sfjTO7gl1QLNmzeX559/Xs4888xUO1A8AggkS+DCCy8Uc02/ZGVNttkIFBYWZnO4iHA4AuEKKKXEgUb5Y0oprgMS7taymkUBGlgW8QldtoBuklTV9wzW08ow13syzRorwR0O+s0338gHH3zgcIakZkugadOmpU2sc88911YKxEUAARcEEpTDsGHDEpQtqWYrYH6Oe++997I9jeMRCFXgsssuk7Zt24a6Zg6LcfH2HNA4xV0BGlju7k2aM7teF99CTyvDPGOnm2hWYrselLcRur5D9vJr1KiRLFq0SDp27GgvCQ8iUwICCEQvYD6AwoFPBIu+0BRHMD/Lpbh8SndEwIFG+WtKqb87wkEaCIQiQAMrFEYWCVlgeMjrZbzcpk2bxFwzIeMTUnageUbT8ZJJz6JA/fr1Ze7cudKpUyeLWRAaAQQQqFhg0KBBUq1atYoP4t7ECnz66acyb968xOZP4n4ImA+56dy5s+1iePWV7R0gfugCNLBCJ036gnbzD4Kgvc7gEj2tjIkTJ8rWrVutxE5C0KVLl8ru3buTkCo5WhKoU6eOzJkzR3h1g6UNICwCCFQoYD4RrG/fvhUew53JFigqKpJ9+/YluwiyT7zA0KFDpUoVq79qr9WIs/RkIFCJQLLutvpfVbKoyDYmgaExxflJmJKSEikuLv7J7dzwo8APP/wgL7744o838BUCZQjUqFFDZs2aJeaTd8q4m5sQQAABawLm3yXLnwhmrfY0BN6yZYuYJyPTUCs1OiRwRCrmFel33nnnEbfG/u0YpdSu2KMSEIGIBWhgRQzM8pkLBEFwtD66h55Whnnr02effWYldpKCPv3000lKl1wtCZi35zz44IPSp08fSxkQFgEEEDhcQP8y58Ingh2eFN+VCoT1x5QpU8Q82RbWeqyDQC4CpnnVoEGDXE4N6xzzdolRYS3GOgi4JEADy6XdIJd+mqCWnlZGQQFvE88EngZWJkocYwTMS+fHjh3LL4wGg4lAtAKsnoGAI58IlkGmHJKLgHklPRdvz0WOc8IUMD/7DBkyJMwlc1nrEd2w/zaXEzkHAdcFaGC5vkMpyS8IAnM11UG2yn3//fdl8eLFtsInKu6HH34on3/+eaJyJll7AvoHKHnggQfkd7/7nb0kMorMQQgg4LuAA58I5jux1fqeeeYZ+fjjj63mQHAErrnmGmnVqpVtCJ6Vt70DxI9MgAZWZLQsnKXATfr44/S0MswzdrqJZiV2EoOW+SqsJBZCzrEJ/PnPfxYzYwtIIAQQQOAQgZNPPlmuu+66Q27hS98ERowY4VtJ1JNAgbvvvtt21i/rJw9fsZ0E8RGISoAGVlSyOayb8lOG2ap/48aN8tBDD9kKn8i4NLASuW3WkzavwjKvxtI/WFnPhQQQQCBdAuYTwapWrZquolNUrXl1+KJFi1JUMaW6KNCmTRu5/PLLbadWaDsB4mcuwJHZC9DAyt6MM0IWCILgHL3k+XpaGebTarZt22YldlKDPv/887Jjx46kpk/eFgWGDx8uo0aNEnONCItpEBoBBFIk4MgngqVIPP5SeSV9/OaORHQqDdMot/wk3RoN8pieDAS8FaCB5e3WJqowa6++2rdvnxQVFSUKy4VkTfPKNLFcyIUckifQv39/MZ8UZT6pMHnZkzECCCRN4Pbbb5eGDRsmLe2Y8k1+GPNK+qlTpya/ECpItMBRRx0lvXr1sl3DKN1AM59AaDsP4iMQmQANrMhoWTgTgSAIjtXHddPTynjqqafkiy++sBI76UF5G2HSd9Bu/j179pSZM2dKzZo17SZCdATyFeB8pwXMqz3NqyKcTpLk8hKYMGGCbN26Na81OBmBfAX69OkjderUyXeZfM7fpU8eqycDAa8FaGB5vb2JKG6AztLab7AFBXxIh/bPadDAyomNkw4R6Nq1qzz++ONSu3btQ27lSwQQQCA8gU6dOslpp50W3oKs5JSAeSV9cXGxUzmRTPoEzCvKBw8ebLvwh5VS39lOgvgIRC1AAytqYdYvVyAIAtO46l/uARHf8e6778qSJUsijhLL8laCfP7552IummolOEG9Ebj22mvFNEPr1avnTU0UggAC7ggMG2btKgXuIHicyZNPPskr6T3e36SU1qVLFznxxBNtp8vF223vAPFjEaCBVcrMH5YEzFsHzVsIrYTngp/5s5vGQ/6rsELaBS699FJZuHChNG7cOO0U1I8AAiEKnH766XLVVVeFuCJLuSYwYsQI11IinxQKmA+osVz2C0qpNyznkLDwpJtUARpYSd05P/K29rTohg0bZNq0aX4oWqziscf4oBOL/F6FPv/88+XZZ5+Vo48+2qu6KAYBBOwJmFdf6V/q7CVA5EgF3n77bVm6dGmkMVi8AgHuKhU4++yz5YILLij92uIfvPrKIj6h4xWggRWvN9H+KRAEgfmX/px/fhv7X+PHj5ft27fHHte3gC+//LIsX77ct7Kox5LAWWedVfrLSLNmzSxlQFgEEPBFoFGjRnLbbbc5XQ7J5SfAq6/y8+PscAQcePXVKl3JbD0ZCKRCgAZWKrbZySKH2srKXPBz5MiRtsJ7F/dvf/ubdzVRkD2B1q1by7Jly+Skk06ylwSRkyJAngiUK9C7d2+pW7duufdzR7IF1q1bJw8//HCyiyD7xAsce+yx0q2buSKK1VJGKqX2Ws2A4AjEKEADK0ZsQu0XCILgeP1VVz2tjDlz5siXX35pJbaPQc2nyH3xxRc+lpaCmtws8dRTTy1tYrVq1crNBMkKAQScFqhatao48IlgThslPblx48bJzp07k14G+SdcYMCAAVKzpvlMKmuF7NCRx+vJQCA1AjSwUrPVThU6UGdTXU8ro6CgILy4rCTmFW0PPPAAEgiEKmA+zWfJkiXSpk2bUNdlMQQQ8F/g+uuvl5YtW/pfaEor3LNnjxQXF6e0esp2RcA0rkwDy3I+05RS6y3nQHgEYhWw3sCKtVqCWRcIgqCWTqKfnlbGO++8U/rKDivBPQ46ceJE2bx5s8cVUpoNgebNm8vzzz8vv/jFL2yEJyYCCCRUwIFr0iRULhlpP/roo7JmzZpkJEuW3gqYtw4ec8wxtutL5LPyttGIn2wBGljJ3r8kZt9DJ23tY8YKCwtFN9F0CowwBbZs2SJjx44Nc0nWQqBUoGnTprJ48WI577zzSr/nDwQQQKAigfbt28sll1xS0SHcl3ABXkkvCd9BP9J3oFG+WCn1rh+aVIFA5gI0sDK34shwBKxdvH39+vUyffr0cKpglZ8ImOageVn/T+7gBgTyFDCfJrZo0SLp2LFjnitxOgII+C4wdGgmP2b4ruBvfa+88oosX77c3wKpLBECF154oZx99tm2cy20nQDxEbAhQAPLhnpKYwZBYH77bG+rfHPBz+3bt9sK733cr776SmbNmuV9nRRoR6BevXoyd+5c6dSpk50EiHq4AN8h4KCAecVmjx7mhd4OJkdKoQiMGDEilHVYBIF8BIYNG5bP6WGc+7le5Ck9GQikToAGVuq23GrB1p4W3bt3r4wcOdJq8WkIfv/996ehzFBqZJHsBerUqSNz5syRLl26ZH8yZyCAgPcCffv2lVq1zKU2vS81lQWa616Z61+lsniKdkbAfMiMAz+HFCul9jmDQiIIxChAAytG7DSHCoKgha7/ej3DGlmt88QTT4h5hVBWJ3Fw1gKvv/66mE+Oy/pETkAgQ4EaNWqUvtKvZ8+eGZ7BYQggkAaB6tWry6BBg9JQamprHD16tOzevTu19VO4GwLm35lq1arZTGabDj5BTwYCaRMorZcGVikDf8QgMFjHqKqnlcEFP+Njv+++++ILRqRUCpgfHKdMmSJ9+vRJZf0UjQACPxW48cYb5bjjjvvpHdzihcCuXbtkzJgxXtRCEckVMK8EN6/0tFzBg0qpTbnlwFkIJF+ABlby99D5CoIgqKuT7K2nlfHWW2/JCy+8YCV2GoM+/fTT8s4776SxdGqOUaBKlSqln3zpwKcAxVg1oRBAoDwB/i0oT8aP2x9++GH57rvv7BdDBqkWMK/+Puqoo2waBDp4oZ4MBFIrQAMrtVsfa+G9dLTGeloZvPoqXvaSkhK54447hE8kjNc9jdH0M5DywAMPyO9+97s0lk/NCCRSIIqkO3ToIOedd14US7OmIwL8LOfIRqQ4DfMzhwMXb1+k8/gwxdtA6QgIDSweBJEKBEGgdABrH9Wxbt06Mc/a6RwYMQq8+eab8uc//znGiIRKs4B5rN17771pIaBOBBA4QsCBXyqPyIhvwxRYtmyZmJ8rwlyTtRDIVuCKK66QNm3aZHta2McXhL0g6yGQNAEaWEnbseTle6VO+Qw9rYxx48bJzp07rcROe1DTUDAXdXfPgYx8FLjnnntKX42ln5n0sTxqQgCBcgSaNWsm3bp1K+debvZBgFdf+bCLya/BgUb5J1pxvp4MBFItQAMr1dufY/HZnWbt1Vd79+6VUaNGZZctR4cmYN5CePvtt9NADE2UhSoTMNfAGTt2rJjrY1V2LPcjgIAfAgMGDBDz6aR+VEMVRwp8+eWXMmfOnCNv5nsEYhVo1aqVXHvttWL5f0X6SboSyzkQPq0CDtVNA8uhzfAtlSAIWumartHTynj88cdl9erVVmITdL/A+++/L3/4wx/2f8OfCMQgYD6Z8KGHHpLq1avHEI0QCCBgU6BmzZpiGlg2cyB2tAIjR44U84RktFFYHYGKBYYMGZL3k2MVR6j03i36iEl6MhBIvQANrNQ/BCIFGKJXt/YY4yXnWt+B8be//U1efPFFBzIhhbQIdO/eXWbOnCnml9u01EydCKRR4JZbbpGf/exnaSw9FTVv375dzKUg/lksfyFgRaBBgwZy5513Wol9SNDJSqkfDvmeLxFIrYC15kJqxVNSeBAEDXSpd+hpZbzxxhvy0ksvWYlN0MMF9u3bV/p//Nu2bTv8Dr5DIEKBLl26iHkVZu3atSOMwtIIJEnAv1wduCaNf6gOVTR16lTZuHGjQxmRShoF7tTNq/r169ss3bxtsMhmAsRGwCUBGlgu7YZfuZjmlWliWamKV19ZYS836CeffCK//e1vy72fOxCIQsBcr+Lpp5+WevXqhbM8qyCAgDMCF110kZx11lnO5EMi4QroJ0KlsLAw3EVZDYEsBcw1NYcOHZrlWaEf/oxS6uPQV2VBBBIqQAMroRvnctr6hw7zuDJvH7SS5nfffSczZsywEpug5QuYC+ovWrSo/AO4B4EIBC699FIxj7vGjRtHsDpLIoCALQFefWVLPp64zz77rJjraMYTjSgIlC1w3XXXySmnnFL2nTaoNUYAABAASURBVPHdWhBfKCIh4L6AaTS4nyUZHhBIyt/mwu3mAu5W8jWfQrZr1y4rsQlavoBubIq5wPamTZvKP4h7EIhA4LzzzhPzy1DTpk0jWJ0lEUAgboGTTjpJfv3rX8cdlngxCvBK+hixCVWugPl043LvjOeOFTrMQj0Z6RWg8iMEaGAdAcK3oQgMD2WVHBbZs2ePmFf65HAqp8QgsGrVKhk8eHAMkQiBwOEC5q1GS5YskWbNmh1+B98hgEDiBAYOHCjVqlVLXN4knJmAueyAeft3ZkdzFAKVCeR2f9u2beWyyy7L7eTwzipSSgXhLcdKCCRfgAZW8vfQqQqCIGitE7pCTyvjsccekzVr1liJTdDMBKZPny4PPvhgZgdzFAIhCrRu3VqWLVsmLVq0CHFVlkIAgTgF6tSpI3379o0zJLFiFigqKpKSEnPd6pgDEw6BQwTM25R18+iQW2L/0rxlYUrsUQmIgOMCNLAc36AEpmeudKhs5c1Lzm3JZxd3yJAhYp5hze4sjkYgf4FTTz1Vli5dKq1aWXuXc/5FsELiBEg4PIGePXvKUUcdFd6CrOSUwA8//CCTJk1yKieSSZ9AkyZNpEePHrYLn6gbaFttJ0F8BFwTqOJaQuSTXIEgCMxVknvZquDVV1+Vl19+2VZ44mYhsGXLFrnllltk9+7dWZzFoSkWCLX0E088sbSJ1aZNm1DXZTEEEIhWQP8yJ+ZVEdFGYXWbApMnTxbTxLKZA7ER6Nevn5hXe1qUMC9BLLYYn9AIOCtAA8vZrUlkYr111nX1tDL4uOWK2N277/XXX5ff//737iVGRqkQMNfCMq/EMtfGSkXBFImABwKXX3650Hj2YCPLKcG8bdC8fbCcu7kZgVgEzPX1Bg0aFEusCoLM1Q37zyq4n7sQSK0ADaxMt57jKhQIgqCqPmCwnlbGt99+K7NmzbISm6C5C9x3332ycCEfrpK7IGfmI2DeIvDcc8/Jr371q3yW4VwEEIhJgFdfxQRtKYy5cPvKlSstRScsAvsFunbtKscff/z+b+z9OcJeaCIfFOALJwVoYDm5LYlM6nqdtbUrI48dO1Z27dqlU2AkScA823rHHXfId999l6S0ydUjgUaNGsmCBQukY8eOHlVFKQj4J2CuX3fdddf5VxgVHRQYMYLf2Q9iePJFEssYPny47bTf0wk8rycDAQTKEKCBVQYKN+UkYO1f+z179sjo0aNzSpqT7At88803ctddd0kQ8CnB9ncjnRnUq1dPzDP/1157bToBqBqBBAiYD/+oUiV1P7YmYGfCSfGDDz4Q84rYcFZjFQRyE+jQoYMLr8ouUErxQ3FuW8hZKRDgJ4EUbHLUJerGQzsd4xI9rYxHHnlETBPESnCChiIwb9484RMkQ6FkkRwFatWqJbNnz5YuXbrkuAKnuSlAVj4I1K9fX+68804fSqGGcgTMzwD658ly7uVmBOIRcOBtyht0pdP0ZCCAQDkCNLDKgeHmrASGZXV0yAfzkvOQQS0t99//+3+Xt956y1J0wpYrkKI7atSoUXotvZ49e6aoakpFwH0B07xq0KCB+4mSYU4CGzZskKlTp+Z0LichEJaA+XCXbt26hbVcruuMV0ptz/VkzkMgDQI0sNKwyxHWqJ8tO1ov30NPK+Mf//iHvPLKK1ZiZxqU4zITMNcw6969u2zbti2zEzgKgQgEzKcPTZkyRfr27RvB6iyJAALZCpi3DZq3D2Z7HscnR2D8+PGyfTu/sydnx/zMdMCAAWKeyLJY3T4de6SeDAQQqEAgCQ2sCtLnLgcE+ukcaulpZRQWFlqJS9BoBFasWCF33313NIuzKgIZCphfmMeMGSMOXMg1w4w5DAF/Ba655hpp1aqVvwWmvLJ9+/bJyJH8zp7yh4H18mvWrCmmgWU5kTlKqS8t5+BKePJAoFwBGljl0nBHZQJBEFTTxwzU08ow170y17+yEpygkQmYZ2InTZoU2fosjEAmAkopeeCBB+R3v/tdJodzDAIIRCRAIzkiWEeWfeKJJ+TLL/mdPfztYMVsBG655Rb52c9+ls0pURw7IopFWRMB3wRoYPm2o/HWc6MOd7yeVob55MHdu3dbiU3QaAX69esnTz31VLRBWB2BDAT+/Oc/y7333pvBkRyCAAJhC7Ru3VquuOKKsJfNbD2OikWA65jGwkyQSgQcuHj7W0qpZZWkyd0IIKAFaGBpBEbOAsNzPjPPE03jyrzFJ89lON1Rgb1798rNN98sL730kqMZklaaBO65557SV2PpHy7TVHbetbIAAvkKDB06VPjvLl9Fd89/88035YUXXnA3QTJLhcDFF18sZ511lu1aC2wnQHwEkiJAAyspO+VYnkEQnKNTOl9PK2PWrFmydu1aK7EJGo/Ajh075F//9V/lvffeiyege1HIyCEB8zamcePGibk+lkNpkQoC3go0btxYevXq5W19FCZSUMDv7DwO7As48OqrdVrhYT0ZCCCQgQANrAyQOKRMgWFl3hrTjZn90BNTMoSJTGDjxo3SqVMnWbVqVWQxWBiBTAV69+4tDz30kFSvXj3TUzgOAQRyFOjTp4/UrVs3x7M5zXWB7777TmbMmOF6muTnucBJJ50kN9xwg+0qxymldtpOgvgIJEWg4gZWUqogz1gFgiA4VgfspqeV8fLLL8urr75qJTZB4xf4+uuv5eqrr5Z168wTVPHHJyIChwp0795dZs6cKeYTiw69na8RQCA8gapVq8rgwYPDW5CVnBMwl4HYuZPf2Z3bmJQlZP6dqVbNfCaVtcL36shufQynToiBgMsCNLBc3h13cxugU6upp5VRWFhoJS5B7QmsWLFCOnfuLFu3brWXBJER+KdAly5dZM6cOVK7du1/3sJfCCAQpoB5RYR5ZUSYa7KWOwJ79uwR80E87mQUbiaslgwB8wpP80pPy9k+qpT62nIOhEcgUQI0sBK1XfaTDYKghs6iv55Wxpo1a+Sxxx6zEpugdgVeeeUV6dq1q5gL+NvNhOgISOmrAufPny/169eHAwEEwhUQc825kJdkOYcEHnnkETE/zzmUEqmkUMBcY89ca89y6VwIzvIGED55AjSwkrdntjO+WSdg3kKo/4p/mGfsaGDE7+5KxEWLFsntt98uJSUlrqREHikWuOSSS2ThwoXiwA/AR+wC3yKQXIEzzzxTzKeCJbcCMq9MYMSIEZUdwv0IRCqglBIHLt7+mlLq5UgLZXEEPBSggeXhpkZc0tCI1y93+V27dom5ZkK5B3BHKgTMRV//7d/+LdpaWR2BDAXOO+88ef7556Vp06YZnsFhCCBQkYADv1RWlB735SmwfPlyMa+oznMZTkcgL4GrrrpKzjjjjLzWCOFkXn0VAiJLpE+ABlb69jznioMguECf3EHPSkcUB5jGhfnUmijWZs1kCRQUFMhf/vKXZCVNtt4KtG/fXpYuXSrNmjXztkYKQyAOgZ/97GdiPighjljEsCNg/v/bTmSiIvCjgAON8m91NrP0ZCDgjUBchdDAikvajzjWXn1l+Lh4u1FgHhD4/e9/L+PHjz/wLX8jYFXAPJO7bNkyadGihdU8CI5AkgX69u0rtWrVSnIJ5F6BgLnuFdcxrQCIu2IROO2006RTp06xxKogyBil1K4j7udbBBDIQKBKBsdwCAISBMHxmqGrnlbGSy+9JK+//rqV2AR1U0A/JmXgwIHyxBNPuJkgWaVO4NRTTy19JZb54Th1xVMwAnkKVK9eXQYNGpTnKpzussDIkSMj/iAWl6snN1cEhg4dKlWqWP0VeLe2GK0nAwEEchCw+l9vDvlyij2BgTp0dT2tDF59ZYXd+aB79+6VW2+9VcwrX5xPlgRTIXDiiSfKkiVLpE2bNqmolyI9E7BYzk033STNmze3mAGhoxTYuXOnjB07NsoQrI1ApQINGzYU82FAlR4Y7QGzlFLfRhuC1RHwV4AGlr97G1plQRCY1/P3C23BLBdavXq1PP7441mexeFpEdixY4fccMMN8s4776SlZOp0WMCkZq6FZa6JddZZZ5lvmQggkIHA8OHDMziKQ5Iq8PDDD8u6deuSmj55eyJw1113Sf369W1Xw8Xbbe8A8RMtQAMr0dsXW/I9dKSj9bQyRo8eLXv27LESm6CxC+QUcNOmTXLNNdfIl19+mdP5nIRA2AJNmjSRxYsXy69+9auwl2Y9BLwTOPfcc8VM7wqjoIMCXLz9IAVfWBKoWrWqDBkyxFL0g2FfVkq9evA7vkAAgawFaGBlTeb6CZHkZ+3i7bzkPJL99HJRc3HYK6+8kmd4vdzdZBZl3qqwYMECueyyy5JZAFkjEJOAA58IFlOl6QxjXpH61ltvpbN4qnZGoHPnznLyySfbzqfQdgLE91EgXTXRwErXfmddbRAEl+qT2utpZcyYMYOGhBX5ZAZduXKlXHvttbJ169ZkFkDW3gnUq1dP5s2bV/q49K44CkIgBAFz3Stz/asQlmIJRwV49ZWjG5OytCp8m3I8Fl/rMI/pyUAAgTwEaGDlgZeSU629+sr48kOPUWBmI/Daa69J165d+aSjbNA4NlKBWrVqyezZs4Vf0iNlZvGECgwYMEBq1KiR0OxJ+4BAeX9/8cUX8uSTT5Z3N7cjEItAu3btpGPHjrHEqiDIKKWU+QTCCg7hLgQQqEyABlZlQim+PwiCFrr8G/S0Ml544QV58803rcQmaLIFFi1aJOal4tu2bUt2IWTvjYD5Bd1cxLhXr17e1EQhoQqkcjHT3DUNrFQWn5Kii4uLZe/evSmpljJdFXDgbco7tQ0fw6kRGAjkK0ADK19Bv88frMurqqeVUVjI28StwHsS1DSxrr76atm8ebMnFVFGxQLu31utWjWZPHmy9O/f3/1kyRCBGARuueUWadq0aQyRCGFDwDyJNGHCBBuhiYnAQYGjjz5abr311oPfW/pihlJqnaXYhEXAKwEaWF5tZ3jFBEFQV6/WW08r46uvvpInnnjCSuzUBvWw8Jdeeqn0Atrr1vEzg4fbm8iSqlSpIqNGjZL/7//7/xKZP0kjEKaAA6+KCLMc1jpCYOrUqbJx48YjbuVbBOIV6Nevn9SuXTveoD+NVvDTm7gFAQRyEaCBlYtaOed4drN5n0tjWzWZX/D27NljKzxxPRJ444035JJLLpHVq1d7VBWlJFlAPwsr9913n/z+979PchnkjkBeAubf5V/84hd5rcHJ7groJ0KF65i6uz9pyax69eoyaNAg2+Uu0/+/zzVRbO9CRPFZNn4BGljxmzsfUf/QoXSS1i7evmPHDhk3bpxOgYFAOAIffvihXHTRRfLZZ5+FsyCrIBCCwH/913/JvffeK/oH2xBWYwkEkiXAq6+StV/ZZrtw4UIx/9+b7XkcnzqBSAu+8cYb5bjjjos0RgaLF2ZwDIcggECGAjSwMoRK2WFX6npb62llTJ8+Xb7//nsrsQnqr4D5JCTTxHr//ff9LZLKEidwzz33yAMiJRUkAAAQAElEQVQPPEATK3E7R8L5CJx00klyww3WPiMmn9QdPNfNlLiOqZv7krashg8fbrvkVToBromiERgIhCVAAyssSb/WGWazHH7osanvd+w1a9aIedvKa6+95nehVJcoAfNKFPOqU3N9rEQl7kuy1BG7wODBg6VqVWufERN7vWkLuHLlSpk/f37ayqZexwR++ctfynnnnWc7q5FKKT6G0/YuEN8rARpYXm1n/sUEQdBKr3KNnlbG0qVL5e2337YSm6DpEFi/fr1cfvnl8sILL6Sj4BiqJET+Ar1795aHHnpIzPU68l+NFRBwV6Bu3brSp08fdxMks7wFzBORJSUlea/DAgjkI+DAq6926PzH68lAAIEQBWhghYjpyVJDdB3WHhfmhx4dP22DemMW+OGHH6RTp07yzDPPxByZcAiUL9C9e3eZOXOm1KxZs/yDuAeBhAv06tVLGje29hkxCddzP/3NmzfL5MmT3U+UDL0WaN68udx00022a5ymlFpvOwniI+CbgLVGRbiQrBaGQBAEDfQ6d+hpZXz55ZcyZ84cK7EJmj6B7du3l16D5dFHH01f8VTsrECXLl1K/x2sXbu2szmSGAK5Cuhf5mToUGufEZNr2pyXhcCkSZNky5YtWZzBoQiELzBw4ECpUaNG+Atnt+KI7A7n6OwEODqtAjSw0rrzZddtmlemiVX2vRHfOmrUKNm7l7eJR8zM8ocI7N69W2655RaeLT7EhC/tC1x99dWlrw5s0MDaP8f2EcjAS4Err7xSWrdu7WVtFCVi3jZYVFQERVIEPM2zVq1a0r9/f9vVLdYN+/dsJ0F8BHwUoIHl467mUFMQBOaxYN4+mMPZ+Z+yY8cOGT+et4nnL8kK2Qrs27dPzPWH+KE7WzmOj1Lg4osvlgULFvBWqyiRWTt2AfOBBbEHjTAgSx8uMG/ePPn0008Pv5HvEIhZwLwdv2nTpjFH/Um4gp/cwg0IIBCKgGlahLIQiyRewFy43VzA3Uoh06ZNE3NxbSvBCZp6AfOssXlby5/+9KfUWwDgjsB5550nzz//vDjwg3hUKKybIoFWrVrJNdeYHzVSVHTKSh0xgndMpWzLnSzXgYu3f6Zh5urJQACBCARoYEWAmtAlh9vMu6CAJyps+hN7v8Af//hHueeee/Z/k4g/SdJ3gfbt28vSpUvluOOO871U6vNcYMiQIVKlCj92+rrN77//vixevNjX8qgrIQKXXnqpmP/ftJzuSKXUPss5EB4BbwX4ScLbrc28sCAIzAUprsj8jHCPNK8wePfdd8NdNNPVOA6BIwT++te/irn4p3lV1hF38S0CVgTOOOOM0ibWySefbCU+QRHIV8Bcz+3OO+/MdxnOd1jAvPpK/zzpcIaklgYBB96mvE07T9CTgQACEQnk3cCKKC+WjVdgqA6n9LQyCgsLrcQlKALlCYwePVp69eole/bsKe8QbkcgVoFTTjml9O2Ep512WqxxCYZAGAKmeVW/fv0wlmINBwU2bNgg5lIQDqZGSikSaNGihVx//fW2K56ilNpkO4mo47M+AjYFaGDZ1Hcgtn62rLFOo5eeVsYXX3whTz75pJXYBEWgIoHp06fLTTfdJLt27aroMO5DIDaBE088UZYtWyZt27aNLSaBEMhXwLxt0Lx9MN91ON9dgXHjxsn27dvdTdC9zMgoAgHz70zVqlUjWDnjJQN9ZJGeDAQQiFCABlaEuAlZ+i6dZ109rYzi4mIxnwJnJThBEahEwDRXO3fuLNu2mVeEV3IwdyMQg8AxxxwjS5YskbPOOiuGaIRAIH+B6667Tk499dT8FzpsBb5xRWDv3r0ycuRIV9Ihj5QK1K1bV3r37m27+oVKqQ9tJ0F8BHwXoIHl+w5XUF8QBOZpiiEVHBLpXebZugkTeJt4pMgsnrfAs88+K1deeaVs3Lgx77VYAIEwBJo0aVJ6seQLLrgg9+U4E4GYBBy4Jk1MlaYzzOzZs2XVqlXpLJ6qnRG44447pFGjRrbz4ZootneA+KkQoIGVim0ut0jzRvEW5d4b8R1Tp06lKRCxMcuHI/Dyyy9Lx44dZd26dQcX5AsEbAo0bNhQnnnmGbnssstspkFsBCoUaNOmjVx++eUVHsOdyRYoKChIdgFkn3gBpZSYtw9aLmSljj9fTwYCCEQsQAMrYmDHlx9uK78gCISLt9vSJ24uAm+//bZcfPHFsnr16lxO5xwEQheoV6+ezJs3T6699trQ12ZBBMIQGDp0qCilwliKNRwUeOONN+TFF190MDNSSpNAp06d5PTTT7ddcpFSqsR2EsRHwHGBUNKjgRUKY/IWCYKgnc76Ej2tjOeee07ef/99K7EJikCuAitWrBDztq2VK80TbbmuwnkIhCdQq1YtMW/hMR84EN6qrIRA/gJHHXVU6ae55r8SK7gqMGLECFdTI68UCTjwNuUfNPdkPWMYhEAAARpY6X0MDLNZelERH9Jh05/YuQuYa31ceumlNGBzJ+TMkAVq1KghDz/8MM2CkF1ZLj+BPn36SJ06dfJbhLOdFVi7dq3MnDnT2fzKTYw7vBIwr7y6+uqrbdc0WSllmli28yA+AqkQoIGVim0+vMggCI7Wt9yqp5Xx2Wefydy5c63EJigCYQisWbNGLrnkEnn11VfDWI41EMhboFq1ajJ58mTp379/3muxAAIVCWRyX9WqVWXw4MGZHMoxCRUYM2aM7Nq1K6HZk7YvAg68Tdm8bZBn5X15QFFHIgRoYCVim0JPsp9esbaeVkZxcbHs27fPSmyCIhCWwPr160svTrxkyZKwlmSddAhEVmWVKlVk1KhR8t/+23+LLAYLI5CJQJcuXeTEE0/M5FCOSaDA7t27S/+tSWDqpOyRgPnUwdtuu812RfOVUlxXwvYuED9VAjSwUrXdIkEQVNMlD9TTyti2bZtMnDjRSmyC+iLgTh1btmyR6667TubP54Nn3NmVdGeif5CW//f//p/84Q9/SDcE1VsVcOCaNFbr9z34rFmz5Ntvv/W9TOpzXKB3795iPszEcpp8DKflDSB8+gRoYKVvz7uKyPG2yn7wwQdl06ZNtsITF4HQBbZv3y6//vWv5ZFHHgl9bRZEIFeB//k//6fce++9fAJcroCcl7PAL37xC7noootyPp8T3RcoKOB3dvd3ye8MzduUhwwZYrvIFTqBRXoyEHBfwKMMaWB5tJkZlnJ3hseFflgQBMLF20NnZUEHBMzbKbp37y4TJkxwIBtSQGC/wD333CPmF03zqqz9t/AnAtEL8Oqr6I1tRvj73//O9R9tbgCxSwWuv/56adGiRenXcf1RRpwC/f+vQRm3cxMCCEQoQAMrQlzXltYNpHN0TufraWUsWrRIPvjgAyuxCYpA1ALmum59+/aVESNGRB2K9RHIWMA8Q20aq+bZ6oxP4kAEchT42c9+JqaZn+PpnJYAAdMUzzFNTkMgNIHhw4eHtlaOC5m3k0zN8VxOQwCBPARoYOWBl8BTh9nMubCw0GZ4YiMQuYBuEsvdd98tf/rTnyKPRQAEMhW488475aGHHpLq1atnegrHOSngflL9+/eXmjVrup8oGeYksHr1ann88cdzOpeTEAhLoH379nLJJZeEtVyu60xUSm3N9WTOQwCB3AVoYOVul6gz9S/Wx+qEu+lpZXzyySfy9NNPW4lNUATiFvjjH/9Y+klw+r+7uEMTryKBFN93yy23iLnwMs2FFD8IIi69Ro0aMnCgtc+Iibg6ljcC5lNO9+zZY75kImBNwIFXX5Xo4ov1ZCCAgAUBGlgW0C2F7K/jWntatLi4WEpKzL/3OgtGYgVIPHOBv/3tb6W/zPG4z9yMI6MVMB828OSTT0rt2rWjDcTqqRT4zW9+I82aNUtl7WkoeufOnTJ27Ng0lEqNDgs0bdrUhbcpP6WU+sxhJlJDwGsBGljxbq+VaEEQ1NCBB+hpZWzdulUmTZpkJTZBEbApMGbMGOnZs6fwjLXNXSD2oQJXXXWVPPPMM9KgQYNDb+ZrBPIW4OLteRM6vcC0adPk+++/dzpHkvNfwLxNuVatWrYL5WM4be9AsuKTbcgCNLBCBnV0uZt1XuYthPqv+MeUKVNk8+bN8QcmIgIOCDz88MPStWtXMc9eO5AOKSAgF198sSxcuFAaN26MBgKhCJx//vnyy1/+MpS1WMRNAS7e7ua+pCOr/VWa6zg68Dbld3U2z+vJQAABSwI0sCzBxxx2aMzxDoYLgkCKiooOfs8XCKRRYO7cudK5c2cxr0ZMY/3U7J7AueeeK88//7yYt2O4lx0ZJU1g6FBrP2YkjcpOvnlGNf9WvPPOO3muwukI5Cdg3qbcvHnz/BbJ/+xCpVSQ/zKsgAACuQrQwMpVLiHn6QbSr3SqHfS0MhYsWCArVqywEpugCLgk8Nxzz8mVV14pGzdudCktckmxgPkkp6VLl8pxxx2XYoXMSueo8gXM4+emm24q/wDuSbxAYWFh4muggOQLOHDx9vVacZqeDAQQsChAA8sifkyhh8UUp8wwvPqqTBZuTKnA8uXL5dJLL5Vvv/02bQLU66jAGWecIaaJdfLJJzuaIWm5LmDe0mPe2uN6nuSXm8Dnn38u5sMfcjubsxAIR+C8885z4W3KE5RS28OpiFUQQCBXARpYucol4LwgCI7XaXbV08pYuXKlzJ8/30ps/4JSkS8C5m0Y5hpEX331lS8lUUfCBU455RRZsmSJnHbaaQmvhPTjFjAXUzYXVY47LvHiEyguLpZ9+/bFF5BICJQh4MCHRJj/CIrLSI2bEEAgZoH0NLBihnUk3ECdR3U9rQzz6quSkhIrsQmKgMsCprl74YUXivnb5TzJLT0CJ5xwgixbtkzatm2bnqKpNG+B7t27y9FHH533OizgpsC2bdtkwoQJbiZHVqkRcORtyrOVUqtSg+5LodThpQANLC+3VSQIglq6tH56WhlbtmyRyZMnW4lNUASSILBq1Sq56KKL5O23305CuuSYAoFjjjmm9JVYHTpYu2xiCpT9KtGBa9L4BepYNVOmTJFNmzY5lhXpxCngQqxBgwaJA29TLnDBghwQQECEBpa/j4IeujRrT4tOnjxZfvjhB50CAwEEyhNYu3atXHbZZfLKK6+Udwi3IxCrQJMmTWTRokVywQUXxBqXYMkTuPTSS8V8EEDyMo8148QG00+EChdvT+z2eZO4eZtyv37Wno8/4PimUuqFA9/wNwII2BWggWXXP8roQ6NcvKK1zQ895u2DFR3DfQggsF9gw4YNcsUVV4j5mPL9t/AnAnYFGjZsKOYTZC+//HK7iZRG5w9XBYYOtfZjhqskXuVl/g1YsWKFVzVRTPIEevTo4cLblPkYzuQ9dMjYYwEaWB5urm4gXarLaq+nlfHMM8/Ixx9/bCU2QRFIooB5y+21114rTz31VPjpsyICOQjUrVtX5s6dK506dcrhbE7xXaBFixZyww03+F5mqusrKOAdU6l+ADhSvAMXb1+nDsy9XQAAEABJREFUKR7Wk4EAAo4I0MByZCNCTsPq06K+/dAT8t6wHAJlCuzcuVNuuukmmTVrVpn3cyMCcQuYt27MnDlTzKcUxh2beG4LDB48WKpWrep2kmSXs8BHH31U+irMnBfgRARCEOjYsaO0a9cuhJXyWmKsUmpnXitwMgIIhCoQRwMr1IRZrGKBIAha6COsPS1qfuhZuHChToGBAALZCuzevVtuvfVWGT9+fLancjwCkQg0aNBAHn30UTHNrEgCsGjiBMyr8/r06ZO4vEk4cwFz7Ss+RTpzL46MRsCBD4nYoysbpScjewHOQCAyARpYkdFaW3iwjmztaVFz7St+6NE7wEAgR4F9+/aJuWDpfffdl+MKnIZAuAJnnnmmPPDAA+EuymqJFbjtttukUaNGic2fxCsW2Lx5szz44IMVH8S9MQikO8TJJ58snTt3to3wmFLqa9tJEB8BBA4XoIF1uEeivwuCoK4uoLeeVob5oWfKlClWYhMUAZ8E9H/L8u///u/yxz/+0aeyqCXBAv379xdzMd0El0DqIQjoX+YkMRdvD6HeNC4xceJEMddlTGPt1OyOgCNvU+ZCcO48JMgEgYMCNLAOUnjxRS9dRWM9rYzJkyfzQ48VeYL6KvCnP/1J/u3f/k1MQ8vXGqnLXYEjMxszZoycccYZR97M9ykSuOqqq3gMeLzf5hX05pX0HpdIaQkQqFevnvTube35+ANCr+qG/csHvuFvBBBwR4AGljt7kVcm+hdcpRewdvF280NPcXGxToGBAAL/FAjlL/PWLXO9GfPWwlAWZBEEchQw1z565JFHxPyd4xKclnABBz4RLOGCbqdvPnn0s88+cztJsvNe4I477pCGDRvarpNXX9neAeIjUI4ADaxyYBJ485U659Z6Whnz58+XlStXhhyb5RBAwAiYt3T07NlT9uwx1xM1tzARsCPQpk0bGT16tJ3gRLUqcNppp0mnTp2s5kDwaAXMEybRRmB1BCoWqFKligtvU/5WZ/mIngwEEIhdoPKAVSo/hCMSIjDMZp4FBTxRYdOf2P4LzJgxQ7p06SI7duzwv1gqdFrANFMdeHuH00Y+JmeufWV+ufSxNmoSeffdd2XJkiVQIGBVwDTJTbPcahIio5VSuyznkHt4zkTAcwEaWB5scBAErXQZ1+hpZaxYsUIWLVpkJTZBEUiTwLx58+Saa67hWnNp2nRHay0sLJR27do5mh1phS1g3s5z++23h70s6zkkYJ6I1D9POpSRvVSIbE9g+PDh9oLvj7xb/zVGTwYCCDgqQAPL0Y3JMq0h+nhre2ku+MkPPXoHGAjEILB06VK58sorZcOGDTFEIwQCZQvUrl1bzPWwGjRoUPYB3OqVwJ133in169fPtCaOS5jA+vXrZfr06QnLmnR9EzAfEmJ+vrFc1yyllHkLoeU0CI/A/8/efcBbVV2JH9/HRxNERLBjr0SDsSaiYFeMKBENURFFEKRjJsYZZ0xz/macic4EHh0EEUU0RgKxECOxorFhiRob2AsKCkpv978WirR3+zlnl/PLZ2/ufffss/da3/MkvPVOQSCfgLWiR76A+Lw8ASkc6b8ou5e3V3yjFy5caCZOnBjfhMyEAAJFBZ566ilzwgknmE8+4d9YRbEYkJiAXuYxbty4xOZnYjcE9LLBAQP092RuxEMU8QuMGTPGLF26NP6JmRGBMgT0IRFSPCpjjyJDK9vMPVEqc2MvBFIToICVGnViC10qM1v7FfiECRPM4sWLJQQaAgikKaD3K2nXrp1555130lyWtRDYRODHP/6x6d+//yaf8UVYAh07djT77rtvWEmRzbcCq1evNiNGjPj2643f8B6BtASaN29uunXrltZy+dZ5Qgpoz+TbyOcIIOCGAAUsN45DRVHkcjk9ftZ+Lbp27VozfPjwimJnJwQQqF7grbfeMscff7x54403qp+MGRCoUOCGG24wejZWhbuHvFsQuelZEUEkQhJ1Ctx9993mgw8+qHMbHyKQlsBll11mmjRpktZy+dapzbeBzxFAwB0BLYC4Ew2RlCugN27XG7iXu18s4/WG0nPmzIllLiZBAIHKBN577z3Tvn178+KLL1Y2gdN7EZwPAo0aNTI33XST0UvNfIiXGEsXOOSQQ8xJJ51U+g6M9E5gyJAh3sVMwGEJ1NTUuHAm74ei+kfpNAQQcFyAApbjB6hIeFYf1aFPrCkSH5ttC7B+JgTmzZu37p5YTzzxRCbyJUn3BI477jhz+eWXuxcYEVUloGdfRVFU1Rzs7K7As88+a/j/DXePT1Yi69Spk9lzzz1tpzsyiqJVtoNgfQQQKC5AAauIkaubc7ncdyS2U6Rbaa+++qqZOXOmlbVZFAEEthRYuHChOf30083f/va3LTfyCQIpCFx//fVm9913T2EllkhDoEWLFqZr165pLMUalgT4RaQleJbdROCKK67Y5GsLXyyXNcdIpyGwToA/3BaggOX28SkU3UDZaO3XorW1tUaKaBICDQEEXBHQByqceeaZZvr06a6ERBwZEth2223NqFGjMpRx2KnqPWkaN24cdpIZzk6fYnvnnXdmWIDUExQoeerDDjvM6ANpSt4hmYG3R1H0WTJTMysCCMQtQAErbtEU5pPCUXNZxtqjOr744gtz6623Sgg0BBBwTWD58uXm3HPPNbfddptroRFPBgR++MMfctZOAMe5Xr16LtyTJgDJSlNIfj8tNq9YsSL5hVgBgQICeplygc1pbeLm7WlJsw4CMQhQwIoB0cIUPWRNa4/qGD9+vNEzPSQGGgIIOCiwevVqc8kll5ixY8c6GB0hhS7wf//3f2aHHXawmyarVyVwzjnncDloVYJu77xy5UrOlnT7EGUiup122slccMEFtnN9NIqi520HwfoIIFC6AAWs0q2cGJnL5WokkAHSrbS1a9ea4cOHW1mbRRFAoHSBNWvWrLup9g033FD6ThuN5C0ClQpo8er3v/99pbuznwMCgwdbfUaMAwJhh3DHHXcYffhH2FmSnesC+uCPhg0b2g5zqO0AWB8BBMoToIBVnpcLo8+WIPaSbqX9+c9/Nm+//baVtT1blHARsC4gBW/z85//3FxzzTXWYyGAbAlceOGFpmPHjtlKOpBsDz/8cHPssccGkg1p1CUwZMiQuj7mMwRSE2jQoIHp06dPauvlWehd+XyadBoCCHgk4HAByyPFdEO1+mtRnliT7sFmNQTiELjuuuuMPuVHC1pxzMccCJQiMGLECNOsWbNShjLGIQHOvnLoYCQQyqxZs8xzzz2XwMxMiUDpAl26dDG77LJL6TskM3JkFEWrk5maWSsTYC8EigtQwCpu5MwI+eGzjQRzvHQr7eWXXzYPPfSQlbVZFAEEqhPQ37j37NnT6KWF1c3E3giUJrD77rub66+/vrTBjHJCQO9J85Of/MSJWAgiGQF+EZmMqzOzehKIAzdvXyZU3ChUEGgI+CZAAcuvIzbIZrj6jx4potkMgbURQKAKgQkTJhj94VRv4FvFNOyKQMkCeo+T9u3blzyegXYF9Hg5cE8aqwghL/7++++bqVOnhpwiuXkg0LZtW3PUUUfZjvTWKIo+tx0E6yOAQPkCFLDKN7OyhxSOWsrCF0q30j7//HNz2223WVmbRRFAID6BP/7xj0afMLZsmf7yMb55mQmBbwQ2eZEfEMzYsWPN1ltvvcnnfOGegN6Tpm/fvu4FRkSxCehlvatWrYptPiZCoBIBRy5T5ubtlRw89kHAAQEKWA4chBJD6CXjrP0EcNNNN5mlS5dKCDQEEEhWIPnZ77vvPtOhQwfz5ZdfJr8YK2Re4IADDjC/+tWvMu/gOoDek2bnnXd2PUziq1BAf2mhxeQKd2c3BGIR0EvL9ZdosUxW+SQz5ZcrL1e+O3sigIBNAQpYNvVLXDuXy9WTof2kW2l6z5zhw4dbWbuiRdkJAQSKCjz66KPm5JNPNvPnzy86lgEIVCvws5/9zBx88MHVTsP+CQo4cE+aBLNjaj2LfsGCBUAgYFVAz/KsX7++1Rhk8VrpNAQQ8FSgzgKWp7mEHHZnSa6VdCtt2rRp5t1337WyNosigEByAs8++6w56aSTzMcff5zcIsyMgAjUq1fP/O53v5N3NBcFHLknjYs0wcSkD/IIJhkS8VJALyXv3bu37djnSgD3SKdtJsCXCPgiQAHLjyM12GaYevN2m+uzNgIIJCfwj3/8w+hNtufO1X/TJbcOMyNwxhlnmNNOOw0IBwU4+8rBgxJjSDNnzjT6JOkYp2SqLQX4pIhA165dTYsWLYqMSnzz8CiK1iS+CgsggEBiAhSwEqONZ+JcLnekzNRWupX20ksvGb3UyMriLIoAAqkIvPXWW+uKWK+//noq67FIdgX0LKyamprsAjiYeatWrUznzp0diIwQkhKoreWKqaRsmbc0ASkaGQdu3r5Eoh0vnYYAAh4LUMBy/+ANshmi/qNHimg2Q2BtBBBIQeDDDz9cV8R64YUXUliNJRIR8GDSNm3amO7du3sQaXZCdOSeNNkBTzlTPbv2nnu4YipldpbbTEBvV3DIIYds9mnqX06UQtrC1FdlQQQQiFWAAlasnPFOJoUjfRxQl3hnLX02vdnn5MmTS9+BkQh4LpD18D/99FNz4oknmlmzZmWdgvwTFPjP//xPs8022yS4AlOXKtCoUSPjwD1pSg2XcRUIDBs2zOjDeCrYlV0QiE3AgcuUc5IMpyIKAg0B3wUoYLl9BC+X8BpKt9LGjRtnli5dWs7ajEUAAc8FFi5caE4//XTzwAMPeJ4J4bsqsMsuu5if//znroaXqbj0njQtW7bMVM5ZSnbx4sVm/HiumMrSMXcx13333dd07NjRdmgPRFH0mu0gWB+BAAVST4kCVurkpS2Yy+UayMg+0q00/W3diBEjrKzNogggYFdgyZIlplOnTkafQGo3ElYPVeDKK680u+22W6jpeZOXA2dFeGPlY6ATJ040ixYt8jF0Yg5IYODAgWarraz/yOnw2VcBHWxSQSAFAet/m6SQo69L6KWDegmhlfinTp1q3nvvPStrsygCCNgXWL58uTnvvPPMrbfeaj8YIghOoHHjxkYvJQwuMY8S0suF9Z5kHoVMqGUIyC9CTWaeIl2GC0PTFWjatKm59NJL0110y9XelI/ul05DAIEABChguXsQrd68nX/0uPuNQWQIpCWwevVqc8kllxjOxkxLPFvr6PfW9773vWwl7VC2G5995VBYhBKTwIwZM8wbb7wR02xMg0BlAlq82nbbbSvbOb69aqMoWhvfdMyEAAI2BShg2dTPs7b81qytbDpKupWmTyF77LHHrKzNoggg4JbA2rVrzYABA8zvfvc7twJzKxqiqUBALym54YYbKtiTXaoV2Hvvvc1ZZ51V7TTs77DAkCFDHI6O0LIgoH/H678fLOf6paw/UToNAQQCEaCA5eaBHGgzLM6+sqmf1bXJ22UBKaqbq666ylx99dUuh0rms/wAABAASURBVElsHgqcfPLJ5swzz/Qwcr9D1h8qa2pq/E6C6PMKvPbaazyII68OG9ISOOOMM8z++++f1nL51pkQRZEWsfJt53MEEPBMgAKWYwdMflBsJSGdK728FtPo+fPnmylTpsQ0G9MggEBIAtdff73Rm7HK31MhpUUulgX07L769etbjiI7yzdp0sT07NkzOwlnMNPa2lrD39MZPPCOpXzFFVfYjkgvGxxuOwjWRyAxgYxOTAHLvQPfV0Ky9i/5sWPHmmXLlkkINAQQQGBLgWHDhpkePXoYfVLpllv5BIHyBVq3bm0uu+yy8ndkj4oEunfvbpo1a1bRvuzkvsDChQvNLbfc4n6gRBi0wMEHH2z0DFvLSd4fRZHewD1vGGxAAAH/BChgOXTM5LdljSSc3tKtNL1hMzdrtkLPogh4JXDzzTebLl26mJUrV3oVN8G6K/DrX/+aokoKh0d+mFt3T7sUlmIJSwI33XSTWbx4cVqrsw4CdQro2dr6902dG9P7kBvBpWfNSgikJkABKzXqkhbqKqNaSrfS7r77bvPBBx9YWZtFEUDALwH9+0JvAr1kyRK/AidaJwV23HFH82//9m9OxpZsUOnOfvrpp5uDDjoo3UVZLTUBfejG8OFcMZUaOAvVKbD99tubbt261bktxQ//KWs9KJ2GAAKBCVDAcuuAcvN2t44H0SCAQAGBBx54wOhNWr/80uL9UQvExya/BPR+KXvssYdfQXsW7aBBgzyLmHDLEZg2bZp5++23y9mFsQjELqCXhDdu3Dj2ecucsDaKolyZ+zAcAQQ8EKCA5chByuVyJ0goh0q30mbPnm1mzZplZW0WtSvA6ghUI/DYY4+Zk046yegDIKqZh30RaNSokfntb38LREICBx54oOnQoUNCszOtCwJDhw51IQxiyLBAvXr1XLhMeaEcgknSaQggEKAABazqD2pcM1g9+0qfWBNXIsyDAALZEnjuuedM+/btzYcffpitxMk2doELL7zQHHDAAbHPy4Rm3RNEoyiCIlCBl156yTzyyCOBZkdavgicc845Zvfdd7cd7k1RFHEjONtHIez1yc6iAAUsi/jrl87lcnvJ+07SrbRPP/3UTJkyxcraLIoAAmEI/POf/zTHH3+8mTt3bhgJkYUVAfmhw/zoRz+ysnbIi2633Xbm4osvDjnFzOemZ1/Jvycz7wCAXYHBgweXGEBiw9bKzNwIThBoCIQqQAHLjSPbX8KokW6ljR071ixfvtzK2iyKAALhCMyZM2fdmVivvvpqOEmRSeoCHTt2TH3N0Bfs0aOHadq0aehpZiu/jbLVS7gnT5680Se8RSB9gSOOOMIce+yx6S+86YrT5Rch3AhuUxO+QiAoAQpYlg+n/LasiYTQU7qVtmrVKjNy5Egra7MoAgiEJ6CXEeqZWM8//3x4yZFRKgJt27Y1LVq0SHytrCxQU1Nj+vfX35NlJePs5TlmzBizbNmy7CVOxk4JOHD2lXpwIzhVoCMQsAAFLPsHV58z29xWGH/84x+5b40tfNZFwG+BvNHr2QAnnngiD4bIK8SGQgJacDnjjDMKDWFbGQJ6Rts+++xTxh4M9Ulg9erVZsSIET6FTKwBCuy8886mS5cutjP7hwTwsHQaAggELEABy+LBzeVyejdVqzdv13smWCTI+NKkj0C4AosWLTKnnXaa+ctf/hJukmSWmIAWXRKbPGMTO3JWRMbU00v3rrvu4heR6XGzUh6BPn36mIYNG+bZmtrHtVEU5VJbjYUQQMCKgN8FLCtksS56qsz2HelW2rPPPmuefPJJK2uzKAIIhC+wdOlSc/bZZ5upU6eGnywZxirQoUMH06BBg1jnzOJk3/3ud42eDZnF3LOSM7+IzMqRdjdPLVxpActyhAtk/duk00IXIL/MC1DAsvstMMjm8vyjx6Y+ayOQDYGVK1euu6xg0qRJ2UiYLGMRaNasmTnuuONimSvLkwwaZPWfGVmmTyX3Z555hl9EpiId1iJxZ6OXDu60005xT1vufOOiKFpa7k6MRwAB/wQoYFk6Zrlcbn9Z2tpNPubNm2fuvPNOCYGGAAIIJCug92jp3r27GTZsWLILMXtQAnr2XlAJpZyM3gi/a9euKa+aieWcSZJfRDpzKDIdiAOXKa+WA8CN4ASBhkAWBChg2TvK/WVpa/76xJoVK1ZICDQEEEAgeYG1a9eagQMHmuuuuy75xVjBcYHSwuM+WKU55RvVu3dvs/XWW+fbzOeeC3z88cf8ItLzYxhC+Hqm7BFHHGE7lT9FUfSe7SBYHwEE0hGwVkBJJz03V8nlck0lskulW2mrVq0yo0aNsrI2iyKAQAwCHk9xzTXXmKuvvtrjDAg9LYF9993XtG7dOq3lglqnXr16pl+/fkHlRDKbCui/4/QS7U0/5SsE0hVw5DLloelmzWoIIGBTgAKWHX0tXm1rZ2lj/vCHP5iPPvrI1vJOrEsQCCBgT+D6669f98O1npVlLwpW9kHgrLPO8iFM52Ls3LmzadWqlXNxEVA8AnoG/ejRo+OZjFkQqFBgjz32MOecc06Fe8e22/NRFD0W22xMhAACzgtUWsByPjFXA8zlcmo+wGZ83DPBpj5rI4CACowcOdLofbH0/lj6NR2BugS4jLAuleKfOXBPmuJBMqJigSlTphi9l2nFE7AjAjEI6FmeerZnDFNVMwVnX1WjV96+jEbACQEtpjgRSIaC0Bu36w3craSsT6x56qmnrKzNoggggMDGAvpkQn16kZ5NsPHnvEdgvUDbtm2N3ox8/de8Fhc48sgjjboVH8kIXwX4RaSvRy6cuBs3bmx69eplO6FPJYAp0mkIIJAhAQpY6R/swekvuWFF/tGzwYJ3CCBgX2Dq1KlGLxNbsmSJ/WCIwDmBmpoac8YZ+nsf50JzNiBH7kmTjA+zmscee8zMnj0bCQSsCnTr1s1sv/32VmOQxcdEUbRcXmkIIJAhAQpYKR7sXC7XWpY7RbqV9sknn/DEGivyLIoAAoUE/vrXv5rTTjvNLFq0qNAwtsUg4OMUXEZY+lHbeeedjZ7VWPoejPRNoLa21reQiTcwASkamYEDB9rOapUEMFI6DQEEMiZAASvdA65/20fpLrlhNZ5Ys8GCdwhUKMBuCQk88cQT5qSTTjKfffZZQiswra8CHTp0MA0aNPA1/FTj7tOnj2nYsGGqa7JYegLvvfee0bNW01uRlRDYUuCUU04xBx988JYb0v3kLimk8USqdM1ZDQEnBChgpXQYcrlcc1nqYulWmj5q2Y0n1lhJn0URQMADAb0s5vjjjzcffPCBB9ESYloCzZo1M8cdd1xay3m7jhautIDlbQIEXlRgxIgRhgdfFGViQMICjjwkgpu3J3ycmR6B+ATinYkCVryehWbrIRubSLfS/vCHPxi9hNDK4iyKAAIIlCjwz3/+0xx77LFm7ty5Je7BsCwI6H3SspBnNTnqpYM77bRTNVOwr8MCy5YtM2PHjnU4QkLLgsD+++/vwn0Jn4mi6O9Z8P42R94ggMC3AhSwvqVI7k0ul6uR2QdIt9a4ebs1ehZGAIEyBfQymXbt2plXXnmlzD0ZHqoA98EqfmQdOSuieKCMqEhAn9r6+eefV7QvOxmDQTwCAwYMMFttZf3HR86+iudwMgsCXgpY/xvIS7Xygz5bdtlLupX297//3Tz99NNW1mZRBBBAoBKBjz76yOjlhM8880wlu7NPYAL77befad1an4MSWGIxpaNnLR5xxBExzVbnNHxoUUB+EWr4RaTFA8DS6wS23XZbc+mll657b/GPj2XtO6XTEEAgowIUsNI58IPSWabuVXhiTd0ufIoAAm4LLFiwwOjNYvWx8W5HWkp0jKlW4NRTT612imD3HzTI6j8zgnV1JbGZM2dyRqorByPDcWjxqmnTprYFRkdRtNJ2EKyPAAL2BChgJWwvvzVrI0ucIN1K07MY7rrrLitrsygCsQowWSYFvvzyS6NPoZsxY0Ym8yfpDQIHHnjghi94963A7rvvbjp37vzt17wJT4BfRIZ3TH3LSC8bHDhwoO2wtXA1ynYQrI8AAnYFKGAl72/116L65EF9AqGmSUcAAQR8FFi6dKnp1KmToRjv49GLL+Z99903vskCmqlfv36mXr16AWVEKhsLvPXWW+aee+7Z+CPeI5C6wJlnnmkc+Dv4jiiK5qWePAsi4LFAiKFTwErwqOZyuZYy/YXSrTQtXGkBy8riLIoAAgjEKKB/n51//vnm5ptvjnFWpvJJQO+D5VO8acS69dZbm169eqWxFGtYEhg+fLhZu3atpdVZFoGvBRx5SISNm7d/DcCfCCDgjAAFrGQPhf6rcutkl8g/+x133GHmzeMXFfmF2IIAAj4JrFmzxvTs2dNwOY1PRy2+WPfcc09Tv379+CYMYKauXbuaFi1aBJAJKdQl8NVXX5nx48fXtcmjzwjVd4FDDjnEnHTSSbbTeCKKomdtB8H6CCBgX4ACVkLHIJfL6fn8/RKavqRpeWJNSUwMQgABjwT0TAS9YfW1117rUdSEGoeAXia31157xTGVX3PkiVZ+mDOOnBWRJ0I+rlZAzzjV+wBWOw/7I1CNgP5/rv59U80cMezL2VcxIDIFAiEIUMBK7ih2lqlbSbfSZs2aZZ59ll9UWMFnUQQQSFzgV7/6lbnqqqtKWodB4Qg4cA8WZzD1jAg9M8KZgAgkVgEt1nO2aaykTFaBgJ7hqWd6VrBrnLt8IJPdLZ2GAAIIGApYyX0TDE5u6uIz84+e4kaMKFmAgQg4KfC73/3O9O3bl/vDOHl0kgmK+2BtcNWzIjZ8xbvQBO6//37z5ptvhpYW+Xgm0Lt3b9O4cWPbUY+MomiV7SBYHwEE3BCggJXAccjlckfKtG2lf9PSffnwww/N3Xfzi4p01VkNAQRsCIwaNcp069bNrFrFv21t+Ke9JgWsr8X32Wcfo08F+/or/gxRYMiQISGmRU4eCehl2/qUU8shL5f1x0qnIeCZAOEmJUABKxnZQclMW9qsI0eO5Ie50qgYhQACAQhMnjzZnHfeeWbFihUBZEMKhQQoYH2tM2DAAFNTU/P1F/wZnMCrr75qHnzwweDyIiG/BDp37mxatbJ2NxRjvua6PYqiz75+y58IIICA4RLCuL8JcrnczjJnF+lW2vLly82YMWOsrM2iCCCAgC2B6dOnm44dO5olS5bYCoF1UxDgHljGbLPNNqZHjx4paLOELQG9DYT8e7Lq5ZkAgWoEHHlIBDdvr+Ygsi8CAQpwBlb8B/VymbKhdCttypQp5rPP+EWFFXwWRQABqwJ6xsKpp55qvvjiC6txsHhyAnvvvXeaZx4ll0gVM3fv3t00a9asihnY1WUB/ftr0qRJLodIbBkQOOqoo0zbttbuhrJe+JEoil5Y/wWvCCCAgApQwFKFmLr8tqyBTNVHurWmv7WztjgLI4AAApsIpP/Fk08+aa688sr0F2bFVAQaNmxodt9TavzCAAAQAElEQVR991TWcnER+WHO6OWDLsZGTPEIjBs3jjNJ46FklioEHHlIRG0VKbArAggEKkABK94Dq5cO6iWE8c5a4myPPfaYmT17domjGeaFAEEigEDZAo8++mjZ+7CDPwJZvoywQ4cO5sADD/TnYBFpWQJr1qwxI0aMKGsfBiMQt8Auu+xiunTRH2ninrms+d6V0dOk0xBAAIFNBIIvYG2SbfJfWL15+7Bhw5LPkBUQQAABxwXeeustM2/ePMejJLxKBbJ8I3dH7klT6aFjvyIC06ZNM++8806RUWxGIFmBPn36mAYN9KKSZNcpMvuIKIpWFxnDZgTqFODDsAUoYMV0fHO5nF4oflRM05U9zfvvv2+mTp1a9n7sgAACCIQoMGvWrBDTIicRyGoB66CDDjKnnXaaCNBCFRgyZEioqZGXJwJ6mXafPn1sR7tMAhgnnYYAAghsIUABawuSij8YWPGeMew4atQos2rVqhhmYgoEEEDAfwEKWP4fw3wZZLWANXDgQBNFUT4WPndKoPxgXnjhBcPlz+W7sUe8Aueff77Zcccd4520/NkmRVH0efm7sQcCCGRBgAJWDEc5l8u1kmnOlW6lLV++3IwZM8bK2iyKAAIIuCjw0EMPuRgWMZUqUGBcFu+Btd1225mLL764gAqbfBcYOnSo7ykQfwAC3Lw9gINICggELkABK54D3FemqS/dSrv99tvN/PnzrazNoggg4KZA1qN6/vnnzfjx47POEGT+WsCS384HmVu+pHr27Gm22WabfJv53HOBzz77zOi/5TxPg/A9F2jfvr05/PDDbWcxU/5+f9l2EKyPAALuClDAqvLY5HK5RjJFb+nWGvdMSISeSRFAwHOBf/mXfzEffPCB4X9hCTRu3NjsuuuuYSVVIJuamhrTv3//AiPY5LvA6NGjjZ5N73sexO+3AGdf+X38iB6BrAgkWMDKCqG5QDJtKd1Ke+SRR8yLL75oZW0WRQABBFwWWLRokenVq5fLIRJbhQJZug/WWWedZfbee+8KpdjNdQG9f+nIkSNdD5P4AhfYc889TadOnWxnOVcCuEc6zVsBAkcgeQEKWNUbD65+ispnqK2trXxn9kQAAQQCF5gxY4aZMGFC4FlmL7099tgjM0kPHmz1nxmZcbaV6F133WU++ugjW8uzrmsCluLRszzr1atnafVvlx0eRdGab7/iDQIIIFCHAAWsOlBK/SiXy50gYw+VbqW99957Ztq0aVbWZlEEEEDAF4Gf/vSnXEroy8EqMU4HftAqMdLqhrVp08accMIJ1U2Ssb19S5fbQPh2xMKLt0mTJuayyy6zndhiCeAm6TQEEECgoAAFrII8RTcOLDoiwQEjRowwq1evTnAFpkYAAQT8F9BLCXv3tnqrQp8QidUhAUfuSeOQSFihPP300+app54KKymy8U6gW7dupnnz5rbjnhhF0SLbQbA+Agi4L0ABq8JjlMvl9pJdrV0svmzZMjNu3DgJgYYAAm4JEI2LAvfffz/3C3TxwBBTXoGWLVuaCy+8MO92NvgvwNlX/h9D3zOIosg4UCjPieMw6TQEEECgqAAFrKJEeQfoI4Fq8m5NeMNtt91mFixYkPAqlqZnWQQQQCABgXvvvTeBWZkSgWQE9KzBrbfeOpnJmdW6gN73Su9/ZT0QAsi0wGmnnWZat25t2+AvURS9ZjsI1kcAAYsCZSxNAasMrPVDc7lcE3nfU7q1xs3brdGzMAIIeCpAAcvTA5fBsOvXr2/69euXwcyzk/KoUaPMypUrs5MwmTop4MDZV+rCE6lUocrO7ghkRYACVmVHupvsZu1i8Yceesi89NJLEgINAQQQQKBUAb3XzPz580sdzjgErAmce+65ZrfddrO2PgsnK7B8+XIzevToZBdh9nIFMjf+gAMOMB06dLCd95sSwAzpNAQQQKAkga1KGsWgbwVyuVwkX1i9efuwYVwmLseAhgACCJQlsGbNGqP3wiprJwYjYEHAkbMiysyc4aUKTJkyxXz66aelDmccAokIDBw40Gy1lfUfBWujKFqbSIJMigACQQpY/1vLQ9VTJebvSLfS3n33XTN9+nQra7MoAggg4LvAfffd524KRIaACBx11FHmmGOOkXe0UAWGDh0aamrk5YlAs2bNzCWXXGI72i8lgJul0xBAAIGSBShglUz17UCrZ1+NGDHCrF69+ttgeIMAAhsEeIdAMYEZM2aYVatWFRvGdgSsCXD2lTX6VBZ+9NFHzfPPP5/KWiyCQD6BHj16mKZNm+bbnNbnE6Io+iqtxVgHAQTCEKCAVcZxzOVy+8nwH0q30pYuXWrGjRuX5NrMjQACCAQtsHDhQvP+++8HnSPJ+Suwyy67mC5duvibAJEXFeDsq6JEDEhYoKamxgwYMCDhVYpOr5cNck+UokwMQCBxAe8WoIBV3iHTv+2tmd16663m888/Ly9iRiOAAAIIbCIgv4zY5Gu+QMAVgT59+pgGDRq4Eg5xxCygt4GYNm1azLMyHQLlCXTs2NHss88+5e0U/+j7oyh6K/5pbczImgggkKaAtWJMmknGsZb8wKPn2V4ax1yVzlFbW1vpruyHAAIIIIAAAg4LNGzY0Fx++eUOR0ho1QpwG4g8gnycqsDgwYNTXS/PYkPyfM7HCCCAQEEBClgFeTbZqMWrbTf5JMUvZs6caV5++eUUV2QpBBBAAAEEEEhL4Pzzzzc77bRTRcuxk/sCehuIsWPHuh8oEQYt0KZNG3PiiSfazvFVCeBB6TQEEECgbAEKWCWQ5XI5ddLLB0sYncwQzr5KxpVZEUAAAWMMCAhYF+Dm7dYPQaIBTJo0yXzxxReJrsHkCBQTcOTvmWFRFOWKxcp2BBBAoC4BLczU9TmfbSpwhny5v3Qr7e233zb33HOPlbVZFIHSBBiFAAIIIFCpQLt27czhhx9e6e7s57iA/CLUcPN2xw9SBsJr2bKlufDCC21nqlXcSbaDYH0EEPBXgAJWacduUGnDqhhVYNfhw4ebNWvWFBjBJgQQQAABBBDwVWDgwIG+hk7cJQj89a9/Na++qldNlTCYIQgkJNC7d2+z9dZbJzR7ydOOj6JoccmjGYhAyALkVpEABawibPJbs9Yy5FTpVtqSJUvM+PHjrazNoggggEBoAvXr1zctWrQILS3y8Vhgjz32MOecc47HGRB6MQHOviomxPakBfT/+/r165f0MsXmXysDhkuPrTERAghkT4ACVvFjrr8WjYoPS2YE90xIxpVZEUAgmwIdOnQw2223XTaTJ2snBfSHynr16jkZG0FVL/Dmm2+a+++/v/qJkpmBWTMicO6555rddtvNdrbToyh623YQrI8AAn4LUMAqcPxyuVxz2XyxdCtN1jfcvN0KPYsigECgAl27dg00M9KyI1Ddqo0bNza9evWqbhL2dlpg2LBhZu1aPfHE6TAJLnCBwYMHu5DhEBeCIAYEEPBbgAJW4ePXQzY3kW6lPfjgg9wzwYo8iyKAQGoCKS7UtGlTc9ZZZ6W4IkshUFjgoosuMttvv33hQWz1VuDLL780N998s7fxE3gYAkcffbT5wQ9+YDuZlySAR6TTEEAAgaoEKGDl4cvlcjWyqb90a01/a2dtcRb2RoBAEUCgNIHOnTsbPeOltNGMQiBZgSiKzKBBVp8Rk2yCzG4mTJhgtIgFBQI2BRw5+6o2iqKcTQfWRgCBMAQoYBmT70ieLRv2lm6lzZkzx9x7771W1mZRBBBAIEQBLh8M56iGUBQ4+eSTzcEHHxzOQSGTTQT0skF+EbkJCV9YENh1113NeeedZ2HlTZZcIF9Nlk5DwBUB4vBYgAJW/oNn9deiw4cPN2vWrMkfHVsQQAABBEoWaNOmjTnppJNKHs9AtwU+/fRTtwMsIbqBA/UZMSUMZIiXAvpLyLfeesvL2Ak6HIG+ffuaBg0aJJBQWVOOjaJoaVl7MBgBBBDII0ABqw6YXC7XRj4+QbqVtnjxYjN+/Hgra7MoAgggEJqA/MPZ6JkQNTV6ZXho2WUzH98LWPvtt5/p2LFjNg9eRrIeOnRo4UzZikDCAo0aNTKXX355wqsUnX61jBghnYYAAgjEIrBVLLOEN4nVs69uueUWs2jRovBUyQgBBBCwIKA3ym7Xrp2FlVkyKQEtYCU1dxrzDhgwwGy1Ff8ES8PaxhqvvPKKmTlzpo2lWROBbwUuuOACs8MOO3z7taU3U+WXSO9bWptlEUAgQAH+9bTZQc3lci3lowulW2myvqmtrbWyNosigECmBDKRbLNmzcz//M//ZCLXrCS5cuVKs3DhQm/T1adhXnrppd7GT+DFBfTfcfrvueIjGYFAcgKO3LydUxGTO8TMjEAmBShgbXnYe8lHW0u30h544AHz2muvWVmbRcsVYDwCCLgu8Jvf/MbsvPPOrodJfGUI6NlXPhcHtHi17bbblpExQ30S+Pzzz82kSZN8CplYAxQ44YQTzKGHHmo7s9lRFD1uOwjWRwCBsATsFrAcs5R/ENeTkPpJt9b0t3bWFmdhBBBAICABvXF7//79A8qIVFRAC1j66mPXywb18kEfYyfm0gTGjRtnli7lftWlaTEqKYFBg6zeDWV9WlxSsl6C1w0CvEOgSgEKWJsCdpYvW0m30vRpNffff7+VtVkUAQQQCElAfuu77sbt9erp7yVCyoxcfC5gnXHGGWb//ffnIAYqoE+PHjGC+1UHenidSatYIHvvvbc5++yziw1LevunssDt0mkIIIBArAIUsDblHLzpl+l+pU/JWrt2bbqLshoCCCAQoAA3bg/woH6Tks8FLEfOivhGMrMviSU+depU8+677yY2PxMjUIqAnnlcU1NTytAkx4yWXyStSHIB5kYAgWwKUMD65rjncrkj5W1b6VbaV199ZSZMmGBlbRZFAAEEQhLYZZdduHF7ogfU7uTz5s2zG0CFq7du3dqceuqpFe7Nbj4IDB3K/ap9OE4hx9ikSRPTs2dP2ymukgBGSachgAACsQtQwNpAavVi8YkTJ5ovv/xyQzS8QwCBcAXILDGBAw44wDz++OPcuD0xYfsT+3oGlp59FUWRfUAiSETg+eefN4899lgiczMpAqUKdO/e3Wy33XalDk9q3F1RFH2U1OTMiwAC2RaggCXHP5fL7SwvXaRbabL+unu1WFnc00UJGwEEENhc4Oijj15XvNpnn30238TXAQn4WMBq3ry56datW0BHgVQ2F+Dsq81F+DptASkaGUceEjEk7dxZDwEEwhdYnyEFrK8lestLQ+lW2owZM8zrr79uZW0WRQABBEIQ0Jtjz5w50+ywww4hpEMOBQR8LGDpJT16aU+BtNjksYB+T95+O/er9vgQBhF6hw4dzEEHHWQ7l6elkPaU7SBYv04BPkQgCIHMF7ByuVwDOZJ9pVtrtbW11tZmYQQQQMBngZ122slce+21Zvr06WabbbbxORViL1FAiwUlDnVimN5MWW+q7EQwBJGIwOjRo82KfzZavQAAEABJREFUFdyvOhFcpyZ1Oxi9TNmBCLkRnAMHgRAQCFkg8wUsObhdpOslhPKSfnvjjTfMX/7yl/QXZkUEEEDAUwH57a457rjjzB133GHef/9984tf/MLUq1fP02wIu1wB327i3qlTJ7PXXnuVm2aY4wPMatWqVWbkyJEBZkZKPgnomVenn3667ZA/lgD+IJ2GAAIIJCZAAcsYqzdvHzZsmFm7dm1iB5iJEUAAgVAEtHB10UUXmdmzZ6+7WXKXLl1M/fr1Q0mvpDyyPiiXy5nPPvvMK4bBgwd7FS/Blidw5513mo8/1p/by9uP0QjEKTBw4ECj/x8Z55wVzDVKYlhZwX7sggACCJQskOkClvxDuK1IHSXdStOnDt58881W1mZRBDIqQNqeChx55JFm1qxZZtKkSeZ73/uep1kQdrUCCxcuNCtX+vPz0aGHHmrat29fbdrs77AAN293+OBkJLTtttvOXHzxxbaz1b+YR9sOgvURQCB8gUwXsOTwDpRurU2YMMF89dVX1tavbGH2QgABBNITaNGihRkzZox56qmnzDHHHJPewqzkpIBvlw9y9pWT30axBfXkk0+ap59+Orb5mAiBSgT0IREO3APyjiiK5lUSP/sggIDrAm7Fl9kCVi6XayWH4lzpVppeNjh8+HAra7MoAggg4LqA3tNKf/ifM2eO6dWrl9lqq8z+35XrhyrV+Hy6gbs+EfOCCy5I1YfF0hXgITzperPalgL6kIgBAwZsuSH9T4akv6RHKxIqAgjEJpDlnwj0yYPWbp7y+uuvG73h4llnnWXoGPA9wPcA3wMbvge6du1qnnvuOfP73//eNGvWLLb/w2Mi/wVeffVVb5LQwmujRo28iZdAyxP48MMPzV133VXeToyuWIAd6xY4++yzzV577VX3xvQ+nRVF0XPpLcdKCCCQZYFMFrByuZz+i7K3zQPfunVrM336dDoGfA/wPcD3wGbfA7feeqtp06aNzb+iWdtRgbFjxzoa2aZh6cMF+vfvv+mHdr9i9ZgF9MmD+gTCmKdlOgTKEtAzlcvaIZnBtclMy6wIIIDAlgKZLGAJg57T31JeaQgggAACCJQgwBDbAs8884yZPXu27TBKWv+8884zu+66a0ljGeSfwPLly9fdm8+/yIk4JAF9SMTxxx9vO6UPJIC7pdMQQACBVASyWsDimdapfHuxCAIbCfAWAQQQqEJg9Gh/HnDlyFkRVWizayGByZMnm88++6zQELYhkLiAI3/PjIyiaFXiybIAAggg8I1A5gpYuVzuBMn9UOneNQJGAAEEEEAgiwKLFi0yU6ZM8SL1o48+2nz/+9/3IlaCrExg6NChle3IXgjEJLDjjjsaBx4SsVzSGSOdhgACCQkw7ZYCmStgCcFA6TQEEEAAAQQQ8ERA74u2ZMkSL6J15KwIL6x8DPLhhx82L774oo+hE3NAApdffrlx4CERk6Momu84K+EhgEBgApkqYOVyuT3l+HWSTkMAAQQQQAABTwRGjRrlRaR63yu9/5UXwRJkRQK1tVm7X3VFTOyUoIA+JKJPnz4JrlDy1JyKWDIVAxFAIC6BTBWwBE0fCVQjrzQEEEAAAQQQ8EBg1qxZ5uWXX/YgUmP0h8oGDRpsGitfBSPw9ttvm2nTpgWTD4n4KfDjH//YhYdEPBJFEaci+vktRNQIeC2QmQJWLpdrIkfqMuk0BBBAAAGPBAg12wK+nH2ll/PoZT3ZPlphZz9ixAizZs2asJMkO+cFHLlMmbOvnP9OIUAEwhTITAFLDl836c2l0xDImgD5IoAAAl4KLFiwwNx1111exH7++ecbvbGyF8ESZNkCeg+2cePGlb0fOyAQp8Axxxxj9EERcc5ZwVzvyj7TpdMQQACB1AUyUcDK5XKRyFZx83bZm4YAAggggAACqQpMnDjRLF+uD7pKddmKFhs0aFBF+7GTHwK33HKLWbhwoR/BEmWwAo78PTMiiqLVwSKTGALrBPjDVYFMFLAE/xTp35FOQwABBBBAAAEPBOSXT2bMmDEeRGpM+/btzWGHHeZFrARZvoB+Lw4dyhVT5cuxR5wCrVq1Mueee26cU1Yy11LZqbRTEWUgDQEEEIhbICsFLH4tGvd3DvMhgAACCCCQoMBDDz1kXn/99QRXiG9qR86KiC8hZtpE4IEHHjCvvfbaJp+l8QVrILCxQN++fY0+gXDjzyy8nxRF0ecW1mVJBBBAYJ1A8AUs+a3ZfpLpD6XTEEAAAQQQQMATgRjOvkol0z333NN06tQplbVYxI4AZ1/ZcWfVDQL6kIjevXtv+MDOu5wsWyudhgACCFgTCL6AJbIDpGchT0mThgACCMQpwFwI2BGYN2+emTp1qp3Fy1y1X79+pl69emXuxXBfBN544w0zY8YMX8IlzkAFunbtalq2bGk7u5lRFL1iOwjWRwCBbAsEXdjJ5XJN5fBeKp2GgB0BVkUAAQQQKFvg5ptvNitXrix7v7R3aNKkienVq1fay7JeigK1tbVm7dq1Ka7IUghsKeDIZcqcfbXloeETBBBIWcD5AlaVHlq82rbKOdgdAQQQQAABBFIS0GKBL5cPXnTRRaZ58+YpybBM2gKLFi0yEydOTHtZ1kNgE4ETTzzRtGnTZpPPLHwxR9a8VzoNgcQFWACBQgLBFrByuZzmppcPFsqfbQgggAACCCDgkIDeMHvu3LkORVR3KFEUGUfOiqg7QD6tWmDChAnmq6++qnoeJkCgGoHBgweXu3sS44dFUbQmiYmZEwEEEChHQIs85Yz3aWwHCXZ/6TQEEEAAAQQQ8ETg7rvv9iLSU045xXznO9/xIlaCLFfArLtscNiwYeXvyB4IxCiwzz77mI4dO8Y4Y0VTLZa9JkinIYAAAtYFQi5gOfHrCutHmAAQQAABBBBIW6CK9R555JEq9k5vV86+Ss/axkr33HOPmTNHr5qysTprIvC1QP/+/U1NTc3XX9j7c2IURYvsLc/KCCCAwAaBIAtYuVyutaR4qnQaAggg4KUAQSOQRYGPPvrI6FPfXM99//33Nz/84Q8N/wtXYMiQIeEmR2ZeCGyzzTamZ8+etmPNSQDcvF0QaAgg4IZAkAUsoR0oPZJOy64AmSOAAAIIeCbwiCdnXw0YMMBstVWo/4Ty7JsmgXBffvll89BDDyUwM1MiULpA9+7dTbNmzUrfIZmRf4mi6PVkpmZWBBBAoHyBAv/6Kn8yF/bI5XINJY6LpdMQQAABBBBAwCOBhx9+2Plot912W6M/WDofKAFWLDB06FAj/56seH92RKBaAS2QDxw4sNpp4tifs6/iUPRmDgJFwH2B4ApYQt5IehPpNAQQQAABBBDwSMCHApYWr7SI5REroZYhsGDBAnPbbbeVsQdDEdhIIKa3HTp0MAcccEBMs1U8zRuy5wzpNAQQQMAZgRALWM7gEggCCCCAAAIIlCbw8ccfmzfffLO0wZZGOXRWhCWB5Je1vcK4cePM0qVLbYfB+hkXGDzYiWdR1UZRtDbjh4L0EUDAMQEKWI4dEMJBAAEEEECgCgFvd9Wzr1y/bEtv3L7ffvt5a0zghQVWr15thg8fXngQWxFIWKB169bm1FOtP4tKnzo4MeFUmR4BBBAoW4ACVtlk7IAAAmELkB0CCNgQ8OEG7o6cFWHj8GRizalTp5r3338/E7mSpLsCgwYNMlFk/VlUN0dR9JW7SkSGAAJZFaCAldUjn2TezI0AAggggECZAnoGVpm7pDr84IMPNieffHKqa7JYugJDhgxJd0FWQ2AzgebNm5tu3bpt9mnqX+plg8NSX5UFEUDAX4EUI6eAlSI2SyGAAAIIIIDAlgLPPPOMef3117fc4NAn+kSwKLJ+VoRDImGFMnv2bDNr1qywkiIb7wQuu+wy06RJE9tx3xtF0Vu2g8ja+uSLAAKlCVDAKs2JUQgggAACCCCQkMBvfvObhGaOZ9rtt9/eXHTRRfFMxixOCnD2lZOHpZygvB9bU1Nj+vfv70IeQ10IghgQQACBugQoYNWlwmcIIIAAAgggkIqAnn113333pbJWpYs4clZEpeGXuF92h82bN8/ccccd2QUgcycEOnXqZPbcc0/bsbwqAcyUTkMAAQScFKCA5eRhISgEEEAAAe8ECLgiAT37yuWnD+pZEf369asoN3byQ2D06NFmxYoVfgRLlMEKXHHFFS7kVhtFUc6FQIgBAQQQqEuAAlZdKnyGAAJWBFgUAQSyJeDD2Vc/+tGPXDgrIlvfGClmu3LlSjNy5MgUV2QpBLYUOOyww0y7du223JDuJ1/IcpOk0xBAAAFnBShgOXtoKgqMnRBAAAEEEPBGwPWzrxRy8ODB+kIPVODOO+80n3zySaDZkZYvAoMGDXIh1PFRFC1xIRBiQACBkgUyN5ACVuYOOQkjgAACCCBgX8CHs68cOSvC/sEKOIKhQ7lfdcCH14vUdtppJ3PBBRfYjnWNBDBMegYbKSOAgE8CFLB8OlrEigACCCCAQCACPpx95chZEYEccffSeOKJJ4wWUt2LzLOICLcqgcsvv9w0bNiwqjli2Hl6FEXvxDAPUyCAAAKJClDASpSXyRFAAAEEEEBgcwEtGrj+5MEdd9zRnH/++ZuHnsjXTGpHgLOv7Liz6gaBBg0amD59+mz4wN47TkW0Z8/KCCBQhgAFrDKwGIoAAggg4KQAQXkm4MPZV3pWRKNGjTyTJdxSBT744ANz9913lzqccQgkItClSxezyy67JDJ3GZO+JGMfkU5DAAEEnBeggOX8ISJABNIQYA0EEEAgHQG9bMv1s6/q16/vylkR6RyUDK6iTx5ctWpVBjMnZZcEHLlMuTaKopxLLsSCAAII5BOggJVPptzPGY8AAggggAACRQX+9V//1eRybv+s9OMf/9jsuuuuRXNhgJ8Cy5YtM2PGjPEzeKIORqBt27bmqKOOsp3PAglgsnQaAgiUK8B4KwIUsKywsygCCCCAAALZE/jTn/5kHn/8cecTHzx4sPMxEmDlApMnTzbz58+vfAL2RCAGAUf+nhkTRdHSGNKpaAp2QgABBMoVoIBVrhjjEUAAAQQQQKBsgdWrV5urr7667P3S3uEHP/iBOfroo9NelvVSFAjo5u0pqrFUnAK77767Oeecc+KcspK5VstOI6XTEEAAAW8EKGB5c6gIFAEEEEAAAX8FbrrpJvPaa685lsCW4ThyT5otA+OTWAT+9re/mZdeeimWuZgEgUoF+vbta/Ree5XuH9N+U6Moej+muZgGAQQQSEWAAlYqzCyCAAIIBCpAWgiUILBkyRLz61//uoSRdofstttu5rzzzrMbBKsnKsDZV4nyMnkJAltvvbXp3bt3CSMTHzIk8RVYAAEEEIhZgAJWzKBMh0C5AoxHAAEEQhe48cYbzSeffOJ8mo6cFeG8k68Bzp0719xzzz2+hk/cgQh07drVtGjRwnY2s6MommU7CNZHAAEEyhUIoYBVbs6MRwABBBBAAIGUBObNmySOT30AABAASURBVGduuOGGlFarfJlGjRq5clZE5UmwZ0GB4cOHmzVr1hQcw0YEkhSQopFx5ObtQ5PMk7kRSFiA6TMsQAErwwef1BFAAAEEEEha4NprrzVfffVV0stUPf8FF1xgdthhh6rnYQI3BRYvXmz0PmxuRkdUWRE46aSTzCGHHGI73U+NMVNsB8H6CCCAQCUCFLAqUWMfBBBAAAEEECgq8PLLL5uxY8cWHefCAG7e7sJRSC6GiRMnmkWLFsW3ADMhUIGAI3/PjI6iaEUF4bMLAgggYF2AApb1Q0AACCCAAAIIhCewatUq0717d6OvdWXn0mcnnHCC+d73vudSSMQSo0AulzO1tbUxzshUCJQvsO+++5qOHTuWv2O8e6yS6UZJpyGAAAJeClDA8vKwETQCCCBgIEDAaYHrrrvOPPfcc07HuD64gQMHrn/La4ACf/nLX8zrr78eYGak5JOA/j2z1VbWf/T6QxRFH/nkluFY95bcfyL9EukHSY+k0xDIvID1v0UzfwQAsCjA0ggggAACSQjMnj3b/Pa3v01i6tjn3GuvvUynTp1in5cJ3REYMmSIO8EQSSYFmjZtai699FIXcufm7S4chS1j2FY+OkX61dKnSf9Y+lzpeq+ym+X1n9IXSv+r9P8n/SzpO0mnIZA5geoKWJnjImEEEEAAAQQQKCSwYsUKc/HFF3tx6aDm0b9/f1NTU6Nv6QEK6JlXDzzwQICZkZJPAlq82nZbrVFYjfrpKIqeshoBi6tAQ/njaOkDpGtx6hV5/UK6Fqf0Nz9ny/udpW/e9BtIi1z/IRumS9ci1xx51SJXf3k9XHo96ck2ZkfAsgAFLMsHgOURQAABBBAISeCXv/yleeUV/fe4+1k1adLE9OzZ0/1AibBiAb331dq1ayvenx0RqFZALxscMEBrFV/PZPFPTkVMH18v+9tHltVLAdX/cXmvZ1JpIVFvzKeXB35HPqvkZ/KN5x4mc+g1+zr3o/L+Oul6llYLeaUhEJRAJf+xBAVAMggggAACCCAQj8CTTz5pbrzxxngmS2GWbt26mebNm6ewEkvEKFDyVAsXLjQTJ04seTwDEUhC4Ic//KHZf//9k5i6nDn1bJ27ytmBsRUJ6Om8Z8iev5H+Z+mfSV9/ltQgeX+s9EbSk2pNZOJ20v9dup6lpevr5YcT5Ovu0ltKpyHgtQAFLK8PH8EjgAACCCBQrkAy45cuXbru0sE1a9Yks0DMs0ZRZAYN0p8nYp6Y6ZwRGD9+vFm8eLEz8RBINgUGDx7sQuKjoiha6UIggcaghavzJbeXpN8n/ZfS9ZGTts+A0rO09AbwWrzSItZ7Etdo6dYrqhIDDYGKBChgVcTGTgggkGkBkkcAgS0ErrrqKvPWW29t8bmrH5x22mmmdevWroZHXFUK6GWDw4cPr3IWdkegOoGDDz7YnHzyydVNUv3eK2QKLVrICy1mgY0LV7fL3Ho5oLw427aWyHpLf0263ixezwiTtzQE/BGggOXPsQoqUpJBAAEEEAhHYObMmWbEiBFeJcTZV14drrKDnT59upk7Vx/iVfau7IBAbAIDBw40UaQnwcQ2ZSUT3RFF0bxKdmSfvAK+Fa42T0RrAHqzeL0n1xOy8Tzp+pm80BBIRiCuWflGjUuSeRBAAAEEEMigwKJFi0yPHj1MLpfzJnu9H02HDh28iZdAyxcYOnRo+TuxBwIxCmy//fZG77MX45SVTsV/DJXKbbmfFq4ulI/1UsG4zrhaJfMtL6EXGiO7V9yOkT3/IF3PyrpcXpO8R5dMT0OgOgEKWNX5sTcCCCCAAAKZFujTp4957z29rYY/DHpWhD4ZzJ+IibQcgZdeesk8/PDD5ezC2EwIpJvkZZddZho3bpzuoluuNiuKIn063ZZb+KRcAb1B+t2y023Sq71UcLXMoffK6iKv20rXS/uq6d+VOfQJKp/Ka6VN74s1Snb+q3Tr37gSAw2BOgUoYNXJwocIIIAAAgggUExg1KhRZsqUKcWGObW9WbNmpnv37k7F5E0wngRaW1vr1RmBnrASZhkC9erVMwMGDChjj8SGcvZVPLQ7yDQPSdfL7uSl4va87PlT6a2knyldz3zSM6vkbVXtZdn7Sul7SP+JdC2OrZXXStpxspM+sbKBvNIQcE6AApZzh4SAEEAAAQRCFQgprxdeeMH89Kf673C/srr00ktN06ZN/QqaaEsWmD9/vpk8eXLJ4xmIQBIC55xzjtl9992TmLqcOT+QwVOl06oT0Kf46X2ijqpwGj0O/y37HiL9cOm/l57UPcn0hv13yvxaHNtbXq+VruvLS1ntDBmtTy2kViAQNLcE+KZ063gQDQIIFBZgKwIIOCDw1VdfmS5dupjly+P4xXF6Cellg46cFZFe0hlbaezYsWbp0qUZy5p0XRMYPHiwCyGNjKJI76/kQiy+xtBOAtcbne8nr+U2PSvqEtlpH+n/Jv0V6Wk2vbb/V7KgFrJ+LK+PSS+n6b2+hskO1p9CIDHQEPhWgALWtxRZeUOeCCCAAAIIVCfQu3dv8+abb1Y3iYW9zzzzTLPvvvtaWJkl0xBYvXq1d0/DTMOFNdIVOOKII8yxxx6b7qJbrrZMPhojnVa5gF6Kp/eDalHmFLNkvF5q2EZeb5Fuu4io99vSSwLbSyxHStd7eJUaU18Z/5/SaV4LhBU8BaywjifZIIAAAgggkKiAj/e9Wg/iyFkR68PhNWaBu+++23zwQSVXy8QcCNNlWsCRv2cmR1E0P9MHorrkfy6761MGG8qrMaX9ofedOlWG6j2k/iyvOemuNb2h/0US1J7S/0v6l9KLtf+QAf8inYaAEwIUsJw4DASBAAIIIICA+wK+3vdKZQ855BBz0kkn6Vt6oAJDhgwJNDP/08pKBjvvvPO6y6sdyLfWgRh8DeECCfx/pJd66ZwWqv5Vxut9px6UVx/axxLkv0v/ofRS7gVwg4wbKJ2GgHUBCljWDwEBIIAAAggg4L6Ar/e9Wi87aNAgE0Wl/jyyfi9nXgmkiMCzzz5rnnhC77NcZCCbEUhQoE+fPqZhw3JO2kkkmIejKHoxkZnDn/Q7kmI5l16ulPF6RpMWvOStd00vd9T7dBV7YqH+n6f+hoAilneHOLyAKWCFd0zJCAEEEEBgCwE+qEZg5cqV5qKLLvLyvlead4sWLUzXrl31LT1QgaFDhwaaGWn5IqCFKy1gORAvZ19VdhCayG56r6ht5LWUtlAGnS7d98ee6lMLr5Y8ijWKWMWE2J6KAAWsVJhZBIEABEgBAQQyKaBPdOvUqZOZPn26t/n37NnTNG7c2Nv4CbywwCeffGLuvFN/Bis8jq0IJCmgT2bdaaedklyilLnflUH+/mUtwVtso2Xt1tJLaR/KoPbSH5YeQtMzyDT/YrlQxComxPbEBShgJU68YQHeIYAAAggg4JPAokWLzOmnn25mzJjhU9ibxFqvXj0zYMCATT7ji7AE9MECK1asCCspsvFOwJGbtw+LokifOuedn+WA9Wl7pZ6m+4LE+n3p/5AeUtP/o7y/hIQoYpWAtH4Ir/ELUMCK35QZEUAAAQQQ8F5gwYIF5pRTTjGPP/6417mcc845Zvfdd/c6B4LPL6CXt2oBK/8ItiCQvMBxxx1njjjiiOQXKrzCUtl8k/SQWhq56IH73xIXminjTpCuZ2DJS1BNC58/kYy0QCcvBRtFrII8bExSgAJWkrrMjQACCCCAgIcCH330kWnfvr3RG2N7GP4mIevN2zf5gC+CErjjjjvMvHnzgsop3mSYLQ0BR/6emRRF0Rdp5BvQGs0lF73vVSN5LdbulgFnSF8kPdT2lSR2lvRSCnTri1h65pbsQkMgHQEKWOk4swoCCCCAAAJeCMyZM8e0a9fOvPrqq17EWyjIww8/3OiZEYXGFN3GAKcFhgzRB2M5HSLBBS6wxx57GD3T03KaOVmfm7cLQpltpIzfS3qxpsWr82XQKumhtw8kwY7SF0sv1rSIpU/QOKnYQLYjEJcABay4JJkHAQQQQKBOAT70R0CLVlq8mjt3rj9BF4jUkbMiCkTIpmoE9PLW5557rpop2BeBqgX69etn9F57VU9U3QQzoyh6pbopMrf3uZKxXjInLwVbpcWrK2TWvybQH5A59cmH/y2vP5X+Y+ltpe8qXQtK8lJ108sIL5BZ1kgv1nTNcTKoqXQaAokLUMBKnJgFEKhagAkQQACBxAWefPLJdWdeffzxx4mvlcYC+jSw88/XX5insRpr2BAYOlR/8W9jZdZE4GsBfbppr169vv7C7p+cfVWef0sZPkJ6sVZp8Urn1ScaniJv4u6nypxaXLpKXvXeXfoI1lnyXi/7WyavT0nXb8om8lpNu0d21iKcvBRte8uI66XTEEhcICMFrMQdWQABBBBAAAFvBaZNm7buhu2ff/65tzlsHvjll19uGjZsuPnHfB2IwPvvv2/+9Kc/BZINafgq0K1bN7P99tvbDn+OBKDFBnmhlSgwTMbtKL1Qq6Z4VWjeJLfp/+kdLQuMka4Frd/LqxbS5KWipk6l/qZAn+To0KWEFeXLTh4IUMDy4CARIgIIIIAAAkkJjBkzxpx33nlm6VJ9gFVSq6Q7b4MGDUyfPn3SXZTVUhUYMWKEWbUqC7ejSZWVxcoQiKLIDBw4sIw9Ehs6LIqitbHPHu6EpVw66GPxavMj1kw+GCxdLy19VF71DCnNfWd5X077Fxn8Z+nFGpcSFhNieywCFLBiYWQSBBBAAAEE/BO49tpr1xV6Vq/Wp2f7F3++iLt06WJ22WWXfJv53HOBZcuWmbFjxzqfBQGGLXDKKaeYgw8+2HaSeqPtCbaD8Gj9Ui4d1Ovou0pOoVTItbDUTvL5V+n6xEXN75fyvtSm98G6WAZ/Kr1Y00sJ/6vYILYjUI0ABaxq9NgXAQQQQAABDwW0YKX3bfnVr35lcjl9eJVx8X8Vx8TN2yum82LHW2+91SxYsMCLWAkyXIHBg/XkFuv5TYyiaJH1KPwJYLiEWuzSQX206XIZF3L7tSSnN3+Xl5LaQhn179JLaf1kEJcSCgItGQEKWMm4MisCCCDggAAhILClgF4q2LlzZzNunD40aMvtvn/Stm1bc9RRR/meBvEXEODm7QVw2JSKwP7772/OOOOMVNYqsIj+9qG2wHY2bSrQQb7sIr1Q00LNqEIDYtr2osyj95aKq78p85XTIhl8s/R9pZfa9Ey/Z0oYrHPrKbI1JYxlCAJlC1DAKpuMHTIlQLIIIIBAQALz589fd7P2P/+5lNtZ+Jm4I/ek8RPPg6hnzpxpXn75ZQ8iJcSQBQYMGGC22sr6j1Ezoih6PWTnmHM7vYT5RsqYNM5o03tS6Sl8cXW9UXs3if0N6aW2xjLwMOmlNr3P2kAZrK/yUrDtI1uPlE5DIHaBxP/mjT1iJkQAAQQQQACBsgXeeecd065dO/Pkk0+Wva8vO7Rq1cqce67eo9aXiImzXAHOvipXjPFxCzT9tVm2AAAQAElEQVRr1sxceumlcU9byXx69k4l+2V1n2LFGr1sUC8f9NFH71N1qwSuN2XrKa8fSC+l7V7KoI3GPCXvb5FesH2z8dRvXnlBIFYBClixcjIZAggggAAC7gm88MILRi+te+2119wLLsaI+vbta+rXrx/jjEzlksCcOXPMvffe61JIxJJBAS1eNW3aNMnMS5lbz7x6oJSBjFknoJe1fW/du/x/jJdN86T73PSJLJrHgZLENdL1Jv/ykreVW8DSia6WP0o5S+0UGUdDIHYBClixkzIhAggggAAC7gjoJVcnnHCC+fhjffCQO3HFHUmjRo1M7969456W+RwSGDZsmFmzRk80KBYU2xFIRkAvG9TLB5OZvaxZh0VRtLasPbI9WC9pa1aAQAs/NxTY7tumpRLwddIPkP6Z9Hytksv8PpHJ/lN6sXaMDNhGOg2BWAUoYMXKyWQIIIAAAgi4IzBlyhRz5plnmkWLSvll6UZxe/i2a9eupmXLlh5GTsilCCxevNhMmKD3EC5lNGMQSEagY8eOZt99y7nvdSJx6F/oExOZOdxJi10+qGezvR1g+vqbq38WyKudbDtLerlNHx7waZGdGsj246XTEIhVgAJWrJxMhgACCHwtwJ8I2Bb43//9X3PhhReaFStW2A4llfUHDRqUyjosYkfg5ptvzkQh1o4uq5YqMHiw3nO71NGJjZsQRdFXic0e5sTFClgPhZn2uqzmrPsz/x965pkWm/KP2HLLSvnoTunFGpcRFhNie9kCFLDKJmOHlARYBgEEEECgAoFcLmeuvPJK87Of/czo+wqm8G6XE0880bRp08a7uAm4NAH9Pq6t1V/4lzaeUQgkIXDIIYcY/bsmibnLmFMvGxxWxniGfi1QrID18NfDgvyz2A3dD5Csvy+93HZ7CTtwI/cSkBjyrUBJbyhglcTEIAQQQAABBNwXWLlypbnooovMjTfe6H6wMUY4cODAGGdjKtcE7r//fvPGG2+4FhbxZExAz76KIr0XuNXE742iqNgZNVYDdHTxwwvEpZdkPl9gu0eb6gxVi551bvjmwyXy+oz0ctuTskOxyy4PljG7SqchEJsABazYKJkIAQQQQAABewLvvvuuOe2008zkyZPtBWFh5b333tucffbZFlZmybQEhgwZktZSrJN1gTz5t2jRYt0l2Xk2p/nx0DQXC2StXSSPnaTna4/JhpCfDlHs5/2Zkv9y6eW2nOwwRXqxxmWExYTYXpZAsW/osiZjMAIIIIAAAgikK7B69Wrzu9/9zhx88MHmkUceSXdxB1bTJ4LV1NQ4EAkhqEDc/bXXXjN//etf456W+RAoS6B3796mcePGZe2TwOBXZU4tNsgLrQyBQmdf6TQh/x9nPUmwi/RC7Z5CG4tsu63Idt1MAUsV6LEJUMCKjZKJEEAAAQQQqFqgrAn+/ve/myOOOMJcddVVZskSvQqgrN29H9ykSRPTo0cP7/MggfwCQ4cOzcy93PIrsMWmQL169Uy/fv1shrB+7aFRFOlZL+u/5rU0ge8VGRby/a/6SO4HSs/X9PvpvnwbS/j8FRnzkvRCrX2hjWxDoFwBCljlijEeAQQcFyA8BMIXWLhwoenTp4859thjzUsvFfu3Y7gel1xyidluu+3CTTDjmen3+aRJkzKuQPq2BTp37mxatWplO4wvJIBbpdPKF9D7MOXbK+T7X20rSf9SeqGm9/76sNCAErYVu2/B1iXMwRAEShaggFUyVYYGkioCCCCAgLMCU6ZMMQcddJAZPXq0Wbu22L1ZnU2j6sCiKDLcvL1qRqcnuOmmm8zixYudjpHgwhfQm7c7kOW4KIqyd5ptPPCFClhPyBKh3f9KC0ZHSV5688Ad5LVQu7fQxhK3/bHEcQxzWcCj2ChgeXSwCBUBBBBAILsCc+fONaeeeqq54IILzLx587IL8U3mp59++rpC3jdf8hKYwJo1a8ywYcMCy4p0fBM46qijTNu2bW2HrQWWEbaD8HR9vQdUoUvo5saVV5nzNJHx+nS+Svpusq8W5U6UV72/VX95/bX026XrfdK+ktenpXeXXqgtk42l3IRdhhVsenZgwQFsRCBOAQpYcWoyFwIIIIAAAjELrFy50lx33XXrbtL+4IMPxjy7v9MNGjTI3+CJvKjA9OnTzTvvvFN0HAOCEXAyEUf+npkeRRH/MVT2HbKv7NZQer72Qb4NCX+uN2/US/cq6RrzyxLf36TfIV0r/b+S1/Olt5ZeylNNtCiq47XgJbvQEPBHgAKWP8eKSBFAAAEEMiagTxU87LDDzDXXXGOWL6/kKdcmyP8deOCBpkOHDkHmVnlSYe05ZIhe/RJWTmTjl8Auu+xiunTRE1ysx81/DJUfgu8U2VULSEWGBLdZb9zeW7KaLp2GgHcCFLC8O2QEjAACCCCQiIBDky5YsMD07NnTnHjiiebVV/kF6eaHRu99FUXR5h/zdSACL774onn00UcDyYY0fBXQB2U0aNDAdvj6lA7+Y6j8KOildoX2zmIB62oBGS+dhoCXAhSwvDxsBI2AmwJEhQAC1QnkcjkzYcIEo2cYjR8/3ujX1c0Y3t7NmjUzF198cXiJkdG3AkOHDuV7/1sN3tgQaNiw4bonvdpYe7M1h0ZRpGfMbPYxX5Yo8J0i4/RyvCJDgtr8e8nmv6XTEPBWgAKWW4eOaBBAAAEEMipw7733mqOPPtr06NHD6BlYGWUomrb6NG3atOg4Bvgp8Nlnn5nbb9d7EfsZP1GHIXD++eebHXfc0XYy8yWAydJplQsUOwPro8qn9mrPNyXai6T/TDrNLQGiKVOAAlaZYAxHAAEEEEAgLgE9w2ratGnmiCOOMB07djTPPvtsXFMHOU9NTY0ZMGBAkLmR1NcCY8eONcuW6cOxvv6aPxGwIeDIzdvHRlHEfwxFvwHyDqgnWw6Unq8tlA2LpYfctHB1iST4Hem3SV8rnYaA1wIUsLw+fASPAAIIIOCjwJo1a8wdd9xhDj30UPOjH/3IzJ4928c0Uo/5zDPPNPvss0/q67JgOgKrVq0yI0aMSGcxVtkgwLtNBNq3b28OP/zwTT6z8MVqWZP/GAShira77NtQer42L98Gzz7XIufHEvM/pf9d+gzpU6SvL1zdIu/1+0leaAj4L0ABy/9jSAYIIIAAAp4IaOHq1ltvNW3atDF6ico//vEPTyJ3I8wrrrjCjUA2i4Iv4xH44x//aD78MIv3VI7Hj1niEXDk7Ku7oyjK2v2Z4jmAG2bRok6hws32G4am/m6YrNi4SL9fthdrN8oAnWdXedWzrI6R1zOkXyCdwpUg0MIT2Cq8lMgIAQQQQMAzgeDD1TNL9ObsBx10kOnWrRtPFqzgiH/3u99d91TGCnZlF08EhgwZ4kmkhBmqwJ577mk6derkQnpDXQjC8xiWS/xvSM/XWsqGRtJtNC2s6ZlThXpvCUwvc5SXvE1/q3Ns3q1sQCBAAQpYAR5UUsqiADkjgICLAsuXLzejRo0yBxxwwLqbs7/11lsuhulFTI6cFeGFlY9BPv300+bvf9erX3yMnphDEejfv7+pV09vnWQ1o9lRFM2yGkE4i79YIJVItrWS7mrTM/C0QFUovhrZeJP0raXTEMiEAAWs9YeZVwQQQAABBGIS0MJVbW3tusJV3759zTvvvBPTzNmcpkWLFubCCy/MZvIZyXroUE44ycihdjbNJk2amMsuu8yF+DgVMb6j8FKRqfQ+WUWGWN08UVb/s/RC7UDZ+FvptHIFGO+lAAUsLw8bQSOAAAIIuCiwZMkSc+ONN5q9997b6BlD77//vothehdT7969TePGepsP70In4BIEPv74Y/OHP/yhhJEMQSA5Ab28u3nz5sktUNrMemPxO0oban+UBxH4XsBS4j7yx+fSC7VBsrGddBoCwQtQwAr+EJMgAggggEDSAosWLTK//e1v1z0h78orrzSffPKJ4X/xCOjlPP369YtnMmZxUmDkyJFm5cqVTsaWcFBM74hAFEXrfungQDhjoiha4UAcoYRQ6BJCzdH1M7A0xo/kj4HSCzX9mX68DGginYZA0AL6zR50giSHAAIIIIBAUgJauLruuuvMvvvua/7jP/7DfPrpp0ktldl5O3fubFq1ynebksyyBJP4ihUrzOjRo4PJh0T8FDjttNNM69atbQe/SgIYKZ0Wn4A+1nR+gel8+T+XyZLD3dILtf1k4/XSaQgELUABK+jDS3IIIIBAEQE2Vyzw+eefrzvj6pprrjELFiyoeB52LCygl2IWHsFWnwWmTJlC4dfnAxhI7I78PfOHKIo+DoTUpTQKXUao949yKdZCseipyIWKcbpvf/njROlptl3TXIy1EKCAxfcAAlUKsDsCCGRTYNKkSUaLWNnMPp2sjzzySHPsscemsxirWBHg5u1W2Fl0IwF9SmyHDh02+sTaW27engx9oQLW92XJ+tJ9aHp/NC1QFYpVn6x4kwzYRnpa7by0FmIdBFTAhQKWxkFHAAEEEEDAK4GxY8d6Fa+PwTpyVoSPdF7E/Nhjj5nZs2d7EStBhiswcOBAs9VW1n8k+nsURU+Hq2w1s0KujSWyw6X70u6UQLXLS962t2y5QXpa7cdFFqrrL/kiu7AZgfwC1v+2zh8aWxBAAAEEEHBT4PHHHzevvPKKm8EFEtXOO+9sunTpEkg2pFGXAGdf1aXCZ2kKNGvWzFxyySVpLplvrdp8G+r+nE/LEHiyyNj2Rba7tlnPwip2w83eEvSp0pNu35UFWksv1P5UaCPbEChXgAJWuWKMRwABBBDIvICeOZJ5hIQB+vTpYxo2bJjwKkxvS+C9994zf/rTn2wtbwwrIyACPXr0ME2bNpV3Vps+Ze4uqxGEvfg7kp7ezF1e6mzH1fmpux/qfbD6FglPLyUcJ2OaSU+yFTv7aq0sPk06DYHYBChgxUbJRAgggAACWRHo27evadmyZVbSrTPPJD/UwtXll1+e5BLMbVlg+PDhZvXq1ZajYPksC9TU1JgBAwa4QDAqiqKVLgQScAyFzsLSGy369jPx3XKs9MmE8pK37SFbkr6UsFgB6wmJ4RPpNARiE/DtP9bYEmciBBBAwLIAy3sssN1225lrr73W4wzcDl0vHdRLCN2OkugqFVi2bJkZN05PDqh0BvZDoHqBjh07rnuSbPUzVTXDCtl7tHRasgJaSMm3QgvZUOwyOBniXNPqa7Hi0GUS9Q+lJ9HayKQHSS/UOM22kA7bKhKggFURGzu5IUAUCCCAgD2BXr16mV/84hdm7731fqn24ghxZW7eHuJR3ZDTLbfcwhM8N3DwzpLA4MGDLa28ybJToigqdj+jTXbgi4oEChWwdMJ2+odn/QuJV+91JS8F2xjZ2lx63K3Y2Ve63lT9g45AfALGUMCKU5O5EEAAAQQyI1CvXr11Z2HNmTPHPPHEE0YveWvePIl/I2aGdF2ixx57rDnyyCPXveeP8ARyuZypreV+1eEdWb8yatOmCEwnCwAAEABJREFUjTnxxBNdCHqoC0FkIIbnJcdl0vM13+6DtT6PP8ubidILtd1k4/9J/7rF92exAtYLstRc6TQEYhWggBUrJ5MhgAACCGRNQH57bo455hgzatQo89lnnxm9PIq+rGKHhx56KGvfQpnKV/97efbZZyv+/uC/rcr/28Jug51+D1b6H16M+z0u/z3MjnE+psovoPcYezb/ZnOmbNtWuo/tpxJ0oZvUy2ZzifxxtvS4mnodWGQyzr4qAsTmygQoYFXmxl4IIIAAAghsIaA3BW7UqJGhV25Qv379LVz5ICgB/vvg7wjr3wOO/D3DqYjp/tU2q8By28m2PtJ9bHopod7rqljso2TA9tKrbQ1lgt9LL9b0RvPFxrAdgbIFKGCVTcYOCCCAAAII2BRgbQQQQAABzwXel/g5Q0UQUmy3y1qFHn16hWxvJN3HNkOCHi+9UNtFNsZRNNUzvvaTuQq1x2Tjy9JpCMQuQAErdlImRAAB5wUIEAEEEEAAAQQQsCcwMoqiVfaWz+TKL0nWI6Xna1rguTjfRg8+18KSFkYLhXqhbOwsvdKm99P69yI7r5Ht+oREeaEhEL8ABaz4TTMxI0kigAACCCCAAAIIIIBA2QJ6M3F9MlzZO7JD1QK/kBkKPfXx57K9RrqP7UsJuqf0nPRCbYRs3EF6Je1/ZKem0gu1YbJRi4XyQgtJwJVcKGC5ciSIAwEEEEAAAQQQQAABBEIXmBxF0YLQk3Q0v0US11XS8zW9NO68fBur/DyN3f8qixQrju4kYwqdiSab62zHyqcXSC/UPpGNv5ZOQyAxAQpYidEyMQIIIIAAAggggAACCMQjEMwsQ4PJxM9EbpGwH5eer/2bbIik+9qulMDfkV6onSsbu0gvtelZaXr/rGIu/yoTLpROQyAxAQpYidEyMQIIIIAAAggg4JAAoSCAgG2Bh6Mo4vIqu0dBL7HTezTlu6H79yQ8PYuoWLFGhjnZFktUpVxKOFzG6dlY8lK0XScjDpNeqGlRcFKhAWxDIA4BClhxKDIHAggggEAmBEgSAQQQQACBKgQ4+6oKvBh3fVHmKnQZ3S9l+0TpDaVX2u6WHfVsrrr6PbItyfY3mbyb9LrWXv/ZDbJ9f+nF2m9lgJ5ZJS95m964vb9s1eKgvNAQSE6AAlZytsyMAAJbCvAJAggggAACCCCQRQG9rOvPWUzc0ZyL3dBdC0B6T6kWFcb/F9nvv/P0mfJ50u02WSDf+us/17OmZFje9v9ky9XSizU9m4szC4spsT0WAQpYsTCmOQlrIYAAAggggAACCCCAgGcCw6MoynfZmmepBBGu3tD9iiKZtJPtT0jfV3rWmp559R8lJP2WjPmVdFpiAky8sQAFrI01eI8AAggggAACCCCAAAIIxCuwRKa7STrNhkD+NW+XTVqokZe87QDZ8nfp+hQ+eclEK/XMq6dFQ124cbtA0NIRoICVjjOrIIAAAggggAACCCDgpQBBVy1waxRFX1Q9CxMkIXCNTKqFLHnJ21rKlgel/0y6PpFPXoJsmtsQyayUM6/0Pl4nydhPpdMQSE2AAlZq1CyEAAIIIIAAAhkVIG0EEMiugN7Ympu3u3v89fhcKuE9Jr1QayQb9cbns+T1UOmhtW0koanSB0kv1kbLgHOk65mF8kJDID0BCljpWbMSAggggEDFAuyIAAIIIICAlwIPRlH0qpeRZyfoFZKqFmRel9di7fsyQC+du1Zeq3lKoezuTGslkWhh7ix5LdS02Kc3v+8jg7ifmyDQ0heggJW+OSsiYEeAVRFAAAEEEEAAAQTSFuDsq7TFK1tvgezWUfp86cVaAxmghZzZ8tpWus9NC3LPSgJtpBdqK2XjJdL1/ljyQkPAjgAFrDLcGYoAAggggAACCCCAAAIIlCigT2i7r8SxDLMvoMfrbAljmfRS2ndkkF56+Ht5bSLdt/YTCfgh6TtJL9S+lI1nSp8kPVONZN0ToIDl3jEhIgQQQAABBBBAAAEEEPBfYHgURWv9T6PiDHzc8UkJ+lzpesaRvBRt+vP0YBmlZ2N9T159aE0lyDHSp0jfWnqhppcNXiQD9Cb28kJDwK6A/gdnNwJWRwABBBBAAAEEEEAAgToE+MhjgcUS+3jpNP8E7peQu0lfI73UdoAM/Lt0vQl6JK+utvYS2PPSe0kvpf2PDPqzdBoCTghQwHLiMBAEAggggAACCCQiwKQIIICAHYGboyjSS6/srM6q1QrcKRPozcr1DCR5W1LTm7oPkZH6NL/t5dWlpk9R/G8J6G/S95VeSntUBl0jnYaAMwIUsJw5FASCAAIIuClAVAgggAACCCBQloAWPWrL2oPBLgqMk6B+Lr3c1kl2eFF6O+kutMMkCD077Cp5rZFeSvtEBuk9snjaoEDQ3BGggOXOsSCScAXIDAEEEEAAAQQQQCA7AjOiKHojO+kGnemNkt110sttrWQHvUG6nvWkN3uXL1Nvelmjxq7Fq0PLWF0vnbxAxmsRS15oCLgj4EkBqyww/Q9uluxBNwYDDPge4HuA7wG+B/ge4HuA7wG+B/geSPd74HfyswgtHAG9jG5oBeno2U561tMrsu+b0vV+UsfJa5I/g+vlgf8mazwr/XXp/y69gfRymub7cDk7xD+WGRGoWyDJ/3jqXjHhT+W3HYulH0ePMIgw4L8Dvgf4HuB7gO8Bvgf4HuB7gO+B1L8H9MybhH/qKTI9m+MWuEImvFl6pW0/2VEvR3xMXj+WPlr6mdLLLS7JLlu0jYtWb8nW/5J+hPRK2n2ykxba5IWGgHsCwRWw3CMmIgQQQAABBBBAAAHfBIgXAQQQ2EhA72t2mXx9nnQtQslLxW1H2bO39Huk69Mql8lrNb3aopUsb56TP7pLP1f6Wuk0BJwUoIDl5GEhKAQQQAABBLwXIAEEEEAAAQRCEtBb1fxREmov/Wjp+qTCam9yXl/m0ScEVtNlioraV7KXngmmZ2sdKe8nSl8unYaAswIUsJw9NASGAAIIIIAAAggggAACCCDgoMAzEpM+pU8vDfy9vNdikLx40fSeXIMk0j2l95E+WzoNAS8EKGB5cZgIsmIBdkQAAQQQQAABBBBAAAEEkhF4V6b9qfTdpevN09+TVxebXqI4SQJrJ/0Q6bXSv5BOQ8ArgaIFLK+yIVgEEEAAAQQQQAABBBBAAAEE0hVYJMv9t/S9pOvlePokyrflvc2m97LS+3Xpvbt2kUAulv649IKNjQi4LEABy+WjQ2wIIIAAAggggAACCCDgkwCxZltAb/auN0S/Shj06YA2illvytq/kK6XN+r9um6S91pgkxcaAn4LUMDy+/gRPQIIIIAAAgggEJgA6SCAAAJBCOQrZr2fQHbzZc4R0o+VfoD0/yfd9hlgEgINgXgFKGDF68lsCCCAAAII2BcgAgQQQAABBBBwSWDjYpZeZniYBHeW9J7Sr5aulxzqParuk/d6BteH8rpCul4GqPeqek3ez5KuT0EcJa96htXl8voj6T+Qvqv0/tKfkE5DIFgBCljBHloSQwCBagTYFwEEEEAAAQQQQACBBAS0KPWCzHuP9PHSr5eulxzqParOlPd62WEreW0svYH07aW3ln6c9POk95WuZ1iNkddp0p+Svko6DYHgBShgBX+IrSXIwggggAACCCCAAAIIIIAAApUJaKFrTWW7shcCqQuksiAFrFSYWQQBBBBAAAEEEEAAAQQQQACBfAJ8jgACxQQoYBUTYjsCCCCAAAIIIIAAAgi4L0CECCCAAAJBC1DACvrwkhwCCCCAAAIIIFC6ACMRQAABBBBAAAFXBShguXpkiAsBBBBAwEcBYkYAAQQQQAABBBBAAIEEBChgJYDKlAggUI0A+yKAAAIIIIAAAggggAACCCCwqQAFrE09wviKLBBAAAEEEEAAAQQQQAABBBBAIHyBDGVIAStDB5tUEUAAAQQQQAABBBBAAAEENhXgKwQQ8EOAApYfx4koEUAAAQQQQAABBBBwVYC4EEAAAQQQSFyAAlbixCyAAAIIIIAAAggUE2A7AggggAACCCCAQCEBCliFdNiGAAIIIOCPAJEigAACCCCAAAIIIIBAsAIUsII9tCSGQPkC7IEAAggggAACCCCAAAIIIICAiwIUsOI9KsyGAAIIIIAAAggggAACCCCAAALhC5BhygIUsFIGZzkEEEAAAQQQQAABBBBAAAEVoCOAAAKlC1DAKt2KkQgggAACCCCAAAIIuCVANAgggAACCGREgAJWRg40aSKAAAIIIIBA3QJ8igACCCCAAAIIIOC+AAUs948RESKAAAKuCxAfAggggAACCCCAAAIIIJCoAAWsRHmZHIFSBRiHAAIIIIAAAggggAACCCCAAAL5BMIpYOXLkM8RQAABBBBAAAEEEEAAAQQQQCAcATLJpAAFrEwedpJGAAEEEEAAAQQQQACBLAuQOwIIIOCbAAUs344Y8SKAAAIIIIAAAgi4IEAMCCCAAAIIIJCiAAWsFLFZCgEEEEAAAQQ2FuA9AggggAACCCCAAAKlCVDAKs2JUQgggICbAkSFAAIIIIAAAggggAACCGRAgAJWBg4yKRYWYCsCCCCAAAIIIIAAAggggAACCLgtEEcBy+0MiQ4BBBBAAAEEEEAAAQQQQAABBOIQYA4ErAlQwLJGz8IIIIAAAggggAACCCCQPQEyRgABBBCoRIACViVq7IMAAggggAACCCBgT4CVEUAAAQQQQCBzAhSwMnfISRgBBBBAAAFjMEAAAQQQQAABBBBAwCcBClg+HS1iRQABlwSIBQEEEEAAAQQQQAABBBBAICUBClgpQbNMXQJ8hgACCCCAAAIIIIAAAggggAAC4QtUnyEFrOoNmQEBBBBAAAEEEEAAAQQQQACBZAWYHYGMC1DAyvg3AOkjgAACCCCAAAIIIJAVAfJEAAEEEPBXgAKWv8eOyBFAAAEEEEAAgbQFWA8BBBBAAAEEELAiQAHLCjuLIoAAAghkV4DMEUAAAQQQQAABBBBAoFwBCljlijEeAQTsCxABAggggAACCCCAAAIIIIBApgQoYGXqcG9IlncIIIAAAggggAACCCCAAAIIIBC+QCgZUsAK5UiSBwIIIIAAAggggAACCCCAQBICzIkAAg4IUMBy4CAQAgIIIIAAAggggAACYQuQHQIIIIAAAtUJUMCqzo+9EUAAAQQQQACBdARYBQEEEEAAAQQQyLAABawMH3xSRwABBLImQL4IIIAAAggggAACCCDgpwAFLD+PG1EjYEuAdRFAAAEEEEAAAQQQQAABBBBIXYACVurkLIgAAggggAACCCCAAAIIIIAAAuELkGGcAhSw4tRkLgQQQAABBBBAAAEEEEAAgfgEmAkBBBD4RoAC1jcQvCCAAAIIIIAAAgggEKIAOSGAAAIIIBCCAAWsEI4iOSCAAAIIIIBAkgLMjQACCCCAAAIIIGBZgAKW5QPA8ggggEA2BMgSAQQQQAABBBBAAAEEECk8EgUAABAASURBVKhcgAJW5XbsiUC6AqyGAAIIIIAAAggggAACCCCAQEYFMlXAyugxJm0EEEAAAQQQQAABBBBAAAEEMiVAsuEJUMAK75iSEQIIIIAAAggggAACCCBQrQD7I4AAAk4JUMBy6nAQDAIIIIAAAggggEA4AmSCAAIIIIAAAnEJUMCKS5J5EEAAAQQQQCB+AWZEAAEEEEAAAQQQQEAEKGAJAg0BBBAIWYDcEEAAAQQQQAABBBBAAAHfBShg+X4EiT8NAdZAAAEEEEAAAQQQQAABBBBAAAGLAikVsCxmyNIIIIAAAggggAACCCCAAAIIIJCSAMsgkIwABaxkXJkVAQQQQAABBBBAAAEEEKhMgL0QQAABBLYQoIC1BQkfIIAAAggggAACCPguQPwIIIAAAgggEJYABaywjifZIIAAAgggEJcA8yCAAAIIIIAAAggg4IwABSxnDgWBIIBAeAJkhAACCCCAAAIIIIAAAgggEIcABaw4FJkjOQFmRgABBBBAAAEEEEAAAQQQQACB8AWKZEgBqwgQmxFAAAEEEEAAAQQQQAABBBDwQYAYEQhZgAJWyEeX3BBAAAEEEEAAAQQQQKAcAcYigAACCDgqQAHL0QNDWAgggAACCCCAgJ8CRI0AAggggAACCMQvQAErflNmRAABBBBAoDoB9kYAAQQQQAABBBBAAIFNBChgbcLBFwggEIoAeSCAAAIIIIAAAggggAACCIQjQAErnGMZdybMhwACCCCAAAIIIIAAAggggAAC4Qt4kSEFLC8OE0EigAACCCCAAAIIIIAAAgi4K0BkCCCQtAAFrKSFmR8BBBBAAAEEEEAAAQSKCzACAQQQQACBAgIUsArgsAkBBBBAAAEEEPBJgFgRQAABBBBAAIFQBShghXpkyQsBBBBAoBIB9kEAAQQQQAABBBBAAAEHBShgOXhQCAkBvwWIHgEEEEAAAQQQQAABBBBAAIF4BShgxesZz2zMggACCCCAAAIIIIAAAggggAAC4QuQYckCFLBKpmIgAggggAACCCCAAAIIIICAawLEgwAC2RCggJWN40yWCCCAAAIIIIAAAgjkE+BzBBBAAAEEnBeggOX8ISJABBBAAAEEEHBfgAgRQAABBBBAAAEEkhSggJWkLnMjgAACCJQuwEgEEEAAAQQQQAABBBBAII8ABaw8MHyMgI8CxIwAAggggAACCCCAAAIIIIBAiAIUsDY9qnyFAAIIIIAAAggggAACCCCAAALhC5ChZwIUsDw7YISLAAIIIIAAAggggAACCLghQBQIIIBAegIUsNKzZiUEEEAAAQQQQAABBDYV4CsEEEAAAQQQKEmAAlZJTAxCAAEEEEAAAVcFiAsBBBBAAAEEEEAgfAEKWOEfYzJEAAEEigmwHQEEEEAAAQQQQAABBBBwWoACltOHh+D8ESBSBBBAAAEEEEAAAQQQQAABBBBISsCdAlZSGTIvAggggAACCCCAAAIIIIAAAgi4I0AkCFQgQAGrAjR2QQABBBBAAAEEEEAAAQRsCrA2AgggkDUBClhZO+LkiwACCCCAAAIIIKACdAQQQAABBBDwSIAClkcHi1ARQAABBBBwS4BoEEAAAQQQQAABBBBIR4ACVjrOrIIAAgjULcCnCCCAAAIIIIAAAggggAACRQUoYBUlYoDrAsSHAAIIIIAAAggggAACCCCAAAJhC2gBK+wMyQ4BBBBAAAEEEEAAAQQQQAABBFSAjoC3AhSwvD10BI4AAggggAACCCCAAALpC7AiAggggIANAQpYNtRZEwEEEEAAAQQQyLIAuSOAAAIIIIAAAmUKUMAqE4zhCCCAAAIIuCBADAgggAACCCCAAAIIZEmAAlaWjja5IoDAxgK8RwABBBBAAAEEEEAAAQQQ8ESAApYnB8rNMIkKAQQQQAABBBBAAAEEEEAAAQTCF7CfIQUs+8eACBBAAAEEEEAAAQQQQAABBEIXID8EEKhKgAJWVXzsjAACCCCAAAIIIIAAAmkJsA4CCCCAQHYFKGBl99iTOQIIIIAAAghkT4CMEUAAAQQQQAABLwUoYHl52AgaAQQQQMCeACsjgAACCCCAAAIIIIBA2gIUsNIWZz0EEDAGAwQQQAABBBBAAAEEEEAAAQTKEKCAVQaWS0OJBQEEEEAAAQQQQAABBBBAAAEEwhcgw68FKGB97cCfCCCAAAIIIIAAAggggAACYQqQFQIIBCBAASuAg0gKCCCAAAIIIIAAAggkK8DsCCCAAAII2BWggGXXn9URQAABBBBAICsC5IkAAggggAACCCBQsQAFrIrp2BEBBBBAIG0B1kMAAQQQQAABBBBAAIFsClDAyuZxJ+vsCpA5AggggAACCCCAAAIIIIAAAt4JUMAq+5CxAwIIIIAAAggggAACCCCAAAIIhC9Ahi4JUMBy6WgQCwIIIIAAAggggAACCCAQkgC5IIAAAjEJUMCKCZJpEEAAAQQQQAABBBBIQoA5EUAAAQQQQMAYClh8FyCAAAIIIIBA6ALkhwACCCCAAAIIIOC5AAUszw8g4SOAAALpCLAKAggggAACCCCAAAIIIGBPgAKWPXtWzpoA+SKAAAIIIIAAAggggAACCCCAQEUCXhWwKsqQnRBAAAEEEEAAAQQQQAABBBBAwCsBgkVgcwEKWJuL8DUCCCCAAAIIIIAAAggg4L8AGSCAAAJBCVDACupwkgwCCCCAAAIIIIBAfALMhAACCCCAAAKuCFDAcuVIEAcCCCCAAAIhCpATAggggAACCCCAAAIxCFDAigGRKRBAAIEkBZgbAQQQQAABBBBAAAEEEMi6AAWsrH8HZCN/skQAAQQQQAABBBBAAAEEEEAAAY8FSixgeZwhoSOAAAIIIIAAAggggAACCCCAQIkCDEPATQEKWG4eF6JCAAEEEEAAAQQQQAABXwWIGwEEEEAgdgEKWLGTMiECCCCAAAIIIIBAtQLsjwACCCCAAAIIbCxAAWtjDd4jgAACCCAQjgCZIIAAAggggAACCCAQjAAFrGAOJYkggED8AsyIAAIIIIAAAggggAACCCDgggAFLBeOQsgxkBsCCCCAAAIIIIAAAggggAACCIQvkHCGFLASBmZ6BBBAAAEEEEAAAQQQQAABBEoRYAwCCOQXoICV34YtCCCAAAIIIIAAAggg4JcA0SKAAAIIBCpAASvQA0taCCCAAAIIIIBAZQLshQACCCCAAAIIuCdAAcu9Y0JECCCAAAK+CxA/AggggAACCCCAAAIIxCpAAStWTiZDAIG4BJgHAQQQQAABBBBAAAEEEEAAgfUCFLDWS4T3SkYIIIAAAggggAACCCCAAAIIIBC+QCYypICVicNMkggggAACCCCAAAIIIIAAAvkF2IIAAq4LUMBy/QgRHwIIIIAAAggggAACPggQIwIIIIAAAgkKUMBKEJepEUAAAQQQQACBcgQYiwACCCCAAAIIIFC3AAWsul34FAEEEEDATwGiRgABBBBAAAEEEEAAgQAFKGAFeFBJCYHqBNgbAQQQQAABBBBAAAEEEEAAAbcEKGAlcTyYEwEEEEAAAQQQQAABBBBAAAEEwhcgw9QEKGClRs1CCCCAAAIIIIAAAggggAACmwvwNQIIIFCKAAWsUpQYgwACCCCAAAIIIICAuwJEhgACCCCAQPACFLCCP8QkiAACCCCAAALFBRiBAAIIIIAAAggg4LIABSyXjw6xIYAAAj4JECsCCCCAAAIIIIAAAgggkJAABayEYJkWgUoE2AcBBBBAAAEEEEAAAQQQQAABBLYUCK2AtWWGfIIAAggggAACCCCAAAIIIIAAAqEJkE/GBChgZeyAky4CCCCAAAIIIIAAAggg8LUAfyKAAAL+CFDA8udYESkCCCCAAAIIIICAawLEgwACCCCAAAKpCFDASoWZRRBAAAEEEEAgnwCfI4AAAggggAACCCBQTIACVjEhtiOAAALuCxAhAggggAACCCCAAAIIIBC0AAWsoA8vyZUuwEgEEEAAAQQQQAABBBBAAAEEEHBVIL4ClqsZEhcCCCCAAAIIIIAAAggggAACCMQnwEwIWBCggGUBnSURQAABBBBAAAEEEEAg2wJkjwACCCBQngAFrPK8GI0AAggggAACCCDghgBRIIAAAggggECGBChgZehgkyoCCCCAAAKbCvAVAggggAACCCCAAAJ+CFDA8uM4ESUCCLgqQFwIIIAAAggggAACCCCAAAKJC1DASpyYBYoJsB0BBBBAAAEEEEAAAQQQQAABBMIXqCZDCljV6LEvAggggAACCCCAAAIIIIAAAukJsBICmRWggJXZQ0/iCCCAAAIIIIAAAghkUYCcEUAAAQR8FKCA5eNRI2YEEEAAAQQQQMCmAGsjgAACCCCAAAIpC1DAShmc5RBAAAEEEFABOgIIIIAAAggggAACCJQuQAGrdCtGIoCAWwJEgwACCCCAAAIIIIAAAgggkBEBClgZOdB1p8mnCCCAAAIIIIAAAggggAACCCAQvoD/GVLA8v8YkgECCCCAAAIIIIAAAggggEDSAsyPAAJWBShgWeVncQQQQAABBBBAAAEEsiNApggggAACCFQqQAGrUjn2QwABBBBAAAEE0hdgRQQQQAABBBBAIJMCFLAyedhJGgEEEMiyALkjgAACCCCAAAIIIICAbwIUsHw7YsSLgAsCxIAAAggggAACCCCAAAIIIIBAigIUsFLE3ngp3iOAAAIIIIAAAggggAACCCCAQPgCZBiPAAWseByZBQEEEEAAAQQQQAABBBBAIBkBZkUAAQQMBSy+CRBAAAEEEEAAAQQQCF6ABBFAAAEEEPBbgAKW38eP6BFAAAEEEEAgLQHWQQABBBBAAAEEELAmQAHLGj0LI4AAAtkTIGMEEEAAAQQQQAABBBBAoBIBCliVqLEPAvYEWBkBBBBAAAEEEEAAAQQQQACBzAlksICVuWNMwggggAACCCCAAAIIIIAAAghkUICUQxKggBXS0SQXBBBAAAEEEEAAAQQQQCBOAeZCAAEEHBGggOXIgSAMBBBAAAEEEEAAgTAFyAoBBBBAAAEEqheggFW9ITMggAACCCCAQLICzI4AAggggAACCCCQcQEKWBn/BiB9BBDIigB5IoAAAggggAACCCCAAAL+ClDA8vfYEXnaAqyHAAIIIIAAAggggAACCCCAAAJWBFItYFnJkEURQAABBBBAAAEEEEAAAQQQQCBVARZDIG4BClhxizIfAggggAACCCCAAAIIIFC9ADMggAACCGwkQAFrIwzeIoAAAggggAACCIQkQC4IIIAAAgggEIoABaxQjiR5IIAAAgggkIQAcyKAAAIIIIAAAggg4IAABSwHDgIhIIBA2AJkhwACCCCAAAIIIIAAAgggUJ0ABazq/Ng7HQFWQQABBBBAAAEEEEAAAQQQQACB8AXyZkgBKy8NGxBAAAEEEEAAAQQQQAABBBDwTYB4EQhTgAJWmMeVrBBAAAEEEEAAAQQQQKB5Mck7AAAIuElEQVRSAfZDAAEEEHBOgAKWc4eEgBBAAAEEEEAAAf8FyAABBBBAAAEEEIhTgAJWnJrMhQACCCCAQHwCzIQAAggggAACCCCAAALfCFDA+gaCFwQQCFGAnBBAAAEEEEAAAQQQQAABBEIQoIAVwlFMMgfmRgABBBBAAAEEEEAAAQQQQACB8AUcz5ACluMHiPAQQAABBBBAAAEEEEAAAQT8ECBKBBBIToACVnK2zIwAAggggAACCCCAAALlCTAaAQQQQACBOgUoYNXJwocIIIAAAggggICvAsSNAAIIIIAAAgiEJ0ABK7xjSkYIIIAAAtUKsD8CCCCAAAIIIIAAAgg4JUABy6nDQTAIhCNAJggggAACCCCAAAIIIIAAAgjEJUABKy7J+OdhRgQQQAABBBBAAAEEEEAAAQQQCF+ADEsQoIBVAhJDEEAAAQQQQAABBBBAAAEEXBYgNgQQCF2AAlboR5j8EEAAAQQQQAABBBAoRYAxCCCAAAIIOCxAAcvhg0NoCCCAAAIIIOCXANEigAACCCCAAAIIJCNAASsZV2ZFAAEEEKhMgL0QQAABBBBAAAEEEEAAgS0EKGBtQcIHCPguQPwIIIAAAggggAACCCCAAAIIhCVAAauu48lnCCCAAAIIIIAAAggggAACCCAQvgAZeiNAAcubQ0WgCCCAAAIIIIAAAggggIB7AkSEAAIIpCFAASsNZdZAAAEEEEAAAQQQQCC/AFsQQAABBBBAoIgABawiQGxGAAEEEEAAAR8EiBEBBBBAAAEEEEAgZAEKWCEfXXJDAAEEyhFgLAIIIIAAAggggAACCCDgqAAFLEcPDGH5KUDUCCCAAAIIIIAAAggggAACCCAQv4BrBaz4M2RGBBBAAAEEEEAAAQQQQAABBBBwTYB4EChLgAJWWVwMRgABBBBAAAEEEEAAAQRcESAOBBBAIDsCFLCyc6zJFAEEEEAAAQQQQGBzAb5GAAEEEEAAAS8EKGB5cZgIEgEEEEAAAXcFiAwBBBBAAAEEEEAAgaQFKGAlLcz8CCCAQHEBRiCAAAIIIIAAAggggAACCBQQoIBVAIdNPgkQKwIIIIAAAggggAACCCCAAAIIhCqwoYAVaobkhQACCCCAAAIIIIAAAggggAACGwR4h4CHAhSwPDxohIwAAggggAACCCCAAAJ2BVgdAQQQQCBdAQpY6XqzGgIIIIAAAggggMDXAvyJAAIIIIAAAgiULEABq2QqBiKAAAIIIOCaAPEggAACCCCAAAIIIJANAQpY2TjOZIkAAvkE+BwBBBBAAAEEEEAAAQQQQMB5AQpYzh8i9wMkQgQQQAABBBBAAAEEEEAAAQQQCF/AZoYUsGzqszYCCCCAAAIIIIAAAggggECWBMgVAQQqFKCAVSEcuyGAAAIIIIAAAggggIANAdZEAAEEEMiiAAWsLB51ckYAAQQQQACBbAuQPQIIIIAAAggg4JkABSzPDhjhIoAAAgi4IUAUCCCAAAIIIIAAAgggkJ4ABaz0rFkJAQQ2FeArBBBAAAEEEEAAAQQQQAABBEoSoIBVEpOrg4gLAQQQQAABBBBAAAEEEEAAAQTCFyBDClh8DyCAAAIIIIAAAggggAACCIQvQIYIIOC1AAUsrw8fwSOAAAIIIIAAAgggkJ4AKyGAAAIIIGBLgAKWLXnWRQABBBBAAIEsCpAzAggggAACCCCAQAUCFLAqQGMXBBBAAAGbAqyNAAIIIIAAAggggAACWROggJW1I06+CKgAHQEEEEAAAQQQQAABBBBAAAGPBChgVXiw2A0BBBBAAAEEEEAAAQQQQAABBMIXIEM3BChguXEciAIBBBBAAAEEEEAAAQQQCFWAvBBAAIGqBShgVU3IBAgggAACCCCAAAIIJC3A/AgggAACCGRbgAJWto8/2SOAAAIIIJAdATJFAAEEEEAAAQQQ8FaAApa3h47AEUAAgfQFWBEBBBBAAAEEEEAAAQQQsCFAAcuGOmtmWYDcEUAAAQQQQAABBBBAAAEEEECgTAEPC1hlZshwBBBAAAEEEEAAAQQQQAABBBDwUICQEdggQAFrgwXvEEAAAQQQQAABBBBAAIGwBMgGAQQQCESAAlYgB5I0EEAAAQQQQAABBJIRYFYEEEAAAQQQsC9AAcv+MSACBBBAAAEEQhcgPwQQQAABBBBAAAEEqhKggFUVHzsjgAACaQmwDgIIIIAAAggggAACCCCQXQEKWNk99tnLnIwRQAABBBBAAAEEEEAAAQQQQMBLgbIKWF5mSNAIIIAAAggggAACCCCAAAIIIFCWAIMRcE2AApZrR4R4EEAAAQQQQAABBBBAIAQBckAAAQQQiFGAAlaMmEyFAAIIIIAAAgggEKcAcyGAAAIIIIAAAl8LUMD62oE/EUAAAQQQCFOArBBAAAEEEEAAAQQQCECAAlYAB5EUEEAgWQFmRwABBBBAAAEEEEAAAQQQsCtAAcuuf1ZWJ08EEEAAAQQQQAABBBBAAAEEEAhfILEMKWAlRsvECCCAAAIIIIAAAggggAACCJQrwHgEEKhLgAJWXSp8hgACCCCAAAIIIIAAAv4KEDkCCCCAQHACFLCCO6QkhAACCCCAAAIIVC/ADAgggAACCCCAgEsCFLBcOhrEggACCCAQkgC5IIAAAggggAACCCCAQEwCFLBigmQaBBBIQoA5EUAAAQQQQAABBBBAAAEEEDCGAlbo3wXkhwACCCCAAAIIIIAAAggggAAC4QsEniEFrMAPMOkhgAACCCCAAAIIIIAAAgiUJsAoBBBwV4AClrvHhsgQQAABBBBAAAEEEPBNgHgRQAABBBBIRIACViKsTIoAAggggAACCFQqwH4IIIAAAggggAACmwtQwNpchK8RQAABBPwXIAMEEEAAAQQQQAABBBAISoACVlCHk2QQiE+AmRBAAAEEEEAAAQQQQAABBBBwRYACVnJHgpkRQAABBBBAAAEEEEAAAQQQQCB8ATJMQeD/AwAA///0hahsAAAABklEQVQDANUQanqUDJq6AAAAAElFTkSuQmCC;" parent="1" vertex="1">
          <mxGeometry x="560" y="790" width="60" height="60" as="geometry" />
        </mxCell>
        <mxCell id="EFEDg0LtyCpn1xqtLNVm-11" value="" style="shape=image;verticalLabelPosition=bottom;labelBackgroundColor=default;verticalAlign=top;aspect=fixed;imageAspect=0;image=data:image/png,iVBORw0KGgoAAAANSUhEUgAADwAAAAhwBAMAAABikNZBAAAAIVBMVEVHcEwAAAAAAACkAA/iABXiABUAAADiABUAAADiABUAAAA6+c6uAAAACXRSTlMAn1IWPoEsydVyIwaFAAAgAElEQVR42uzd0UobSxgHcJsFr8+mIGGvTAQRr9YIfR5Nofga8cAh5C08V2Gf8ni0LW3VNurs7OzM73dX6EUzu/Sfb+abLwcHAAAAAAAAAAAAAAAAAAAAAAAAAAAAAAAAAAAAAAAAAAAAAAAAAAAAAAAAAAAAAAAAAAAAAAAAAAAAAAAAAAAAAAAAAMDIfFqtFnVdzzabXfes7WazruvpYnH62WoBwDtd/p+7s+1Dxr4QvU/t7qN4cXpp9QDg9TXvYl7Puve4z+HpQj0MAHtn77eiN4D7GJbCAPB7hyGz9+cUvrK6APB84XufvT3E71cbpTAAPKl8+0ven0NYJQwAD1bzWRfRenpqzQFQ+m676HYKYQBKTt+4pe+vhbAMBkD6ymAAKCF9ZTAAhakWiaTv1wxetJ4JANlbDdF19aeeLH3RAGTtcN50SbIVDUDGxe+sS5gyGIAcVakWvz+Wwa3nBEBWJvNtNwK76YlnBUA2lrNuNNYiGIA8LJpuVNYLzwyAsavGsff8605068kBIH5FMAAUEL8iGIDxOhxz/IpgAFS/IhgAyolfEQzAyOQSv48R7HkCMAqrpsvKzpBoANI3pqlXpmMBkInDDOP3IYKvPFsAklXNu1zpxgIgWRfbLmN3R54wAAmazLqsA7jr1seeMgCJyXj3+Qe3rScNQEqut10RdvahAUjH4WzXFRLA+qEBSMa8K4nRWAAkYdJ0hbk79tQBGFg17wrkUjAAw1o2XZHuDKcEQPmrCAZA+asIBoA+zbvCaYcGIL5J0xVPOzQAyl+DsQDIXjUTvn4oGIDYllvJ+70I1osFQKTy1/azXiwAotN9pRcLgPgubD8/3Yb+6L0AoFe2n83FAiC+Q9vPL21DX3k7AOiL7mfd0ADEZ/tZNzQA0R0avvGnoRyttwSA0Nw+ch8JgPjcPnIfCYD4HP86CAYgOr+94CAYgPgc/zoIBiA+t3/dCAYgvmuR+toEPvLWAPBe2q+0YgEQXXUmTd/itvXuAPB2fnzBjzMAEJ/2Z83QAAyQv9qf39OKJYEBeJMLIWouJQDRuX70bq4jAfBqrh+5jgRAfK4fhbmO5E0C4BVc/3UhGIAB8tf1o3DXkSQwAHtKe/zGZrOZret1/WA9q+//vEn5vpSRHACMNn93m7qeLhZfvlx+/Te2B98Ky+rxj5dfVqvFvK4TzGIJDMA+khp/tVvfB+/nh7Ctqj/9y6vHv/fpPohnWwkMwLjyd5tM9C5O27d/jmq1qGeGYgEgf1+VvZ/DfJxPaaSwBAYg8fzd1dPT0B9qNa+3EhgA+fti+IYqfJ8thbcSGAD5+6v19KTvj7eczyQwAOlZbocrfds4H7EarhCWwAAkVf/uwh/6/t5qvpXAAJRd/27633h+qj1YDpLBEhiAJOrfXf15uM+7HGAvWgIDMHz+1qdDf+ZVLYEBKCt/19M2hY9dxe6LlsAADJe/u/oknY8eeStaAgMwUP7eHbVpffpq3khgAAZwGDF/Uyp+fyyDJTAA0fM3WgG4m14luwjxLib5dUIAoubvJo3Gq5dU0SJYAgNwnzuR8vfuNP21WMVai9Z7B1C8OJmzPj0YQehUB6uZBAYghvMo8XsyngVZRongW28eQNnOxO8TUargf717APK3+LPfJxHcqIEB6NF1/xePTse5MhEi+Mj7B1Cqi/7v/Y51aaqD/i8lffQGApTpQ+/x2455efq/FyyBAYo06Tle0p16ta/DuaGUAARPl37ru/VxO/41aiczCQxA2Pxt9F7t47rX7ymGUgIUp9f8Hffh78+qXvehjcQCKMx5r7vPmW0W9LkP7TowQFFuetx9zvB+68VWAgMQwLXd59fpcx/aZSSAYvR3AfjuJNMla5f9HZr/5Y0EKMOktw3Vac7L1lsR7DISQBl6uwB8l3mQTPoqgl1GAihB1Sh/UyuCXUYCKMC58je9IlgrNED2bpS/KRbB/3gzAfLWTwN0ts3Pz+ipHdplJICs9fMLSLdtSWt4eaYVGoDX6eUXGHIcffV7vQzG0goNkLFGcKT7RebO+wmQqzPdV6HMtUIDsK+LHrafT0pdzOVWIxYAe+mhAWt9Ve5y9rENfewtBcgwMLa2n8MK/5tSuyvvKUB2GtvPoa22GrEA+IMz3c/hhZ9MqRELIDPBG7DKGr4R73uNRiyAvEq10DlxZE0fhT4INhELICehO3Yd//7w3SbwQbCfJgTIyLnj3/F8u/nXkgLk4trxb5+qM9v7ADwj8AHw1Ir+KvBgymMrCpCDsBM4dtp0nxG2ydw8DoAsNJp0I+wyBP2WYx4HQAZutF9FSeCg33P+saAAY/chaINua0FfUjWOgQH4LugB8G1lQX/jzDEwAN802p/juXYMDMCjkAfArqfGTOCdY2CAEQt5A9j0yT1cOAYGIOiQRNeP9vzKE+7M3VBogNE6l79jTmBDoQFGKtyJ5J383T+Bw207GDoGMM4kMH5jEAE3/n3vARijxmHkMCorD1CyYDeQjL8aLoHdRQIYnQ/yd0DB2t/+spYA4xJsBOWttXyDNtRYSiMpAQotweTv21Rn7iIBlCjURCY/v/BmZ+4iAZQn1DQI9e/bhdqFNgMFYEQa+ZtPDex3kQBG40b+5pTAf1tJgHGYyN+sEtgmNMA4BBoDIX+TSWADsQBG4Ub+pvNlKEwCG4gFMAIT109TSuAwF7KPrSRA8v/jN/I3KY1NaIAiBNmAXvv/PrEEtgkNkLiJeivPBD62jgApC7IBLX89FID/2Lub1TiSJADAU9XQ6CgwzKFOfRzqJO1haPw08q3ppzBemEO/xeyAEf2UuzAsjG1ZUv1EVmT2972AmkyRkREZmcU0axSg/3wyjuvaD4rQAG1bowDt2Yf1/X5RhAZo2Rq1TvE3ZGd0UYQGaNhJntVybUIRGqDhRd7XZ4M82hwBNGsQf9uOwD5MCJDSCgXoX41inE+K0ABNWqEA7QMMoX7TIQfQouUFaA9ABxsVoQHa88k1l1vYJDmkB0hmv/iiqQewCszS4gj8bJYAchkdL9Zg+YMczgkAUuncMa0kAi+eqHuDCJDH7uJssRKLrwM/PxhEgDRGF0yrcTJXAM3oHSze0m7pYAwBkhhcQKrI4m9WuQwMkMTR1ZaqLL4y9m9jCNDEen4whmX1dkwALRg1QNemc2YPYDHXVLuBk8vAALVb2tIjmaqxbKFtDqD2XMpKXue+Sd0CYGN7L0DXaeGr0CYOYGOjs8RKdY4OAG53FVfI3NDJ3gmgWgtPEmVRFVcvnN4DVJtEWcK3tR+ULwDqtPBFpYMRrHn+9GEBbGZZDdMLWJvrnCAA3N7y/cUAbu83fVgAFRocAN/4HBo/gC0s+gqhD+rksOxTVr5LCFDd0n1vAHPobKMAKjO6wtKEk4N8gKr0Dg8bMbhKBnAry7bKZSaLzhJspQAK6xwAm0tzCVDcokegHQAnc3KdDKAWR1XLlgyuIgHUYcmxoSeEG5vPJ+MHUMzZE9BteVwwoV8NH0ApS64gecE/pdFVJIC2V2s9Ozkt6aqzpwIopJMtqWq4igRQ3uAGUoOO+toB2k2ArdRt7qukwAAlXNxYadKCu0jPD4YPINzRDaRGPXqNA6DNPEm3bHKj2gZAXmd1ymbtLrrrANImwDp1Gja/v84DowDB5lcpvxi8/E7OFwBymv9cgyewarDgQSwpMEDOBNj63PgOSwoMEKjTpNO4h5MzfoCEBgVoc+yZM4CKEuCDwatFLwUGaCc5UoCuyEkKDNBKAmxlvo19lhQYIMT8d5IOBq8mvZN+gFTuFKBvxOwitG8yAGRKgOVF1U313CK0574BAhwVoG9GLwUGqD8BVoCu0EkKDFB7AqwAXaP9IAUGSLIiX1xNuSWdFBggh4+e6L8toxMHgBQJ8NyE6MnY1Wn2mb8UGCBDAnxv6Gr1KAUGqDcBVoCu2NwitKIHwOYJ8PPB0NXrdykwQK0JsDspVTtKgQE2dvYRpJs08zLwVyMHsG0CfDB0deu1vgPUmAB/MXKV252dAgPUlwDLgxqY+oupB9jOzBboD0aufo9SYIDaEmAdWE0YpMAAlSXAByPXgl4KDLCRmW8CW4EbMe/LwD6KBLDY0QJsA+YNFoBa1t97I9eKzg4MoJ4EWAdWQwYpMEA1CfDByLWjlwIDlHfnMWDOUmCAOhJgyY//guv1T/8FAPPNa8DxBlZjHjXiARQ26MDifymw/wOAGhLgg4FrTS8FBsifAP/HuLWXAo9SYID0CfCTgWvPXgoMUNCstMcj0E06KoYAFNO7gsT/zbuKdDBwAKUS4Hvj1qZOCgxQyF7fDf8wSIEByjhbcPmHWScSHiUFKJMAKzk2bM6RxPOTcQOY6KMrSCzfkvkkA8BEs7peFRybdtYVDxDvqN7IGpsyKTDANEPmtbYX6avZlemLB5hkzq3PYh+A7aXa39gfMm/L7k0QQCMr7e4iAH8bgC+lIvCjFBggOMfMvNAODpu/D8DFWp0Gd8MBQo2JE+Czbq8fAnCx3U/ncjhAtgS41DLbabd+IQAX+wjV6HY4QGySmbXQ2Lvv9GIALlWA6F0PBwhc0PMusn9fRRWAfwzApXZAc1LgB3ME8C7HvAnw4MWPnwXgQo1Ye49xAIS5pE2AR09u/TQAl2rEOruJBBBkRqdroYh4583LVwJwoT64vcc4AILMuOtZpge38+j0qwG4UKn3KAUGCDGjz7XM8ePOVx/eCMBlMs39xWMcABHGrE02gwD8VkQssxM6eowDIGI1z5oAf/Tdw7dT0jK13ovHOABC41yqBLjz4eF3BOAyp/EzUuC/TBPA6tlNkQT4m4NHAfjnY3N/w/8kADWbcQfpQ4nfNVwF4Dybk85NJIDQQJfnismnqwD8vgBcZD52g5tIAOvqc6Y2/VUAfm8Avv6aMwU+mCiAV4wpM5vvb54KwK8OT4FQNyMFdhMJ4LWlPGcCPF4F4GT7k85NJIA1HVMmwKerADwlABdJNoect9UAKnXJmAD3VwF4WgAucRt4egr8bKYA1ltUCyTALzw9LAC/NUKHjCnwvakCqGlNHa8CcMYtSucmEsBa+oxL6ukqAE8PwCWOgQc3kQBWck6YAL+4KRCA3wzABY6Bp6fAX80VwEt2CRPgl789KwC/Y5Di083JKbAHoQFedJcwAX75YRABOMUuZXoK/NlkAayR0MQnwJ+uAvDcABx/DLwbtGEBrKDPlwD/7CcJwO8JwPGPQnfasABWMKZLZ/aDALwkAMeHu8kPt3gQGuDHVTzf04I/3RIIwO8LwH8+BP/lyW0DZg7gB8d0La2PlvGFATg+4byk27UBVGfItpT2FwF4aQC+fsi2bdOGBfCdLl0CPChkLg/Az4fYP727pOvcA6jMmC0BPjlJXCEAh2ecR21YAMvW8GwJcKeVZ53JC36ScqcNC6BsIhP8rO8bpU2L+Pt3T4fYP37WhgWwxJAsjxllUWsF4OBaxV4bFsACXbIE+K3fIwBPiIHBp65nbVgAUQln8brm3jnimsN1v+lf14YFUM8aOmzcAdbY9AXvV0ZtWABz3eVKgN/sCAt/YrEuu233S5O/4vHZlAG8M+Msu6Dv9fFMDMCXTTuPd6M2LIBCKcx96M8ZnSJO9GYAjq3Zd7kKKAD1OKfKYB618axfwfhj479ftIceoBaT3/MNTYD7iwC8fgCMfRN6agqsiQ5g1vIZmwAPLrJEjFlo31quLRxAS8t3uY6e41UADpnB0CL0nTYsgOn6TPXD/ioAB22hDplS4CeTBvDLx0wdNIMAHDVqoUXoqX18f5k0gF8yJS8njxnWuW2Z+pbas0kDmNqCFbmM91cBOC4Ah7Y+jdqwAIJXzkPcT9kNAnBkAI58hLlPtI8DqMIuUf/qyeodGoCvXxL8Bl9kAPjbXZ7SYS99ig5+gbM39Sjjs2kDrN1JEuDdIABHT2Jg3rnL858EUIOpR3eBj3CcHCDG76ICR+6Yp5kAoAITLwEHPsLR6+ApUca4j0uBJ95ncxUYuG0TF83ARzgGAbjE2AVuoSY+xuEqMHDTpnbOPIX9kkkFTAF4/uYlrhN6n6efDyC9iZeA4wJffxWAywTgwLg3pimnAGS3S5OzDAJwqdGLexN6aj3lwcwBN2viihl3c+TRM0rlti9/JPkdatCAhXvztxP2FwG44Dweon7HXZYNHUByE7tm4hpop75HLQAvCsBhgW/iTSTPUQI365ikaWbq2aEAvCwAxz2nck7yOwDaWrej8pWpjxgKwEsDcFjquVeDBniHPknUO10F4LIBOGwAd2OS02iA1M45elb7qwBcOgCHTWaX5FQDILVLjnLhKACXD8Bhl4Gn/RTPUQI3qcvRMNNdBeDyATjsMvAxRyYOkNk5Rd/O1G/oCMDrBOCo49e9mQRYN/JFrZSnqwC8SQCOOlKYuK97MHvAzelSJEz9VQDeJgBHVX//pQYN8LoxRb40CsBbBeCo5NN3NQBeNfFDSJ9TpOFW7RUDcFQf1sQHoR/+y94d7DhyHGkAVpEAQejUgIE98NRnnlo+Nfpp6JvAp+jVADrwKTQeYDDgUy7WtrxrSaOpICMzsorf9wDNQmch/4rIrCzDBzyYaYRqaXsQwHUB3GpZ4aIHDfAnYr3fRgcm/HgVwIUB/N9truZsLAG+bjdCrbS5CuDKAG5UfQaH9WT8gIeyH2EL1lEA1wZwo/OwDiNsLwBYxZTdplKargK4NoAbHW82jfB0BzCm3QhbsA4CuPw/eWpxOcEzXk4GEHggrwNswfrhKoBX+ihzHqAMB1jDjP08QJkkgJsEcJux3ehBA4w7Qf54FcADBPDHAS7oZASBh/FavwVrdxXAIwRwm9Gd9KAB7p+w22zBOgrgMQK4yatIu4seNMAf2NRvwdpcBfAYAdym/jzXL0QDDOitfnY8COBR/ptfTuUPWHrQgPm6V39wugrgYR5nflrnPQYwnlh18j5eYgjg3H9nix7HXg8a4He+L29Q7q8CeOXPM1s9aID7pusmk/NFAI8UwE0K0KMeNMBvxDrQTw2u4PUqgIcK4Bb5N+lBA/xGaA/0lwYXsLsK4LECuMlj1kUPGuCO2fpTgws4C+DRArhFCfymBw3wH2Id6FP1BQjgHgF8/Ut1o+PZKAKr91pdmBwF8HgB3OK80YMeNMDN0+LTkAWwAE4P4BYBOOlBA9ycfw3qoqMAHjGAG5TA2+rFDoChhM7AaPAdhowCWADnB/D15/zLCu22ezeMgLm6aQf6IIDH/Kc2OPJMDxrg/+yK58TpKoAHfapp0O646EED/CrUgW7wEvBBAI8awA0S8E0PGuBXx9oZOacAFsBNAji/BN4ZVIB/2RZ3oA8CeNwAbnAYRujCXgwksGJTbU8wqQAWwG0C+Kf0CwuteDwZSGDFIh3oBttiDwJ45ADOL4G3RhVghPkwqwA2VTcK4PwSOLTnwEAC6zXVdgQPAnjsAM4vgSc9aIBoPZJ/NmFaASyAWwVw+kbo7aXy1wGGUTsbHgTw6AGcXwJHjqP8YiSBtartB+YVwAK4WQB/Lh31Z0MJrFTkYKL8l4APAnj8AM7PwMi1fTKUgHk6fy5MLIAFcLsATi+Bz6VPfQBD2CymEhLAdf/b51XddQBDeK2sRTILYAHcMIA/V17cB2MJPPw0/aHyxwVw5T/3tKbnPoAR7BbTiBTAlQH8c+XQnwwmsEL7ykrkKICXEsDpIRi5uneDCazQsXAezC2ABXDTAM4ugfdGFnhwlUXQUQAvJ4CzDyHdFf42wACmwoBLLoAFcNMATt+BF3n8ejKawOqcCzvQZwG8pADOLkMjPWgfZADWJ/IhhuQJeHcVwEsK4OwSONSDNprA2mwK8+0sgJcVwNmb4CM96GfDCazMW906XOibsAJ4gADOvgOmwgVogCXN0S+5P/16FcALC+DkEnjrMCzgce3q4i2/ABbArQM4uwSO9KBPxhNYlWkZ/UcBPEgA/301tx9AsWNdB/oggJcXwMl7oXYGF3hYl0UUP+botT7jBB4AvYgErEphC/AggJcYwMlLsVNZ8Q1Q662sA725CuBFBnDuJxki+6A/GVDgMWfout6jAB4pgJPPowzcB15EAlZkV9aB3l0F8DIDOPlEjKms+w1QaV/WgT4L4KUGcG4hGnkSezeiwGocq7KtwSEcArhTACf3Qo6GF3hEl6pZ9/UqgBcbwLklcKAH7UUkYDXq1t8OAni5AZz7PlDdPgSAOm9V0TZdBfCCAzj33xzoQfsiEvCA8/N71Zz7a/dRALca4BuW41PbIfuq5jdAmV3VlHvDIRz/JYBbBfDf4qPxaRW3IUCZqar0iL+D9HEngFsF8CneqM49jONgERh4NMeiDvQ2XnI9C+B2AXxDQyI1CAM9aAMMrENg8e+5aML997wrgNsF8A1L8qkdkcADgBeRgFXYVHWg4y3PkwBuGcA3nAv6XHRDPBtUYAUCLyH9kvm78XeQfv5OALcM4BsW5VP/0997EQkwO/eoO8INz//d8iOAWwbwDSXwaQ29GIAS2/FX/P5f1SOAWwbwdz/WfhMp8Cz4YlSBxQt0glNf+wy3Oz++CODWARz/OMaXonviyagCi1c06cWn+n/8ugBuGsA3fB0j86YIPAx+NqrAY0zO+cVOeAvWP/vfArhtAH8Xfi5K/V9fLAIDj2NTNNUebqu0BHDjAI6/nP2ceKHHmp8FqLCvaTZubiuABXDrAI4/GWU2gwN9kXfDCixcoOZ4qfnZ/0h/Adw6gH+oPBB6W9SPAShwKZnxtreuNArg1gF86+JA7wczp1ECC7ep6fntb11oFMDNA/jG7XHdb4xn4wosWmDCO/VOhD9KVAHcPIDjJXBiFO4sAgOP4lhS52xunuIFcPsADpfAn3tfqkEGli+wFvtLSez/dq4VwO0DOFwCZ27DCnyQ4cXAAgs2lfQZt7f3OAVwhwAOl8BPJc2RJwMLLNj8TxFmbjrd31wAC+AeARwugTOXJ+Zvy/dJQmD1M3PhOt/vim8B3COAp9tbFHc7l8Q+QGfb0buMv4tTAdwjgMOPSImPZ5NFYOARBCa7xF8931FeCeAuARwtgTO3YVkEBh7B201V6L1l9+X2AlgA9wngcAmcmIXzt8h/MrLAuifm7FMPpnvWFwVwnwD+4Y5lgjvtLQID6xc4duhUkfp/MLUL4D4BHP4u8HPaxW5K7kqArqaKWmN318wugDsFcPRVsQ+dr9YiMLBo54rVtre7epsCuFMAR0vgjxW35WdDC6x5Xs4uNYIT+5MArgng17JtWJNFYGDt5jeDE4/Bmu4rrARwrwCOblZPrEYvFoGBlZtu7QPf43hfXSWAewVw+HXtl4J75MnYAos0f4Z9T/vN7Z0riwK4WwBHP5mRd5PsLQIDpuX0Tt/+zoVFAdwtgKMlcN6C7M4iMLBuJdPc4c45XQD3C+DoC2OngrvkZHCBBZq/BJz3ElLwOwwfBHBhAEfX6/NukzeLwMCqnQtmudhLwH9wxL8A7hjAm6oe9GQRGDArJ7+EdLmzABbAPQM4empo3oOaRWBgzeav8OXF2XT3oqIA7hnAwfHKK0ePFoGBFZs/ub6n/eb57vlcAPcM4GAJnPdV4L1FYGDFzv2LjODhSicBXB3Ar0U96I1FYODRJ+WqvTVfTVEB3DWAg49Mf1/y3QnQyXbolb2vfmFWAHcN4Oi3q9KaJfP7My+GF1iYqX9fMXaww8c7/oYAzgrg4GEc7wu+PQE6eetfYuwT1hMFcN8ADu6bS2sIz2/QfDK8wBrn5NxFttCW2i/3VNECOC2A/3q9f91gIfcnQBfzK4wPWT8ZO1fpgwAeIoCDbyKl3S3fz/5Jwwssy9S/pom90vIigMcI4KmmB20RGFirtztbwa1S4FtbrwVw7wAOHh+a9rx26V50A3Qx+42gtCzbpMzjArh7AMc6F1l7orb971CALvq/WBJ6o/Srk6oA7h7AsTeR0jom+/49GoAONv1biqEO9JMAHiaAg28iPS/3FgXooH95EepAf30rjwDuH8CxxYO0g9Mu3Zs0AB0cu0+noTLqgwAeKIBTXuBueMcYbWBJLnf3gpv94p8fviWACwI49iZS1i1jERhYo/lNxVPSL05JXUwBXBDAsW8iZTVNdhaBgRWa7l+MDQp1oJ8F8FABHBu9L12v2lEcwLKcx91R843UF8AVAbwp6UH3v0sBxpiQM+fSKWsCF8AVARz7kvPn3jeN7zEAi7HtvgQc6WF+eRHAowXwDxU96PmLwC+GGFiI/qXFJauAEsAlARzbhvXU87ItAgNLMvtUyKyDfUMd6JMAHi6AYweJZvWgZ/dNfI8BWIrjsNtpvhmeArgmgHcVPegp554BGMel99raJa1/KYBrAnj+x4kSH9y2vRMfoLFN7yXgKa96EsA1AZx2kkr+dTuKA1iOfe8l4MgC4s8CeMgAfrkU9KBnL128G2NgEbovAUfm7mcBPGQAp51l1qR14igOYEXTceIScOQcpW91vQVwVQBvCnrQ296LJQBN7XrPapEO9FPKxQvg/AAOfZTwY88LzzwxBqClqfcScGDm/vKtolsAlwXwvqAHfe69WgLQ0lvnSW2T2boUwGUBvI0EcNLD2+yHxV8MMrAAx85LwN9nFk4CuCyAQ9uwknrQs5dLjDiwBJdR1/Hm/KQArgvgqaAHPffmcRQHsACbtHZw8u/Nep1TANcFcGgb1nvOlZ87Bz5AQ1PnJeDI3p0XATxyAL/270H3vlsBGppdU5xyfi9QNs3ITQFcGMChV4Fzbp9d534NQPVkXLCNZl4VI4ALA7iiB935dgVoZ9u5pAjs3JmzkUYAVwZwZBtW0hic85YvAGptOi+qBT5jN+fdUQFcGcChV4FzEnF25j8bZmBw+84TWvKbKwK4MoBDrwLnPMFtOre8AZo5JvaDMwuYmat4Arg0gCM96KQ1jEvfljdA7VycN30GSqZZJYwALg3gyJclkx7hjpnPbwB1djB8P9gAACAASURBVJ07eoEJ+5R3/QK4VQCfk5cUvm3fd80ZoJXOe1oCb47OC00BXBvAkVeB/4e9c8dxXEmiaJMEBEKWxpUlm5Z6rAetRrZWocF4WoWqC2g0apUz4z1rcKmIvIxUnbOAzhaYFYfxyeSndwsdeM4AUJrZWz9c8SlgLX4i4G0FnHuzd2oR5c5zBoDSLN6RlhXh+oyAexDwmusorxn/98m8ZQEAGqGmE8+U1VZcg/U7818kFjcTcO63NRT23qINAEAbdt6G2pxdgUbAWws4+W5vgcGacAMANEIOZjnL6ddgqekLAt5awLlftxKYvC+NAABtuNScn9GPHSPgrQWc/HWNxJz7kwcNAIVZkn2YlG/rp54Q8NYCXnO7d842ulkr3gAAbXhYUxf9EJKccSPgzQX8030QaUhuYwAAbMDOO8+iz+t85v4CBNxQwGtq0KcOdy0AQAu8ucTYIFAj4M0FvKYGfe+wbgMA0IKLtZs2NyhVIuDtBbyitZ/zIJbsOgoAgJ3Fmrgs+RVoBFxAwNOKGvTZ+SbHYweAujycrbupRasQAW8v4DU16EPGf3+0dk4AABqws+YtQ4MKNAKuIOAVNeiUg0jyq9yVRw0ARRnyhfh/0A8hPRFwVwJeMQf94fv/M4UFAIXZW4dZjg0q0Ai4goDX1KBPGf//S/6bHACAlcWZSOyaZEkIuIKAV9Sg787SDc8dAKrycLbS9ENI/0bAnQl4xXxdyqNgCgsAOmdnDWNLkyolAq4g4AafuSr06ggAkI63kPdoMqeDgEsI+Ke5CWxtngAApDM7R1n0eyhXLYeASwh4xRx0ykTf3tlxBgBIx5pG7NukSAi4hIBX1KBTDiIxhQUA3yAMZ13DcWwToBFwDQH/pTeBM7bT5LQ9AEA21iA2NSpRIuAaAl5Rgz7YfkHWyyMAQDJqVzbl9sCh0ZAOAq4h4BXXrKTsp5tz5AsAIJnZOchykyuU6/5dBFxEwLO3CWzdvAAAyViTiGOj/AgBFxGwPuWecjjXWr4BANgiCv+XjLV2rTqECLiIgFfUoDOyUqawAKBnKh4bWX1REgKuIuCLtwl8bLOfAAAMjBVnZlarEgFXEbBeg/7j3FEnnjYAlGNoUxMO5SvrV0PAVQSs3zWaIkXr9gUASOVijJZ6dnRGwL0K+GZtAqtb6pOnDQDlWIz1wrlVBRoB1xGwftQ75XE8vnj0ANApYgBLmcFamuVGCLiMgH94m8BMYQFAr0zOEp7cHlwd9BFwHQEv1ibwpVFTAwCgNc4hFrkFvD7dRsB1BDxbm8BMYQFAr8zGZEWOzE8E3LGAd9Ym8GiUPQBAJjdjC21pV5pEwHUErB82S9lVYl+DyygBoMsYnDSD9WgXlxFwIQHvrU1g5w4GAEhElGLGDJbcAn4hWUHAhQQ8WpvAF2O2DQCQx2gcYZFbwC8shoALCVifds94IIMx2wYAyMMZveQW8BkB9y3gxdkEdr5DAgDkobbrMtZS86JXunUIuJKAB2sTmDFoAOiSxTfBMrZsDCLgSgLeWZvAxy8ePgC8awjOmcGaW2ZFCLiSgPWDSBlP5OZ7iQQAyMOYqCwNK9AIuJaA984m8GxsowAAZDEaW3VqC/ilGxMQcCkBj84msHMTAwBkMfiSB7kveEDA3QtYP4iUUVthDBoAOuTia5/Jk7FnBNy/gG9fLesdr/yMpA96AQAksfii5K1lCxgBFxPwT2cTWNxaPH0A6C4CWw+LvLgWAq4lYP0g0jX+M2ZfHQcAIInJ1z3btZ3KQcC1BKwfRErYW0PL5gYAQBNGX+Qa2pYkEXAxAV+MTeCp6bsdAEALBl/t7tI2HiPgYgKWZ+4+XL+DMWgAqMTFN71ybFuRRMDFBPxDbgInlFfEWULGoAGgDmLgesZXmhrP5CDgagJejE3g/RePHwDeMQBb52ReLUgi4GoC/ksV8NO2uxiDBoAyTG2z0r+j3tf7apUQAVcTsHwb5b/iv8M4TAgAkIIYtzLuSlga1yMRcDUBy7dRZmwvca0TjxwAimCs3D0a5ygIuJyA5dsoT6Yfwhg0ANRh37YsvD7Xft31CLicgOXvP9/jP+RmazcDAKSw2ALk3DoWI+ByApabwL9s+4vnDwBdxd+UEuGtdTUSAZcTsHz0O6HFMfqaKQAAGfhmR4+t53EQcD0By03ga/iHqPP8PHIAqIEvbZiaFyMRcD0By7dRHmxveFeeOQCUYLA1zobm4zgIuJ6A5Q9gxaf8psWmegCABGZXeJS/xHBCwG8kYGcT+NL6DQ8AIJObLWtYWreAEXBFAatN4ISrOMQay2+eOQD0E35ThqAfzYvdCLiggOUmcHyLMQYNAF0hajG+0Ni8BYyAKwpYbgLfw79ksuXaAABxdrakYWifCCHgggKWm8C/TT+FzzEAQA3GL5e0bu3TEwRcUcBqEzjhJW+x9VMAAFx56dOWnUT0iIArClhuAscTU/Fe8wMPHQAKcHGFrMnQCUTAFQUsN4Hjm0x0/ScPHQAKYCvaje1bwAi4pIDlJvDdtcnYAQDQTfTNGIKe27eAEXBNAatN4IQHwzkkAOiHavMxoSCMgEsKWG0Cf5h+C59jAIAK+Gp2Ymh8IuC3E7D8TeBr+LcwBg0A3WAbgp4MLWAE/BKP5m4UL3tJmMJiDBoAumF2BSy1DHluL+A//4C/017AYl6aMIU1uBYCAIhycZXsZkcbUD7wAmu5Gh5+Qm1CrHZzDgkAtkfMTWwLPRHwGwpYbQInXNLMOSQA6IWjIS9dsVCw1o2AawpYbgJf+9nQAACdJAyqGs8I+A0FPKlN4EN4o9lKOgAAMWwtM3E4JpiZIOCiGbA4nJwwHGUbagAAsHgxnpiIYzjBL9Ih4KICVmfgf/WzowEALF6M5wuLJS4i4KICVk+Bx3uzoyvVBgCIcXN0Zv/H0WJ6BFxUwPL3GK7RjSaq/jd/+wCwMYspLxHDYvQYCgKuKmDxTS+hNKypnnNIALA1rmglduaiCyHgqgJWm8D38Kue650SACCGawh69oRfBFxVwOpVHPF3PTHX5m8fALbFNrEizmCdEPCbCli9iiOemdrmCgEADIXBQ3ghcQbnjIDfVcDiK1h83o9zSADQBbMn+KozWOH0BwGXFfD+y5SZinvgzl8/AGzKxTKbLJe6w2dDEHBZAdumsGxzDQAA7euCtr5cuCyIgMsKWL2KI35Al3NIANADrlglTqa6yo/gF7A6BhB/2+McEgD0gDaa+jSJPl7qRsB1BSy+hMXPB+1Nmw0AoL2vDibR+z56CH4Bz66FBtM6AAABxNmok2md+FwMAq4rYPUqjvDr3j85CAwA9RFzhbNpnXimjYDrClicTo6/hk2u3QYA8DqubtnFFeMRcGEBi1NY8UaEa7IBAOB1tLmYjuZSEXBhAYuvYfFtoJmeDxICwJa4IpXtZCYCLixg9SqOcy/vlQAArcUYrtWJTbk7An5rAatTWKfoQnsEDADlMU2rjKZ1EHBpAasfRAq/iImpNn//ALAdrlNI4gnQMwJ+bwFrowDxlodrXwMAtM4UwmL09eQQcGUBu6awOIcEAG8i4PgpJNsMFgIuLWDxhS++4R4IGACK4xpW0eLhHQG/uYBH11Km4UIAgJfRenKuj/RmJCQIuLKA1Sms8E7Qeh58kBAAtsOUKLhazQi4uIAncQorXAvhHBIAVMfUKpt94RABl86AxSmscM1lQMAAUBzTaQ1jQRABlxawWAsJm1H8HhIRAAC2YjRFXq3Sfc/4SQi4tIDFHffHtA1OxAAA2AjXKSTjoRAEXFrAP1xrcQ4JAN5BwOF6oCjFMwJ+fwFrxZC4GY8IGABKo82KhnuzzokYBFxbwNo4QLwdoY1bP4kBALARWjT8jC4zezyPgDsQsHgreHgM+uJZBgCgaZoQzkZuxmwEAdcWsDiFFS6HOF/6AADWY2qUOftxCLi2gMXPJIQH/zgIDAC1KTWRekLA30DA6hTW1bMPiAEAsA2mILXz5DwIuAsBa22PcD1kcv4mAIC1jJ4ynbUaiICLC1ibvI8PHjjLLgAARc2ozcN85vwmBFxcwOJllOH5ZA4CA0BlZk8ovHlSHgTchYDFB/Srq10HALAS7azk05OLJBUDEXBxAYu14fBIgFbq/iQKAMAmLJ4qnRZxzwj4ewhYHIOO7ofBk2gDADQMhVEBa/OoWScyEXB1AWt1l3BFhIPAANC/gKNxd7SmIgi4uoDFyygPlo2AgAFgGzzHgLVUJKsZh4CrC1i8jPLZx+4GACicI+wtCQ8C7kXA4hUZ0ZLIdHT+KACABqlIWMDaqNcJAX8TAYudjw/PMifiAABsgFYbNt2I4E3rYUMBa29k4XNI2kHgA3EAADZAm4Z5RpfxDsMg4PICvniW05a5EwcAYAM8EUozYtp5TARcXsDiZZTR3NR6AyoAQINSYDQODp48GwF3I2BxDPpu2XjcxAEAW+CZUpktmkfA/QhYHIOO5qamGUMAgGYCPgdXuVg0j4D7EbC48cLnkBAwAJTFM4yqFbrTfhQCrp8BLx41Prw7DwCgWoZw9OYhCLh+BiyOQfdR4QEAWI/pjmbzKAwCri/gwbOelmifiAQAYMdzD4cmxCcC/kYCFsegD8Flbt7xPwAAGc89HIM5CiLg+gIWx6DvwWX2llUAAFrFp6gaNc3n1QERcH0Bi+NRnnc/BAwAfm4WNWoDN3m/CgF3IGDPOSTTXecAAKvxzKhIqyQexkTAHQhYe/f7sGwFrsIC+A97d4zjuI5GYfS5DBQKjhw7cjSBI6PDWs3EXoVjr8I1DTQavcpJBy+YZj+KV/ytczYgCCb4mRIlkXeKrE1P4UlQgAsEuO2+RPcj6L/Cf/4AGj0ik2DTURZ8I74AFwhw43NI18TYE2Agb6LLgHcB3lSAG3+kc4lrPABjJsHei8Ntj3weBXhTAW7789c9LC7p0wJYMI29e0R36TlQgCsEuG1t+uw8SmafP8CYNPbOgU0PG/9c8LQEuEKAL5F/f4fIOhtgTIB7Z6emRciS+2DaAvz1L/7XIxzgtqfD/1NiiAPMuTw4JVY6fx5gD3/+g59pwQC3pfErcpSnnx8I+4xcdjylp0ABrhDgb20XvTuP0rbN4bufHwhruw137TxK/CKgAFcI8HvkrvPeWADqzrm926Pa1iBnAd5YgBs/x3BOHMWbOIAp59zMXbjrgqclwCUCfJpnB4IAA2mPRKh2iWW2ANcL8CWyP+oUH34ADSKhOsSXIAJcIsBtWwB7t8e3vYnDzw9ktYWqd4foJTHNCnC9AO8iP1Nmpz/An2nbHnVPTOxPAd5cgNuGX++1kbbPHp79/kDUbp5dMMclz0uASwS48TmkEoMcYMTioHduyq9ABLhEgBufQ+o8pAADdQPcOQG+5+/BCXCNAJ8S/83aBsPT7w9Ete1PufYdpOlO37KPgQhwjQBfEovTvQADE7ok2rhL7LQR4IoBbvsDeO88ysNgAIoGuLeNh/z8J8A1Atx2C+R74rwMBmDCKbc3wLfEJCvAFQOceRDYuyiBCUUuzl0SlxkFuGKAMw8CX/KbEAB+J/IqwPxjwAJcJMBt+6N623gTYGA6mf2hTcvsswBvMMCNDwJ3HqRpE8KiX+MC+J3Imyj3K0x/AlwkwJEHgb2LEqga4GPgIAtfABTgIgG+Jdq4E2BgOrtppr+F96AKcJEAf07zF9C7KIGoyJsodyu0UICLBPgjcRPkPXEQgD8S2Z3SdJBlHwMW4CoBbrsG0zk6vIsSmM9n4vbsbYXlhwAXCXDmh3oIMDCbyJsoLyvcgBPgIgFuW5x+JU7MaABeLsBNs99ZgDcZ4LbF6c/EiRkNwHQzbuT631WAtxngtgeBK/zRBFh89ut9E+Ua7wEU4CoBbvsicOdBbwIMzCaxOeV9jclPgKsEuO1B4HPfQQ5r/AkE6F2c9m5QflsjhQJcJcBtDwIfEwcxAICc98Tkt0tc5hbgqgHeJf4E7n6tcGYAvYvTyOrjKcAbDXDbGOwcHwIM1Azwue8gh0DkBbhsgNt+qR8FBjrAbAuDmwAL8P+R+KUi91oAFg9w50Eua8zqAlwmwE0H7dwlvxdgYDJNt2cjbyG6CrAAD3xMrel5u7sRAMQcZpn7Fn8EU4DLBPiWuAzTdGZPIwCIibwgaJWXEAlwmQC3vYnjGjizH0YAEHOZZf/L4iUU4DIBbntJxnn+kQ4w2bT0tsraQ4DLBHiX2CAlwEDFCfd7YH59CrAAjwzw5yo3QgD6JtzOODbNr3cB3myA236qzhFyEGBgLo9Zpr7j0mcmwGUC3PaMbud1mMgDdwDtprn4dxbgzQa47W9g5y6ByCtnABZee3QGeJUXYQlwoQCfAj9VW4CvhgAQEnlF/WWVpYcAv1iAvwoMdYCFZ6XOCfe0ys03Aa4T4JsAA5sTuS73GD+7CnDpAH8GNkj5GgNQMcCdB1knhAJcJ8Afif+BAgzUC3Bi6bH8S3gFuE6AI1+lfggwMJOPWW6+PQVYgMfen206tbshAIQkXg+0zouwBLhQgN8Tl4d9jxCYymcgUrt1Lv0JcJ0Az/M4+ndDAAi5BSL1Ebi8KMClA9y2QarzKsllnb0IAOtNSgcBFuDfeARWpzfjASg33z77jtF0mfsqwFsO8GmWP4LGAzDVfHsPrLKXPzUBLhTgyyy3QnyPENhagAd8Bk6AXy3AnXEUYGAqiZcTnNaZ9wS4UIA/A3FMvHQGoNksz18O6KAAFwrwRyCOPggM1AvwefwqW4C3HeBEHN8EGJjIeyLAK73/QIBfLsDXQICvxgAwUYD/Pf4YdwHedIATH+uN/NsEWHTeCxzjKMCbDvA0l2IEGAj5JsAGwQwBjrwMWoCBiSSezNitNO0JcKEAR7bj+yAwUC3AiccvBXjjAX4EdgqcBBiYR+LlQE3HuArwtgN8miXAd2MAeJkAH8bfZhbgbQT4e+AYAgxkJD4Qcxt/m1mAywc48V3MpmM8jQEg4nOSAI94Bb4AVwpw4mO9l8AqG2DJaS+w7hDgrQf4ELgZkhjtAEtOSc/xU/qIDApwpQBPsxtBgIGMiwAbBFMEeDdLgA0IYKIA3/uO8VjpxpsAv1yAO/fqfRgQQLHp9jg+wM8B5ybAlQKceCt5YpUNMFGA13r4UoBfL8BXAQYEeNkOHgecmwBXCnDiw5gCDEyk6Q28ZwEW4NEBTnyq6C1wnxlgngC/jT+EAAuwAAPFBGa9nQAL8FL/BfuulCQ2egEsGeC+6Xa31owuwKUCPMt2BAEGIvazbD0dcXIC/HoBvk8/3AHmWRJ8CLAAN0i8E+bXWicH8HeJXSmHtTa+CPDrBfjZd4zHWvsRAGYN8JBnLwW4VICbvgvS+cpSAQamkXgzwU2ABbhB06epfwROToCBLQV4SAUFuFSAD7ME+GgQAC8S4IsAC3CDxKeKBBioFeDOSe8yfmEjwC8Q4MSfQQEGNhXg0/i9NQIswIv9GRRgIGKWy35PARbgWQJ8NwiAWQIc2PgyZM4T4FIBTjwSdxNgYBaJnacPARbgSgF+GgTALAHuvEG72m03AS4V4MRrUT8FGJhFYkISYAFusQ8EOPGHE6BJ4JLcXoAFeLF/ap2fKkrccgFYLsD38Rk8C7AABz5V9CHAwCwuAizAswQ48KWEDyMCKBXgY9ch3lab0AW4VoADX0rYGRGAAC95Z0+ABViAAQH+R3PekJMT4BcMcGAwGhHANLOtABsSWwrwl0EAzDLbnofPeT+HnJwA1wrwRYABs206wGOmPAEW4L95E2BgQwH+EGABbhJ4KF2AAQEWYAEWYGDLAu8+OAiwADcJvJg88cUlgOUC3DfbHlaLoADXCvBhfIDfBRjYUIA/BViAlwvw9/FDQoCBhMAHaARYgNsEvpSQ+OQhwHIB7jvETYAFeJYA/2UFDGwowJfxs6oAv0SAE++JtAIGKgW4c0FwG35jT4AFWICBYvaBAF8EWICnCfBj/KYHgEoBfgqwAAswIMACLMDTBrjznS0CDGwowC0T+l2ABTjynkgBBibxHpjyBFiA5wnwemcHMGWAjwIswAIMCLAAC7AAAwiwAG8kwO8CDAiwAAuwAAMMNMu+UwEW4MynigQY2NAKWIAFuFiAz0YBMMcKOPDuoTEzngDXCvDeChgQYAEW4BUSNcl72ayAgRcJ8C8BFuDlhkrg45gCDAiwAAvwsgHeCzAgwAIswFbAgAALMBME+CHAgAAvV6i9AAvwkgG+CjAgwMsFeMx8LsACLMCAAAuwAAswwB8F+Mf4CgqwALcGuO/QNwEGNrMCFmABnijAVsDAJL5ZAQuwFbAAA5OugAVYgAUYwApYgF82wCcBBqyAwwG+CrAACzBgBSzAAizAAFbAAizAAgxYAY9pvAALcOuh++oowIAVsAALsBUwYAW89gp4zNkJsBWwAANWwAIswFbAAFbAAmwFLMCAFbAAC7AVMGAFbAUswFbAAFbAAizAVsCAFbAVsABbAQO80Ar4KsACbAUMWAF7E5YAWwEDWAEL8FYC7HvAgBWwAAuwAANYAQuwAAswYAU8ooJj5nMBFmABBqyABViABRjACliABViAgdlXwH2FEmABnijAFwEGrIAFWICtgAEr4HGF2guwAC8Z4KsVMCDAAizAi/olwIAAhwM8ZsYTYAEWYGC7Af5LgAV4yQD3HUKAAQEWYAEWYECABZj1A7wXYECABViA8wFu+r1+CjAgwI0eAizAswR4L8DAJJqmvK/xAT4KsABHVsAr3uEG+OMVsAALcCRRb7ME2AoYmGQFHLgELcACbAUMCPDCK+CTAAvwNNdjBBgQYAEWYAEGBFiAEWABBgRYgDcZ4J0AAwKcnvLuAizAAgxsSdPL/wL7TgVYgDMBDnxy+L/s3TGO48gZhuGRGhAERYo76lhR7wYOdJqNdQqGhk6hxQCDgU7p1DZgzz9d5Mcq8XkuQAgq1CuSVSWAXgJcOXvoIcACLMCAAAuwAHcb4MCudAEGNhTg7wIswN+OAgxsSCd/ACfAApwJcGDAA/QyH90KV/ghwAL87STAgACnA7xMBAX4BQP8o/sBD1ASeCV2FWABnm2kNAY4segBYL4At822AizA8z0raVwucBBgYEMBPgmwAM8X4IcAAxsK8MfiAf57kQ8nwGMF+LJ8gPcCDAw127YF+CjAAjxfgKflA/y3QQAIsAALsAADAvxFOwEW4PmufBZgYEOzbduct1vtrZsAC/AXBqMAA1sK8DJHHwiwAAsw0KuLAAtwLwG+dzIYjQjgRQJceu32KcAC/OxjQYIRAWwqwItM6AIswAIMDB3gafkAfyzx4QR4qAC/BQJ8NCKAXtyWD/BBgAV4vq+r7cqlAP8wCIBeAvxY/sbmLMCbD3DpUUnjaoGTAAO9uC4f4G8CLMDzBbjtGqUAfzcIgIDEhHQXYAEu2AUCnPjBCTBfgBsfyd0Xf80swJsJcOOZaTcBBnqRWJTyLsACPFKAJ4MA6CXAjYl6X+umQ4CHCnBpLDYeE3kRYKAXu04CvMi6FwEeKsCnXgJ8NgiAXgIcmPQW2fkhwAL8lQ8nwMCWArxIBQV4qADfOnkaI8CAAAuwAAsw8Kr2gQDflr+EAL9AgEvvZwMr8pc5FxXgKwFu3PpxEmABnuvCgUNhBBjYVIB/LvHhBPj1AvwQYOBF1BrVdo3j8pcQ4BcIcCmOU9s1nmt9OID/VvsP1s+ma+wEWID7CHBiuAP0c0uwW2tGF+ChAlz6ts7dP/ABEGABHirAbwIMbEtgVcp+rYUvAjxSgGt/BxwYij+NAWBTAT4v8NkEWIAFGBh7um2r40GABfjXdr28DfnbGABeJcCl98yTAAtwHwvyBRh4nQDfBViAf+kYWCAlwEBHEv9QXgnwEn8ILMAjBfgUeD97NCCAwQL8WH5KX2LWE+CRAnwN3J2eDAhAgAVYgL8wEgUYeB2lP2Ft/A+4y0ov3gRYgPOjHaDoKsAGQRcBfg98WaUAfzcGgIhTJ9PeEqcfCPDLBTjwU/D5MAaAiGMvb94EeOMBvgfuTkufbTIGgJcJcOkanwK87QA/A3enAgx0JHE0QekaHwK86QDXvqwp8NnOxgDQT4B/Bq4hwALcxZlsAgyE1P6DJnCNBaY9AR4owH8mAvxc6acggAALcK8B3iXiKMDAcAFum28PKy19EeCBAnwMxPEgwEBHDoEAl248vq/12QS4iwCX9qo1rpU/BK4BMGscW28K7ut0UIAHCvCtl3chT0MA6CnA5+XndAHedoBLh1QlluMLMJBy7yTACxwGLcADBbh02cSG9J+GANDTfDstf3ezwLwnwAL8HxLHvgEIsAAPFeB74LsSYGC8+fbRdo3Sfx5+CvCWA1z6rhr/DOlkPAA9ufQy8X0I8IYDXPuuGveq3YwHoCe3QICPAizA/19th9DU/1gHKLsGIlVafXoW4A0HuLZDqHGMXAJ32QBlp8DClF3g7kaABXiWj/YwBICQxMrQ/ToTnwCPE+DaSZQfgY82GQJASOJwgsM6794EeJwA106ibLysvwMGxgtw6/F864RQgMcJcOn1bOtWtacAA5sL8H35x9wCPHSA3wMPYt4EGOhK4g+BS9Pr/EdhCfCLBTixFMHfAQOdBbhxVroE7rIFeOQAPwUY2JzIc7nLKpO6AA8T4MhXtUu8ZwaY+d6jMcDXVW49BHiYANduThsXyvs7YKAzpb0ZU9s1TqusfhHgYQJca2PjIVWlLe/+DhjobMJ9BObXae5PJsAvFuDEz0D/Rgh0NuE23nvsApEX4IEDfOrmRYgAAzmXQKX2gTd8AjxwgG+JAF8MB2B7AT6sMvUJ8DABrh2E9SHAwEu5JR7MrfLwT4CHCXDpoq07hN5XeQ4D8D9FlqZUllrPvv5UgIcJcGkp/jPxyR5GABAT2ZzxHrjBEeBhA1w7DSbxK9C/EQJBfyRuPlY5CkuARwnwPhFg/8UA9Ka2BbNxxr2tMfcJ8CgB3iW+ilK13gAAIABJREFUqYMAA52JHFF/EmABbg3wjwEGOsDs81JjHI9rrH8R4FECXDuHo3F87AQY6EzkydwucIcjwMMGuHYOx5QI8F9GAJCTmPz2a6RQgEcJ8KWbpzD+DAlIugce/5VaOPdJHAI8SoDfu1mH4M+QgO5m3NbHw2tMfgI8SoDviafDtzV+BAI0z7itmSpNsZ8CvMkA13boRvaiCzCQFJmY3gPPGAV40ADXFuJHTmMzGoCXC/AlsMpGgAcNcG19cuQ3oNEAJF0Ttx+lF3CTAG8ywMdnN29BvhsAQFDtFITPwEVmnv0EeJAAl34Cto6O2ovmhwEABNXuPxqn3N0KLRTgQQJc2wY8JUbDZAAAQZEj+naJt3wCPGaAa9uAz20XiRy5CtDfzHRIvGgW4DEDfO/mJ6CjoIEOAzy1XeQt8aJZgIcMcHEbcGMbjwIMdCezOuWen/4EeIwA134Btp7DcVrhJyDALyT+jLU2r58FeIMBrj0cjmyE818MQNY90alL4Dm3AA8Z4NrD4chRMP6LAehwym2d/0o3IPNuBBbgMQJ8i3xPkVEOsMC9QevUdMrHUIDHCHBtG/D3xOcyGIAOA9z6cG6FjcACPEaAa9uAp8ar3A0GoD+1kwA/2y6yz7+CE+AxAlxbBH1uu8jbM/8OBOBXahs0Ptou8o9nfGIX4CECXPuaWsdfba/Tw/cPRB0TdyDfErOsAA8Y4NoupMhh5E6iBMIyc1N+I7AADxHg2u+/5xCDHOD3RM6irE3sDwHeXIBrSxBa1+c5iRLo0SGyPuUWr6EADxHgS+RruubXIAD8WmQGPCXucwR4vADXdiG1HoV6STznBvhdkS2Sf8T3IQnwEAGuvQJ+JD6WkyiBLufc1pvT2iqYTwHeWICLu5DOI4xxgC7vDg7xVTACPEKAi7uQWgfGXYCBHt0iN6fxfSACPEKAi7uQGq/4FnnRDPC7rpF7kPg+JAH+SqnSAa4NvtblUbWtdk6iBNJO/byFmzOHxbeL/+Tfpbfr1JYnZ1YgPMwFQFjmlKBb+i1cMcD8vhkD/B55TuEgLGDkALfeHpTus+fcCCLAIwS4dsEficEnwEDcPjIH7tJTuwAPEODil9T666+2zvDDXACEZVYr7dM3IQI8QICLu5Bah8Ul/esPYMbHgK2vZ2s9nAR4UwEu7kJqvTetvWk2EwBxpVMKfkauMuNOEAEeIMC1Z8PNm9CdwwF0KnN/kN6HJMADBLg29Jp//D0FGOhT7Q3ZR+IqM06CAjxAgO+RNNbWHziTBcjLrBG9ht/DCXD/Aa4dERnaBuwkSiAvs0vyGMm8AI8U4NqtafPKAAdhAb06Ruan9GlEAtx/gIu7kKbIL8zJTADEZZ7QHcK3IQLcf4BrryUyx6A6CAtYQWiNSngljAD3H+BL5nqZVYYAS6WqeYHye+QqAjxQgGu7kDI74Jo3GwMsdW/avBnzEplsBXicABcXQTf/KLtnRx5Ab3cI1+zdlQB3H+DiIujW1xJvmcwDLBbgj8ar1BZbnwV4MwEuLoJu3YW0F2CgW5lVorXpdhLgzQS4uAh6igw853AAa7hG5sHM3x4K8DgBLi6Cbv3ld4zcZwMsN0M9Wi+TfRIowN0H+D1zuVP20QvA7M/omu9Na/OtAG8lwMVF0KHl92fzALCC0CqV7HkIAtx7gIuLoDMb0J3DAawidBLHKXonIsC9B7j25iP15OUv8wCwhtpM2HqV2pPuuRbDCHDvAS4ugn6MMboBvuQeeUj3Z3QZtAD3HuDiGqzWRyK2AQM9e4/MhNkTiQS49wDXfvY1/+7bCTDQsdA60dqM+ynAmwhw9QtqHQ+hNf4AX1J7G/fI3Gh/zPOZBLjzABcPomzehVRb++ccDmAdx8xNwi15IoIAdx7g1CLoS3LUASxyM9L8mqw25c50KK8Adx7gWhjbh0NmgQPA14QWikaXwwhw5wEuLoJuvjXNLPEHWDRWmcv8jH4mVgpw8SDK0Np753AAa8lsCInejAhw3wHehy4W+nEJsOjjwPMglxHgAQKcWgRtGzDQtbfQStHaMuiHAG8gwLWxkFr5ZxswsJZQGZOToQD3HeDiGqzmRdDX5NJ7gN92ypQx+ThQgPsOcG09QPtTl0vmtyVA32XcByd4Ae46wNU1WOfMnfbZHAB0HeD2DUL33GwowF0HeJe61l2Aga4dQrNh7XZkCn4k1glw7dVs+2++Q+4jAXxJaCNwbbHXLKuwBLjrANdezcbeepgBgNWEHtQdM7OuAHcf4OIarObVybYBA72rPRt+ZKbDWf4SWIB7DnD125laL3QSYKBzoWfDxXn3Q4BfPMDVNVjNz1wumRttgO5vFO6Z+x4B7jzA19SlQo92gH+xd/Y4jutKGL2SAEPoyC9V5FiRcaMLr8axV2FggBd4Fd3TwKDRq3zpSy76o1n8WDTOWcBoDLLrqH5IwdNozdn6c0ibJ9NGwMkFLM5gDXXwDQCgZUnwXPucmynTRsC5BSzOYFVvBPFjhAgYAPrhas6uJtEj4NQCVhfns/ZBzrvXAACew5QpzLaMBAEnFrA6g3U3PYi/fwDoiGlY5WAKvAg4tYDVGazqigunkADgVQT8e5jnIODMAhZnsOpbETsCBoD0uKajbBERAScWsGsGS3zf4xgwAPREq9XVHwu5uGI8As4rYPVbhPWFEM307/z9A0BHXOeQxOccEfALC1idwaoeguYUEgAMwN+mqRgx+fmFgF9YwLdvkxhn064GAGjvq/pcwVV8RMB5Bbx9m8Q4mX4QAEANrm6ZFnzrm80IOK2AF/VB1ZvANdkAANBejPWZ6c2U/CDgtAJWZ7AGmrkHABggVomXUR4R8MsKWNwCAaeDXG+VAAA1XEzVutkUfBFwWgHv4nPu1ZtN66t88tcPAF1ZPcFXbQBWp9oIOK2AbTNYvotPAQAqsB3QFcMvAn5VAcsrcx5mTwMADJEt7J70BwFnFbB6DYdt3uDKXz8A9EULVvX9stVjegScVcAX8TH1s1Hik/jbB4DOuCZGJ0/4RcBZBay2gF3FFk4hAUBvXNFKnMKqnbdGwEkFLF/DcRzmnRIAoI6baTJGzYBOCPglBTybEm1Z9XyMEAB6s1q8KKfatQkQAk4qYPUajvpai6j6O3/7ANAZ25mNN0tigoCTClh8//JNGxz52weAzoj5Qv0Y9GTJgBBwUgE/xKe8V280cQj6xN8+APTGlZioUzhnBPyCApZbwPWJqZhr85cPAN3ZHImp/qDKCIyAcwp48uTZ1g0NAFCZmNoSBvFBdcVuBJxTwOKwfcRHel0lHQCAWmwtM3EOti41QcA5BSyWPwK8aBtqAAAwefFY/SCxCvl1bi/gr//A//NoLWD5vejdtc3u/OUDQHcmV2RUp7Cqcu0D9cdW+em1/SYzHnc7suoA0J2DrWe2GVSPgFMK+KIK+Fz9W3ZDQR0AIAbXDUVqaKyyIwJOKWC1BewbtmfRAWCU6BsRscRuc9UgLALOKGD5SwwBC2MzPQCAKzG9Vj9oNjSBEXBGAcst4Ltrk7EDACADF9fUymKIwgg4o4DlFnD9JhNdzykkAMiAbQxaLXbX6BEBZxSw2gIO6HMwBA0AA/G3rWh3a98ERsAJBSy3gH2TficWHQAScLAFx6l9ExgBJxSw3AL+Y/opEcedAAACeLjKg3P7JjACTihguQV8r/4lS/siCwCAOfyGVO0ezavdCDihgOUWcP0Wm23lHACAAG62uZW9eX6CgPMJWG4BBxRZJlutGwAgAPGCjICTG5fmmRACzidguQX8Ydthd9YcAFIwfbusNTXvBSLgfAKWW8DvthrLkTUHgBT4+mZqMfJ5QSLgfAKWW8BH0y/hUwwAkAbbl2rU+Ph8ExgBpxOw/C3gAC0utmYzAIAv/oaMQd9aN4ERcDoBO1vADEEDwGDstskVcd7r+YEvBJxOwOpLV8SqrN+sPwAMhXh/bsDZjbl1MoSA0wlYbgEHvOCJsn9nyQEgCZOvcCdexfF1RsAvImC9BXwy/RCGoAEgD2JeGnF/n1jtfjpEIuBsAl5lAfve704sOQAkYfGlKG+Nm8AIOJuA1Vcu4wwWn2IAgMECcEjlbmocjRFwNgE/VAH/su0uhqABIA+7b3al8ZlQBJxMwLNcgQ54vRPrKyw/AOTh4gtcW9twjICTCVhvAZ9tL5KfrDgApMFYulMvBn7SkQg4mYCdLWCGoAFgPIzDK2oT+MmRawScS8D6pwgDTpkbhwkBAIJYfG06+VjoqeE/j4BdAp6cLeDJ9x4JAGCNwDGfUVWbwM89CwHnErB8D2XEB4pWX7EbACCK3VYmlEPyc2ESAecSsHwP5Zdva7H6AJCJiy93kJvAZwQ8vIBnZwtYtT1D0ACQCdWKAY+amzYFEXAqAeuHkO4BP8PXbQYACEO14ingWY+WORECTiVg+RBSxM5ybmIAgDCMeUrTJjACTiXgb2cLePWVcQAAzCE4plO3tkyKEHAmAeuHkCJW5NbwxQ4AoBm7L3jNLduCCDiTgC/WFvD2zeIDwIC8+SqFchP4Gdsj4EwC3pwtYHVfvbPeAJCKyRgo1cmcZw4iIeBEAp6tLWD1aUfWGwBS4YxechP4iYch4EQCXq0tYPUd8sp6A0AuxOgVcYmBnBg9MfKFgBMJeLe2gNWGM8sNACPG4KAR0ke7wiQCziNg/UtIIZ0N5w4GAAjk5mvW6ZlReVxGwHkEPFlbwOpr3R+WGwCSsRpzFbk3WF7wRsB5BHyztoBnY7UbACASNV05GmPlE+VCBJxHwA9rC9i5gQEAIlmaJaU1obk46CPgNAKevS1gdQbrzHIDQDYexhmWvVlqhIDTCPjibQFvxmcBAISyGwPY2qw5iIDTCHiztoDVF0iWHgDycTGWCw9ybD4j4EEFXFCBvgf8hNnZQgEACMU6xCJnR6VPQ8BZBLx6W8DMYAHAuKgpRMQ5yuXWqjqJgLMIePO2gG9G2QMABNPwG0VP5yvFwRkBJxGw3mWIuRpD9T2LDQCjRuGgEKaH5yMCHlLAk7cFbH19BAAIxlrE2xqlRwg4iYD1DzGEfJ7I2UABAIhmdSYst0Y1aAScRMC6fz+G27wAAMFYkwi9QlmWcCPgHAKezC1gZrAAYGQWZ8aif6qu7OAmAs4h4IIK9NH2C7iIEgCGDsNRQWxrU6FEwDkErH+IIWQ7WV8eAQDC2Z0py1ubGjQCTiHgydwCVp/HwgNATt6cgyz6TYXvCHg4AeufAi5b3n9jdT4MACAcbxrxaJIiIeAUAi6oQJ8ifoC1eAMAEI56O0bMF932JiEaAWcQcEEFOmYzPYz9ZgCABqhh7BrxMP2y/l8IeDABF1SgQ5ZittoeACAeayHv0GRMBwFnEHBBBfoe8f9nBgsARkedwor5purWogaNgBMIuKACHVNNUb9l/c5SA0BSpgYpaX3ULKpBI+AEAi6oQH/4/v/MYAFAYuQprLNT90VRGgEnEHBBBTrm4wjWdBsAoAWP+JpwQNgseR4C7i/gkgp0SE7KDBYAjM/unJwpOIik16ARcH8BF1SgQz4uLQ/Us+wAkJeLNZKtDWrQCLi/gAsq0DELob7JfbLSAJCWyVrLmxvUoBFwdwGXVKBjSikPZ70bAKAJB+80i34Q6TP2FyDghgIuqUCfBty1AABN8OYSl/gaNALuLeCloAIdcwjJW7cBAGiD2k2LOT0yxadKCLi3gEsq0DHb6GZtOAMAtOFiTV0KxnXUUI2Aewt4LxDw0fe/ZwYLAJIjpy/ehFsvHyLgzgJeCvwbs4sWr+4BANpw8AazNTxZQsCdBVxSgY5ZBvmJVxYaADKjFoXvXt/LNWgE3FnAJRXomE20BhdRAAD6sHsHWvSDSOL90wi4r4APJRXo64hbFgCgEW/edOItugaNgPsKuKCp4J7ke2edASA1ckPtFPK4ObphiID7CngrEPCndwsdWWcASM3i7d+V3BssCQABdxXwXFKBjnmHk3PuM+sMAC8Qi+McVnBvoaR8BNxVwJcC/wZ1MXZvwRsAoBm7N3xOwS1DBNxVwCUV6JhrsOQaCmsOANlZvQXEv4JLlgi4p4BLDgEH9WRnc88EAKAZ7pmWgnOjytAOAu4p4JJDwEE9WfPUIABAOxZzBXGKbRoi4J4CLvGve4jgzDIDwEsE47ihlkNs0RIBdxRwUQX6PuR2BQBoiJxSXGOet4UmTQi4n4CXogp0zPY5mAs2AAANmcxN4IK7k75+DtoIuJ+Aiw4Bf4y5WwEAGjKbc4pDaNkSAfcT8FuHCrRcrzmxygCQn4e5q7ZFpk0IuJ+ASw4BRwlRfSafQgKAEZA7eeeY571Fhm0E3E3AU4cKtFw+YcUBYAQu5rZaSevwx7I3Au4m4KIRrJgPMejS/2SRAWAA7EGtoHT541eBEXAvAS/fHSrQ7pdFAICmHMxlxJIPMvwYSBFwLwGvHSrQ+rvblUUGgJcJx4FN4DkwciPgXgIuGsEKmqBf3MIHAGjL7q7rFXwU+CcNIOBOAp57VKDlbgkLDgBjsLqbwLe43AkBdxJwyRqGHQqSW8B31hgAhmB2F/amuNiNgPsIeHl0qEDrZe8TawwAY/AwN4GLatBHBJxQwEUjWFG9i8WdcQMAtMbeBC6pX/5GwAkFvPWoQNMCBoCX4+JuAhddonRCwOkEXDaCFVWBvrn3KQBAayZ3E7ioBv1fBJxOwLceFWg97T6yxAAwCPqlRld3LvPTbVgIuIeAy0awoirQ+ne0ziwxALxUQI5MLaaoBAoB9xDw2qUC7S/UAAA05+aOpUU16A8EnEzAW5cKtH+XAgA0x59bFDURTwg4lYCL6hdxZ4JoAQPACzLbm8BTUA0TAXcQ8N6lAn2IeGEDAMjGw55cFI3xnBFwIgEfvrtUoCd7yg0AYEDOacJUdimJ4b8QcCIB/9OnAu3fowAABlZ7OC26yuEDAScScFHxIu5SDPmxdxYYAAZitvfXli2kjImA7QIuG8EK2zAzLWAAeEn0qzjC0ouiOejfCDiNgLc+FeiVFjAAvCb+BlvMF90RsFvAZesWV4GmBQzwP/buWLdxJAkD8EgCBGEjRRcoUqzIs5HhpxEuMvQUBgxM4KfY8QCGoae8O9xecIvdHRXVxWqS3/cCItRE/6zqZpOZehq/vghVUh8CuJMAPtV0oL+MH/kAo1iNP6PGNtM+COAuAngTy9/v49+ge+MLTMv4BUasl/kqgLsI4Nhj09+8QJbVorkaXmCOc3Lbk+4PDUopATxyAL8VdaAL7k+Acdy+CPzQ6idj39TZC+AOAnhV1IHeWAIGZqtgjW3TYC4XwOMGcOwdpHYvrVkCBubr9jRs97G30/3dTAE8agAHC+Brs27JZfyfBOhqUm67yPY1NJm/C+DyAA6+g/Q+5bsTYCyX8TfWbGI7es4CuDiAg4dwtGsHrwv6MwBjWY2/sNfgw7ICeMwAvsTyt2K/3t7oApOzLWgsBpcUzwK4NICDHwJu+Lef7mqTAMxhVm5b2ATfKn0VwKUB/FjVgb79mBhLwMAUXQom1qd7W5oCeLwADi7ZNwzDlSVgYNZun+XanXUQ3NXzKoALA3gXLIDb3SZPloCBWdtW9PkOd9ZUAni8AA4ewtFwOfZgCRgwLbee5nZ3rioK4NECOHoIR7vHtK0lYGDmbl8EfimYW/98ghXAowVwtABud5PsLAEDM3d7idMw0E73lcACeKwAjhbADc+EPFkCBmbu9mr0syL1/7QEFsBjBXC0AG5YjL5ZAgbMywmVRuzdls+9AC4J4OgplA1vkZUlYGD2bl8EbvjR1dirwH/MUgE8UgAHlwpaZuGTJWBg9kpKjej5hkcBXBDA4QL4x8hXawkYmLTt0BgcaX79kzAVwOMEcLQAbrgau75aAgZMzBnvmIS31x4F8OgBHC6AG/7jO0vAwAI8VUyw0SOG3wXw6AEcLoD37S72VNH2BhhZoBh9aPerlztKYAE8RgCHC+CGH8zaXC0BAwtQM9mt72hvCuAxAjhcADfcjlzzUAjQ5czc/I2Pw/ASWACPEMDhArjlHr2LJWBgEX6pOAwr/J27dwE8agCHC+CWUXj7DoFXAwtM2KqkyNkML7AEcH4Axwvgl3aXurYEDCxEyUkL4W1Y7wJ4xAAOF8ANt2AFNua3/FWA0W1OJW3GXweXwAI4PYDjBXDN/gCDDExbYDn2XDLN/mGyFcDpARwugFuuTmxL+t4ABX6tmfB2Q+d4AZwdwPEC+HvNjXE0rsC0vZW0/MLbsN4F8EgBHC+A9w2v9PZf/zSswMQF5tuHhj97GTjLC+DkAI4XwC03Q22uloCBxdjVVDrrgX1OAZwcwIdwALfcgrWyBAwsx7ao5jgMK4EFcG4Ar8L523QtNtCPORtWYBGTc/tVt9WwElgA5wZwvABueiDkW83PApS41PSgox8l/P3XBXBqAA8ogFveFKuaxjdAjcCk1/Tw3fA2rO8PAjg7gOMF8GfRPbE3qsDkbYq6jdvwXP8qgJMD+Ot10KCMe50+RQgsa3ZOOPtg0JHDAjgxgOPLAm33Qq2vloCBRbn9k4RNP8gwYL3xmwBODeDHeP6+F92JLwYVmIGyuuMwoNwSwHkBvB1QAB+LboijQQXm4K1o3nscUG8J4LwAvsTzt+kTWeBJ0DmUwDycijp/2wEFlwBOC+B/xoej7V7kXVHnG6DMqqoHHS+5vgvgtACOrwg0PQY61IHeG1NgFgKV6Oe55Q/HD/6//kMA50ZbyI+i29A5lMAC5+eXlr+7iX/67lMAdxTATXNwV9WIAajzVLX4tkoKBgE8SgC3/ZtPRZU3QKFIDj4sLxkE8Bh74iMd6L0hBebirWruexTA0w3gto3gwFOgl5CA+ThVZduQww8FcCcBvJ/HPQhQaVfWg74I4KkGcNsCOPBNEOdQAjNSt/62FcBTDeCm30EK7UM4G1FgkTN043A7CeBpBnDbQzgi94GXkIA5eSrrQa8F8DQD+KPpFUY60F5CAuZkVdaDTgkHAZz/H5/LbsCjAQXm5K0s3VYCeIoBXLcS4SUkYF5OZT3oCaSDAM4uQzcGF1iswh70VwE8vQB+n83tB1BsWzf5JhzGIYCzA7hxCp7KFp8BJjVHP7T96UcBPLUAbvwm0KbupwHK/VJX/mzfBPDEArjxHRDpQL8aTmBm1oX59iSApxXAravQSAf6aDiBuXmrW4bbCuBpBfBr3fh7CQmYn8hnEV4Kf1sAlwdw41MoQ98C+TCawOysCgNuLYCnFMCtl2FPdavPAD2oO4ew+ScZBHBmALcugEMrEAYTmKFTYQ96LYCnE8Ctu8A7IwssXGQebL0NdnMSwJMJ4IfCq3sxmMAMbSt70GsBPJUA/lY59GeDCSx9mn6t/HEBXPnnts7Ax8LOC0AfKnvQbb9KKIDzAvij8uIcgwXMU6gXeOw5JARw3n97ntVdBzC9efpHzyWwAE4L4OYF8JMONEDoQKr2c+FBAE8ggEs7Hz8MJTBToSJ033EJLICzAvijdNSPhhKYq7fKqbhhTAjgrH+2eQRGui4+xADMV+Q4jNYHErYsgQVwUgA3/2M3tc98AL2o7UF3nBMCOKkALr7jALpRm3IrAdx3ALf/X0NHkBpIYMZCPejzgoJCAKccBLk1qgADatCXbktgU3VKALdfg93pQAP81yYyISYci3AQwB0H8LH2wh4MJDBnp9KOZKsSWABnBHD7AnhtUAH+J9QTTDiY6CCAuw3g9s9bT7UrHgA92Rb3oFcCuNcA/lZ8XWfjCJirM7fFHARwp39q+wBcFT/tAXRlV7sqGFsWFMDjBXBCAXzSgQYYGIDtj6MMzsoCeKwAzhjqqw40wNDJet9nCSyAmwfwa/ur0oEG+D+P1dPiSQD3F8AZBfCh+AEAoDPr6sbgVgD3F8Cv1Tfa0SgCZuvsV4FDn4gVwKMEcEan40kHGqCziXErgHsL4H3CRUW+BHz9zSACC7Aun5ofBXBfAZzxmLXSgQa4a7rOyLrNmwDuKoAz4u+kAw3wR7+EtseeE65gJ4B7CuCUh6xr9VYDgP7EetAvC0mMBQdwRgG804EGuHO+TukOrgRwPwH8Mc97DKBDT/XVyUEA9/JvpiwyxLosvxlCYCHW9QXSWgD3EsApZ1BddKAB7p6wM04pvPNASgHcLoC/ZwxvbJ+7DjSwHLEXcfcZl7AVwH0EcMroruprcIAuxRrAOQXKswDuIYC/d3BBRyMImLFHnCDvOY1DADcL4JSx7eEBD6BPu/ptWPe8iiSAWwVwzj950YEG+AuxFdicbVjdxcYSA/jcQXPjbAABU/aoG3XuKIEFcKMAfu1gYHWggWXZ9TBHngRwbQCnvIIUvZwX4wcsyraDrTrDX0USwG0COKezsb7qQAP8pc2pg21Yg19FEsBNAjipsXExlgB/Y9XDNqzNQQAXBnBOXyO4BWtv+ICFCbZ/X3Ku4qsArgvgbzkXE/zY84PhA5bm1MVW1ZMArgrgpK5G8GIMJbA8qx7alQO/imTWbhDA+y5GdG/0gMUJLtVlZd6zAK4J4D56GlllOEDPgjPluYvnAAHcKoCTWhobIwnwM8Ee9Gsfl2HabhPASTuwgl+61IEGlumti5blkH1YAvjeAE46Ayt6KZ/GDlikSx/FyloAjx/AWYMZ7Gf8MHbAIq07Sb1nATx2AKf9gacuFqIBZjZvZ82Wm4MAHjmAz3080/kQErBUj33s24nvwxLA9wVw1oa6L0+dXAdA54LHUea9s3kSwGMGcFrhGX2n7GzoABN37Zdbt28CeMRxPGZdx04HGuA2q14mzJUAHi+Av3VyHV4CBhYseGxR4ozpBP/R/r20V4DDa/kPRg5YrksvledWAI8VwHlPUcGl/A8DByxYtGY5pl3JowAeJ4DzYm991YEGuFlw91Pe8mEoRATw4P8u8fNDwXaKYyiBZQu+uJk4fa8F8BgBnFd2Rt9BcgwlsGzRtmHi0QnPAjg/gBP/ucfjgj1kAAAgAElEQVRuljMA5lY8Jb+6uTkI4OxBzPqqc193EsAk7PrZObMWwNnZlzh60f18L4YNWLjoq8CZhcuzAM4N4PcOrmGEWhxgGk4dLd0dBHDm/5YZetHNBIYQYNXRzLk2e2cG8L6j57i9UQMIvj2S+gmbZwGcF8CZ/1rww1peAgb4En4VOPMwjh6iZLYBnHcG9JfwIRxeAgb4El+9SzyM49aLEcADAnifeAGbntooAPOavsc5jOPG4xwEcHwEUxsX0ZfZvAQM8B+rrmbPgwDO+M9SG9DhfQR7Ywbwb9uups/1mwBOCOBj5u9/7WkVA2BCLl2VwF8FcPsCNHXZILyI4UvAAL8XndeuOognS4gxP98ClfuHRdcwfIcBYGgFk1uB/rwlnrugOb0ALt50fLIFC2Cgx75KmJU1xNgTS23HItxAeTFkALfO4CMvwj7XVnRzG77kJddoAXz1+AQwfA7NLYF/1hP3KZ1IACc37Ht7egOYlPA2muSiaqsCbvdvJT8sXfrawgcwMdFtWNkRuFIBtwrg18oftwUL+Bd7d5PaSJKGARhJYGpppqAWuVIxG6OV5UUj+jT2rIRPMeWBWuQtqhsKEafsoYaBqvafMiIyMiL0PBewiRTx5vfFT/KOyduwvs78D+1UwHkycO6G7+QC+D8eGEBKHTP3RuTNoAI+e6yWfE6hst4JQGt2tRUy60EAn/v2NC5358XBFiyANKvaSuC3LoUWwOcG8Me5i+/RFiyAREN1a3l7AZwawLOXmwdbsACKT6XzX0e1E8BpATz/lZ2jLVgAybN4qG4ufXUjlgA+L4C31b212YIF8Nxjfd3EOwGcEsCfZv/LkwtgHyIEeG7ynfoF9tM8COD4AJ5/v/HknXs+RAjwgtuhvhJ4sxPAsQE8/yBtBluwAHL4UGEJvFS2dBDA8xeb0wvgf3tYAC8VNKHCgmYtgOMC+Ov8f3eob+M8QJseKyyBX/w2sAB+N4ALXDg1vQC2BQtgQrW5+JreTgBPD+ASIzTYggWw3JRaoAReKF7aDuACUbcKtmAB9D2nrgXw1AAusABc59saQKvGKifVowCeFsAlvjg0/WXt5EkBvOpQZ1txJ4CnBHCR4ZleALsGGuCNqTxUWQL/NgrgCQG8rbIAdg00wJRas5ISeC2Azw/gTyX+5vQC+A8PCuD8pKtma82DAD43gIu8EUUUwFsPCiBvZfOt/P8lgF8P4CJjsxmcQQJYvrT5WOL/2owC+KwALtKQ2AdnkADmDLoza5vb0m8GAvjVAP6zyF+c/iNxDTTAe6ZfCF3ofMnvAvj9AC7T6J1+Wq3QiwFA07N5qLW6GQTwuwFc5kmMziABzGBXawm8EcDvBfB1rQWwM0gA71tXWwKvBPDbAVzoRWh0BglgFtOPmBS5/P+/PgjgtwK4UJl5DM4gAcxbaE4ogQsl4k4Avx7AhVIuYpOAM0gA54loMX4vWp0L4BcCuNRBn4ht8r6DBHCeiE02pRb5/rf+KIBfCOBCTyCmAPYdJIAzUy5ijn0q9L+tBfDLAXxd6I9FbJIvdDgKoAOP9ZbAP1aoBfCzAC61BhCxR77Y/wbQwYweKj7p+SiAnwdwsW3GMQWwpwUw6zR7XeqfGwTw3wO42E3Lq+ASDoA5xTQaixVhm1EA/y2At+VeflzCAVDdRFusBL4SwL+OR7GIWwWXcABUONPeFivQBfAiNoNLOABqnGod9+zcQQEMUOVc66PrfbsavZUBzF8Cjw588qtHL2UAtc62W+PWr5it8QpggOklcHDkk5/FHA53CQdAmRLYmU8FsEUJgEQx91Ha89qvQQEMUEhUy/HauPVpZUkCoJSonqNdr32K2hVvRQIgbs6NKoG/GrgeHRXAAOVEdR0t+/UoakOA9QiAWIOyhx92duQB1F8Cbw1cb9YKYIAGSmCFj9+B3wFAmn1U5fPRwPkZKIABUsQdPnEUya/ArwAgzYeo2scFhF2JupTUZxgA0oz2YV26uB1YCmCANIdg/82FGxTAAAuIW/+zAacfKwUwwCKO5l9vYApggGYmYFdCewEDIEncHlj7sPoQtwPLPniAHCVwsA/rcsXtwDrdGzmAdL/HJbD7sDqwVwADLCfuU3SqoB4e/ejRA7RXAj8ZudY9KoABGiyB7cNq3VrvA6DJQsg+rMYNCmCANktgtzE07RD52BXAANlErgKftobu8l67/jR0AIvPxX8YunbtrAADNFsC+yhDu1bBCjBAuyWwcqjZJz564gAtl8Ca0I3aKYABmi6INKHbFNuA9hkkgNxiz6R8MyM3aDM4eQbQegnsy8ANOiqAAZovgd1I2Z51UAAD1GPUhL4Q0Q1oBTDAHD4ETejLcFQAA3RRAmtCtyW6Aa3XATCPVfTEbOxaEtuAduQMYCbRS4Oa0C05es8C6KYE1oRuR3QDWgEMMJ/B6qA2hwIYoKUSWBO6EUcFMECNdprQfYtvQPvsBsCc7oImdM/iG9DesABqLYE1oRtwowAGqNRVsEbYr/g1/nBv9ADm9Rg9RbsouHab6LvOwnejBzB3CTzqUvYqfn3hpAAGmN0hvk350ejVbB//ZH2FAaCAUZ2kt2F1AaCpQsllSRUb7K8D6HamPjmLVK2j9yqA2iUcVjltDV+d4q/AUgADFLNLKJZuDV+NEq7AsrsdoIlqyWzd2zuVSygBynkMziJ1JWFjnTs4AApKOLFiGbjGlkbK87w3fgDlJNzGYc9sfRIWgN3BAdDOlO0sUmWOwa46gFYkHEVybMWzBGCREtiyYU1SFvStJwAUl3IUybTdy6uUI0gA5aUcRbIMXI+UBWBHkAAWkNS5tHRYi6QFYGsJAEs4mLov/TXKESSARSQtHjq+0sEzNH4Ai0jqXoYnA7i8m2AdAaBBu6Tp26XQi9snPUDf1QBYStJRJJdCN/78wr0RBFhK0hEWy8ALu0paAHaUDGBBm0EPs107r08AzUrbh6WIard9YQcWQMtVlFm82Xcn3QuAZf0WbMRq0nr04ACaltjItJK4jMTVe4sHAM3P5FqZi9h5bwJoXdplDmqpFvsW1u4BOiim3IhVXuIGLG0LgCqkfVDHfp7yEm/A8ikrgEoczOcX9cbkK4QAtUjch2VLT1Gb5MdlDAEqkdrStKZYUuqafdgaQ4Bu5nRboYtJ3QAdvhtDgGpsUlcVbYUuJfXUWDjdGkSAeqSea9HXLCR5tcARYIC6JDehHUYqkr+j5XqAviQfbQnf7o3i7E9pCI6MAXTmIbm36TDS7JLz11o9QI+T+5NBnNcu/SXJIAJUJ317jwSe102wVQ6gR4f0+f2TUZxP+iKB49oAVdqkN6EtMc5nHzSgATqVoQktgSvOXw1ogFodTfI9vxxpQAPUKkcT2oUcs+TvGBwTA+jYXZDANboa9SYA+pbhpEv4cm8cM+fvoAEN0LkcTWi9Tg8FgKlybPYx2deXvxrQALXL0YQOXyRwPlnyVwMa4DLqLZdSZrPTkwC4DDl2QvvsbF35qwEN0IJjUANXI8uKgAY0QBsGCdxX/mpAA7Qhy05oCVxN/mpAA7TiIIF7yl8NaIBmDBK4n/z1EUKAduS4+18C15G/7uYGaMk+SOA+8tcXmgGastlJ4D7y14FsgLZcjRK4h/w93RtLgLasQq4S7NZgLtaACNcGE6A1x1wZ4BqIyfk75Bp7J5AAGjRI4Nbz18gDtGgdsuXAvdE831W2/HUFFkCb9hK47fx1AgmgUdm2ArkN4vy+w5ht0J1AAlCMSeAz3eXLXwvAAA2XYyHoh5a0zzjgXnkA2nV7yBgIn4znex4yDrcTSABNGzJGwj8M59s+Zxxs30ACaNtmzBgKrqV8c6hvMg61KygBWrcKOcuyWwP6av7mbDa4ghKgfYesCawwe8VV1vy1AAzQgazJ4DjSy9ZjsAAMwK+1WdZsODmO9IKcx48sAAN0U51lTQeboZ/7nHeEdRkAOnHImw9Pt4b0Z1m3PztwDdCTXd6EsBXrZ3m3X7kCGqCrGi1zRpz+aUz/L+/2K0e9ADpLiRC0SWfxkHtkt8YUoCer3DlhIfiHm9zjapM5gKSwEPye3Mu/bvsE6FD2rLAQ/K8x+1uN3ylAf9Va9rS49BPBn7MPqBs4AHqUfSNWCF8uODA2Q/7x3PqVAvRonz8xLrcNfZe/oWADFkCvbvJnxqW2oT/PMJQ2YAF0a4au6UW2oa/mGEgbsAAEx7Q29MVdyrEf58jf+7/Yu5vWNpI8DsCJ2uPztheC8cnSQgg5KZIT2FsgEmFvC2NhcksUWPYDRBgfNYdF+Lo7GB0zJ9GfciXHycxuXixbXV3V3c8zvgxzcb2Mf/2vrqo2PwGaK8BGrNZdypE9CdKJx2YnQJM9DBIeH1u0F2twFKQLbcACaLh/BomP9uzF6obpv3+ZmQBN9zRMgnw8bkPndcKUvz5BCNAGgTJk1YIiOFD56xOEAK2QXRaK4JTKXzdQArREJ1QCN7sIDlX+FqtjcxKgHR6GipIGb4ceHAXrtD+ZkQBt8SxYmBQH/SZ2WNYN12OPzEeA9ngSLk+aeDHWs8tw/eUGaIBWeRouUS7nx83qq85hES6AHUACaJlwrzQbtg4dcvXZASSA9tkPmsCrx03pp+ll0Px9ayYCtC6BgyZL0Yx16M5h0E5yAAmghbJOEdZB7au7/W7gLpK/AK30MHC8rOr9KjjrXgbuIF9AAmipZ0XoCK7xkaTg8St/AdrrXRE8gmu6G2t6FLxrXMAB0F7Zk+AxU8vbKQfh49cFHADt9jR80hTzmkXw9LCQvwAEVkGtV68IHlQRv8VvmakHIIGriOCavAuupPp1ARYADx5k1SRwsahBBE8r6gv5C0DoSyn/GDtpnwvOupV1xFuzDoAKE7hYpXs71n74c7/yF4D/9aKy7CmKPMn9WIO8uh5wATQAn3UqTOBi/qifVuuz7mEhfwFofAIXq5TK4E5ebdvlLwDREjiZMrja4lf+AvCVQcUJXBR59HNJ07zqNstfAOIncLE6iLgUPehGaPBx30QDIH4CF8UiTgbHSF/1LwDfSaUiitVBxWvR0yjpu6b+BeCbOpGCqVjlvaqyqZdHa6T6F4Bvy6Il8Dqe5uEXowdV73n2/heALSMqXgJ/KoTfh2rZi3ilr/oXgFt1oqbUdQiXXwkPunn0Zql/AUg7ga+v6SitFF4XvocJNEj9C8Bt9lNI4OuXwnnv8Q5lYzZdZ28qbZG/ANxeAx8V6VjH8EHv/Z1yOHvR6yYTvZ++Pyh/AdimBk4pgW9yeJGvg7j3j/fD7/3SwxfT6Tp488Vlcr+87/8CUNsE/t3lYi2f5zcO882/Xyb8C8tfALaVpZzAmxAu6uO3vvkEwNYJ/KSgFL/IXwAkcPX5ayoBcDdd6bm7A/MIgLt6Jz939cgsAuDuHkrQ3c5O/dkcAuA+kriWsr75e2wGAXDPBD6So66/AqB6+xLY9RsAROA4kuO/AMTQdxzpPsePMjMHgB05juT4EQAx2Ax9x+3PfzFnACglgW3Fsv0ZgAiyQ7m6rXnffAGgNLZiuf0ZgBhsxdqK178AlMyL4G1e//ZNFABKtu9F8G2vf9+aJQAE4EWw178AxDBwItjpXwAi8HEGp38BiMHHGXx8AYAonlmG/nr52eXPAATnPJLlZwCisBva7mcAIsjshrb7GYAoEexSDpdvABCDZWjLzwDE4Eiw3VcAKIKVvwC0RrsPJH20+wqASPotLoIP+sYfgGgGR8pfAKhe1lX+AoAiWPkLQFu8s/kZACLYb9HFWPNj4w1AOkVwS26H9uFBANLSjs1Yv/SNNACJJXDn0OozAETQ7HVoq88AJFsFN3gd2tFfABLW1P3QPvsLQOIGDYzguZs3AEjftGFXY60eG1MAaiB70G3QbqyVi68AqE8GNyWCV/ZeASCCxS8A3Ga/7hEsfgEQwRHi960RBKCmarsQrfoFQASLXwC4u3c1Oxf80cEjAJphWqPbseau3QCgOTp5LVaiV7lLJwFolqx7lP7ac984AdA8Sa9Er6w9A9BYyZ4MduoXgKaXwem9DV7lil8Ami/rJbUUPe/1jQkA7bDfTSSD55aeAZDB0hcAGp7B0heANmdwL8aerFXek74AtFv2YFptITw/sOcZAK4zuKpCeFP6ZpkeB4AvXgQO4UXee6+XAeAb1pVwkOXouZe+AHB7KXxYWi28mit8AeAOKdzNF7uuOR/IXgC4h/1pL88Xdwzi1SLPe49FLwDsXA9Pe+skzg8Xi9X3Qncxz9cVr+AFgFL1N8eVfmTzX4f6CQAAAAAAAAAAAAAAAAAAAAAAAAAAAAAAAAAAAAAAAAAAAAAAAAAAAAAAAAAAAAAAAAAAAAAAAAAAgJrqD0/Gk8n5+fnV8mK5/rk4P5/NJqPRMNM3ACRiOBqNxqPT9T+jV8MmNCgbTc4ullfLr11drVP4pSEHIG6VOBqvi8T/y6jz2eT0VX0LxeFocr68xflkNKz70A1PRuPTyWQym2ysn52GinuAWhSJPw6qTaE47NcxfS+W25mdvurXcuSG149N32jm1frRqSFLGACNTd+T8dntQXVVs4zKRuNt0/dL+2o3cNeL6z+u7uv6ZAHQeFulb+0yKhud3Sl+P7VvMqpPWK0fm7as72enNWoWQFtsv0j75X1pHcJpfLa8l6tZTbJqb3yXgathdQ/QbOP7lImz1CP43vF7k1U1WLW4fWdZPZ+cAMRvjTNql/itRQSf3G/cavFoAdAC9/wzfvO3/GWqzdrboVk1aN5O43Y1sxANED+nds2ofprl7+7xe928036q47ZbA1N+tABogxJy6urn5j1W/LF5KRaLWQnjluqjBUAbnJSTU6ktaGYllb83PqSWVNlJKe37tfRhO3k12uGnrG7e2+m3sDIAZflpfDqp8mdzb/L6f+JhLe4dKi+n0lqoHb5eliuxIri88r7sR4s3O/02/ynpt/jbTr/Fv/3VhJL8dRnDxflstrmFtxXlb3KvFE/elD6gKT1glFrel1wE79bzHwQwCOCy/mpvvl6Qbtc8LzenzlNp6vOLEIOZzANGNrlI99FCAANpBPDnG3jT7JnxRelVYjPb9blWTGOrWanLFqU/WghgIJ0ATvXmoeys/IYmcSDpLNg4JvGAEeLxosQEFsBAUgG8+R5cajcP7YXJqfgJfBZyGD9EH7fXQcr7q78LYAEMDQ3gTRmcVATvBVqmXf76Mmq7srOwoxj5ASNY80o7yS2AgfQCOKnrKoLl77qVMRM4dP5GTuC9N+EaVtLkFMBAigGcznUVP12EfM6I18jsTfgxjFjin4QctmU5KzQCGEgzgBM5Tfr8ImwjYyVw+Po3agKHzd+SElgAA4kGcBJFcOD8XYvTxux1NUMYKYFPgg9bGQksgIFkA/i/7J3daiM5E0AN3U343saQGPPdGcbB+M6QCaHfwpCYwW+xFzYmb7s7mf/djFtSlaQqzTkXuYxdrkZHVfrp+kVwfv9WqoE3pVJYxcAF0qZhYAQMAHYFXPsNsyUG8io7se7LpbCCgcukTW5gBAwAhgVc91LD4VhmllE8xEXJDBY3cKm0ifdCI2AAMC1gxXsPYumPjSpqOJadQ83bjE78ZCJgALAt4GpHgnMeJP23gYsqqj8WzuCh0eikrQsEDADGBax270HR4dGuorpt8QQWvJWyL5k24cQJAQOAeQFXMfCmVUVtKiSwWHjdWDSuMwJm1ARoXMAVDLxsNcJFywnsNp5mFggYABwIuLiBy2uq0HHg4gvAX5dLy4S3cZU2BAwAHgRceCdWBU0VOow01kpgifAWvuJCwADgQcBlD8t2NTRV5LTOfbUEFgivSnUv2IiFgAHAhYCLHpbdVImwwE6lSg3oMuFVmTZJ4kLAAOBDwAWP6tTZp1TiypGxYv6yryI8VQpsVycbCBgAAbd3lqVamZi9zb6omr/M4S3cxYWAAcCLgEttha5XJmYu8ms2oN9WERoN7lDlQUPAAAi4uY1Yy2anGNvaCczYw+hGf2lDwADgRsB5S6hvlVSzU4yhfgJ32YLbOEwbAgYAPwIusAxctZLK+lqGypF9MVWu8CpPLk4IGABaF3D+JvSmcoT5mtDLhmdQ1ScXSWlDwADgSMDZX9xXe59SvilG9chyTjBqT5vS0oaAAcCTgF+f8/4C9du0uda5Nzbyl2WCYWB1+6X4w4aAARBwU03ohYEI89SIvZUEZmhCW1jdTtlfhoABwJWAs+7DMtGmzbNRaWsmgTv12EwU9wmdCwQMAL4EnPEoixFL5ZhiDHbypz7BMFLcxy+OIGAAcCbgfIeBrVgqQ5d9NJTAlzZji18cQcAA4EzA+UrgsdkpxmAqgboTjIXbiQUCBgBvAs51m4OZkVx/H9bWVAJVJxjd0e3EAgEDgDcBZzqKZGgk1z7t3BtLoOYEY+N3YoGAAcCdgPOUwJt2pxjbdhNoam4RuTiCgAHAnYCzlMBGbopK3dDjqQDW3IdlaXdZbOcCAQOAPwHnKIE3jRrKXGiqEwxbu8sie+sIGAD8Cfh1r18AN2qomanF7e+clGIbjaVtXu7LI2AABOx/H63CMGS6BF5azOCuxQI4cnEEAQOAQwGrnwU2N5IrHpYdm51CdeZCiyqBETAAeBSwdglsT1JaTVqDcwu1KZTB2v652EOHgAEQcBMlsEVJKZXA3bbdKZTBxe2YEhgBA4BLAeteKGyxS6tUAvdWMyg/S7Z0HhYCBgCXAlY9iWSzS6tTAi+tZlB83ZfF3d1RDyYCBgCXAla9jMPkNiWlEnhsNoNL72EhYADwKWDFbVhGu7QqZ4EHuxkUNjFsFsAxYSFgAPApYMVzOka3KakMsVvDGZSVwEv3YSFgAHAqYLVzOma3KSmUwFbLRHkJbO8McHRvBgEDgFMBq23Dslskyte5B9MpfG4zsj0CBoC2Bax1FNjUa5C05xij6QxKNkIbjuxcJAQEDICA3fegl4ZD3AtjMzy5EM6hhgbCQsAA4FXAOj1o06uk0q3eN8ZTmB7f2EBYCBgAvApYpwd903KIY6sp7E1HFbh7DgEDgFsBq/Sgja+SNt2BTo9v28KTiYABwK2ANXrQg/EQVw0Hl14CW59ZhKUNAQOAWwFr9KCNl1KyYXZrP4VpXYyl9bCCDlghYADwK2D5GNRbD1FS5ZveX/aNVZOBBaUNAQOAXwHL74M2X0q9PjTdgU47CtxIax0BA4BfAYvvg7Z7n6HGJMNBBzptFcFBYCFpQ8AA4FjAD8KAh6YnGeNrm9OL/rWNtCFgAHAs4FPVwcd4jB48lVQALz08mgFmQsAA4FjAwoNIfdMx3tiPLa2/fmwkbQgYABwLWLgI7KKUSj5stW00tMHHo7lHwADQtIBlL+wbXcSYug3r2Ghk29dG0oaAAcCzgEWLwE5KqcQyv9VrsPrXVtKGgAHAs4Av9YYe62W+/SXgtAJ46eXZnJwcImAA8CxgySKwi4ui0kVlv7++azSu0G1YCBgAXAt4334HOtFUxzbnFf1rM2lDwADgWsCnWiNPSVLG2qHNacVs4+fZnJphIGAAcC3g9Jsa7b8sN7yZ+Q43bWauOzp6OFcIGAAaFvDrPDXYwVGQu9LjqtkC2FPWpnbPIWAA8C3gXWqwo6Mg4xvt5l8zca6hC1sxImAA8C3gfWoH2lOQ8T1o8+GlTZxcdaCngkTAAOBbwKm7sG4aGskdtmoTC+ChpYcTAQOAbwGn7sIa255mLFubUTjsQE91LhAwAPgWcOLLgjpnUcaGZ9xUidMmZx3oiXkGAgYA3wJOrKVu2o7SuqkSC+DB28N5QsAA0LCA939ABzq6B218D9a5iixqdC5WCBgA2hVw0kDkrpcZ2YM2XiomFsDusnY9UgQMAM4FnFRNLRrvtC/bS5nHDvT1UBEwAPyJAnbXy4wcb7cNTSZ+sPH3dF7rQSNgAHAu4KvLbO30MuPmGaaXuA+pz+fR4eP5jIABoFkBp7wSeGg8TNuHrFILYI9ZuzZxQsAA4F3Au9KDjrlS6j+Y3gSd/AbJpcvHc4WAAaBZAT/HBzo6DDOmB226VkwtgF1m7doxOQQMAN4FHF9R9S7jnIcH+D/9T//0Rs0C2GfWrkycEDAAeBdw/DZon73MXalB9b/yfVx/uLud3/7Dev0otPAq9em88Sng3weMgAHAvYDnsXH67GWe6gR4+fjh5x+4m81u758qFMAuF+4RMAA0LeDo1zF0PgfyiMuwjor6fffX7R+P2jqazNrRZ9peaEEDQLMCjh7Th9fG41RbLb0cfju56e6ThJheADvN2iFXnwIBAyBgX4ujrnuZ+9KuujxcLUlTFLz6wx5ObsICAAScpUFbeLE7NECl7UrnCVve9tFrwekFsM+F+8suW0QIGAABGyDyILDT4ywRi906u7wPAdVqbBGcXgD7zNpLvikFAgZAwF/dcPl0/PQp8I/2KBc5CHg9zhJe6m9L+fcfL0YVwYIC2GXWDhlregQMgIC/sL5bf1iH/rkTnyUVDetbtwIOLfU1urVT/edvdPdFCmCXWZv4DREwAGgIOGpknc9mt+snxXEuLsqjWwGfy0UY/o6pbnHMNFPynrXre9gQMACoCDjhlYC392pD6iXqgwe3/g39mTVOzH6I+EXvQj9PUAB7XAKeUiQCBoDiFfC3MXWsIuCMi4mXt/uSL7UXgfv87kjKpKQAznt76JeLrpWL7MnXHiNgAKgl4Fmn1Yaex3zqmGcIP3xcf/sat+vHpzwWDht05TV+7PXaYQYWFMD5loAvnxPXva2MzD9vTlBL3HS7AgEDQDUBqxk46tOPWQbxL2P4d+b9/acMHxQmRrGAL7scmZQUwJnuofycuNmv07f+/knlswJ+QwQMAAoCTlgD/jKu6pSjMb7QXwK+PL6/YLp+UrdG2O8sbrInjO13T5kmaWpd9ff0u+7ej0UhcQG/IQIGgHoVcMT+HTUBqy8mPv5uv1I3Wzxpf1hQpJtiO6B/zuSUTpt/lbYAACAASURBVCQFcJaF+8PH7v0Pmyso+BAQFAIGgJoCni00htJ9sfHmnVH8aoWvt9U7wmLSENOG9ikDSwrgDEvAl49Xv9C9zI5Bp6gRMABUFbDKnqgIASsvJk5eF3WnWwSf8w+pyQv617sZogJYf+H+ss6ZuLBFdAQMAAoCTl0Dnums7v1V9uN+8P7Lcn8dyDeq3pgHxCic0ySrcpGtAFZfAg6651rwXBSYeyJgAAQsHl4VBBUxFi00bfgQVBnea5ojpLQa839EtLJkBbD2zrmXedCzklp3n4L+PQIGgNoCVqhuTqWGm1/9G3hblKqBA66DFnbZz+mp7DZ5CmDtJeBQdyVuETyH+RcBA0BtASu8BDHCGaOef4Nj7hTL7oC5Rn/MrfjfcjvmscVYxb+zbkj6KXdFokLAAAhYugasUQKHC7jT829Ep7bTWwe+ZP89RbXqb2pG0fOhmbVYc6V0oYNnMAgYAGpXwPL6JlzAaouJYeu/39Ez8PQv3Rf6LSOKfaEshlr+TdmJdSj03CNgAASsIOChQFmo1u6O2uf6A7XTSPvMP6dst9T7d1IKC2DVy1MOXdxnx06dzuGxImAAqC5g8dncS6ExTzD69eU+WSbgnfAZem8FWuoKxSXg8yrvh8esTCBgAFAQsLDE2RYT8LHWMC7dGhXRIpYJeCV9iAb1AljxGo6ErxI3PYzpjCBgAKheAYsP5wYLuK82jKsdRpq+iuMmr98nA91oq0LxGo6HzE9nVKgIGADqC1jagw4WsNKd/kljn9Kbn6Z7xKIV05P8Kfp3rS8ugPX2YKVJK3wZOK4zgoABoL6AxYt88+wB/jLMzpOCVGpC77MKeK/wGC2UTaG2hTwxccHzw8ipBgIGAAU/1d7muioy5ElnGzr3cUzWqKIRdafwGP1a64sLYL09WKnBhZbgDyXjQsAACFilAhY2GUPHeJ1XIaWPfComOefLosYerLdaX1UUai+wSv4m3TbL/0fAAGBAwNIxNvDjVRYTg15IFCCmbLMNyYh60XmQNpoFsNYerLMgcccc/x8BA4ABAUtrw8CPV9mDJWnSbkp8AcmIetZ5kH6aUMk9oXWTdubEXXZlH3oEDICAdcqcbd6iUOVTFBSlsg/rOWOUJ6UnaalXAGu9CumUOXHxJ5wQMABYqICFtemqxIinsUtpmd8k3dbAePp9H5aCJnT2YAlnAssMPkTAAGBBwEMJAWvs5hH2aEt8Bcm4/pfWo7RQK4CV9mC95P0WCXejIWAAMCHgroSANXbz7ISBKixDT+0Ck4zre61H6WsJrGAJnT1Y4pnAUv/fI2AAUBCweHgTljlhWrzJX30WqedW+cb1ndqztFAqgJXuwXrOm7iUKy4RMACYqICFg1GYNxT2IMsFpbAKvA+pPWsL+O1rvFR9KHXOjoUk7qXCM4+AARCwkoC3OWtClc9QOqWjsBH62UMF/LlyVdCe0iboZ/n3uFICJ54wRsAAYELA/89fmCq8DUHDT/I6/OShAv78PZ41/o/GHqy8M4HURjsCBgAFC8rX+kSd2bCP722M4wpfI5+AV4pP00Ll5+qMFMBXEveQ+A8RMACYqIBl1x0FffxgYxxX6KnOs5WMmgLuPmr8F409WBedsEZlEyJgADAh4CG/gOWboHXG8b/ZO9/VtrUljgYkEc7bGNpg+k3QluBvgrSUvIXBMcFvUbgxwm976S2XE+g59pZ+M9oz9lr5Hktb2rP2zP4j/WjFwS2u9+HeSYvjQ43O9+osJ4ARMABEEfBHfzPKy2mtDkqW56K3bhnwcEXvpP2w4mCbXSNgADAIdpU/eVP288++iWc58k6k/7jdZzwBP4dJgP/5wT3VujUEDICAjXKM1j/FUZfTmqwp+sUH31T8ujJgg0XQZjfV2GoQAQPAFQi4RI3yctoXs3ZWs7rxdjJgg4Moj2YX8+fkgfCNYQQMAEEE3LjnpvJy2t6sneVLWU2yhNnscgUMFkHv/K5Gm3pBwABgIGB9Dlg6I3ks+YX7MImUfiD04CXgn9FeSYNF0Cu/B/ck/TcEDAAhMuAP7gL+FCeRkrcCb73i+lu0V1I/Otv0ljaWDkTAABBCwP4ZsDrx2hs2dOc5GFBu9BjtldQXQQ93Xg9OmgBGwABwFRlwkTbEsq+pmhrPi3n2HsosibwI2mzt+h/XI8+7IGAAMBBw5TngEjk2nknnwlHPUcCrWG+k/vlk46L6xmoCGAEDQJQMuPUOsup+lt60pR8c0zopog6x3kh9F5LxDXWGAkTAAHAbAhanXY1rs2pm13tF1G2sN1LehWSe0h+MJoARMABchYBLooC4nNa4ktls/PK6TaD7VJEXQb9YX9Gj1aQLAgYAEwFXPgt66x5nzEuzolm2XncabBWWul/LvqTeGU0AI2AAiJIBd94CFvezWFcyG7/ETouofag3Ut2FZD+e+D158FL/5hAwAAI2CtsP3mmONulqvj9W/Cbh8XKRNMRq79oCdqiob2wmgBEwAEQR8NpZwOKqp12gtr4k4HWsoYaebsZa1P1gMwGMgAHARgp6RJLCQMGvi/tZ7Auz2vrec4t719FudT7yLqSVyzU92fwnBAwAITJgKRhV9V2d5K4/m6JdSw1a3YXkks4/W6kPAQNACAErOipZaaOlhR6bc7TwO7hZK1INWt2FtHUZFaxCvAEIGAAB2wi48VZGvJVJ66ACjnQY1ifxVvrQ3Q0BA4BBvJPngN0Pwoq3N6fzGhKoE6eBUmBxG/AYu7shYACIkAHfewcBKdi5fKKgPTgNOuSVS3FSYHEX0lvs7oaAASCCgD85ZYP/R1vy5JMTPjtdkmb2SCmwugtpiN3dEDAARBDws3Oc1aTkszD40UmS+if8noK8j+onJPvY3Q0BA4CBgNU54MY7zrYBMylpEvhMVVw8ZOtkdtCETHslmTwCBoC4GbCXi5b7gcX10nsF9l/sY7yP4nru4FPACBgAIgh47Z3orCNmUoewAj59C/E+3ms3MQTvbggYAAII+Nk70XmMmEltnOyy0QU8hpDXX1c9BYyAAcBCwOKkYeseiaQos42Y4O2cRhuRpoE1N4zRuxsCBoD6GbBWahy8Y51XNtg5Rb61gYCNvrhX0w3Rp4ARMAAEELAWiXrvX/Bq7sZJL52FgE/7+gbW3ott9O6GgAGguoC1CnRJsVTaGuu3m+XZ56psBBwgB9Y2NA/RuxsCBgADAWszhv5fkPfKNSvGvqPXgObdT/R1X0fxHI7w3Q0BA0DtDFg8OKLEj5KS/EqZysjj3EkcBysDf676OrbuAzMEjIABblvAYsV06/0TfqVM6bJWXqXb95avuh+4cx+YIWAEDHDbAtbiUJEfH5xMVzPF691a9D3f+3qvY+c+MEPACBggvYCVOWAxAS46J1Kq9To2+MFn4LGxE/BpX68M7b87DQEjYICbzoDFdO3oe2O+c4nPLoJp1oYCPo3fV+leR9/CRQwBj682HBAwwM0KWN0zUxQBlFG+51yicl1br9TxD14rzQRvTkHHTSEEHAMEDJBYwPK38wbvULdzbPB7n9DXGUfZcd/XeB2lVyP+GiwEDAAWAp4/ByyfW9x7h7rBscE7H8O09oG2hoIlQe3idzcEDAA1M2A5VyurNB68DT+T1unODw6h9vviq7GkuxjidzcEDAAVBdzKMaio0qgcqVS0ynp2Af7gI2CX0D5+/7xa9HWUBNzH724IGADqCbjRQ1BRouOVaFaNwWe2RzUbn2g77r8sqGCpkD6u4nc3BAwABgKeNwfc/NADQFGcVUK572IexZQuI6mLc8HfFqtESwJOsAgaAQNAtQzYwr9lcVaZaX5xbfFHn7FH5xhyX5eaDJZuIsEiaAQMALUE3Br4t3Ctq7LbZxtWMr1T8lig4C/hBfySoLshYACoIuDmq8lK3bLfVQQ8hJXMmStrnMPuuF/gbA7pOJEhQXdDwABgIOCpc8DN11cbEXgPLLxX07ZOjnGP7aP/8VhrBIyAARDwZZ6+fCz++/L9x8Go+79535f0mYmSkYjQEueK45sFYu/4beXaNtIZLX2C7oaAAcAmU6xCYZ4j6GiMG4S3XtnjhEq053osZRCRYRcSAgaAxAIuDbNCpDvGDcLnFqB1Sz2C/ZcPEf2UYRcSAgaAxAJ+84903ttZNj6X1i73EF69dgYjYAQMgICzV6CVMw29t7OsfQTcLBncnRSs3EKGXUgIGADyCrh4ftZppZMFwl6bo1NmPedJeBzOoazU22bobggYANIKuDTNUZYaD85N3jkJeL30YMhcwcpTS7ELCQEDQF4B94W31QaO5MK1jU5in63g3rZlEDACBkDAQSleaNMuIPnZeZ6TgKX8cbaCV1EE3GfobggYALIKeLtAmdd/P+nB6dqqRPfR8HgsZdiUYhswAgaArAIuD7KKgN3bXBDw2TTvsc5TeTWbClaK6GOK7oaAASCpgMu7vtdCp9pRuPfyl4TV6VjKDaTYBoyAASCrgPvi27qPHMk3Ti0gTaGKdWiTAjACRsAACDj5EixJwG+R23yIGt5NkuDu6rWAgAEgp4CH8ttaRxbwX15NUPNhWiTByueAdwgYAQMg4AAJsLIeyT+S33sJuKv6fPa92jDKUSJbBIyAARBwgARYmWb1j+Sd18XV2An8fjm0uiPpcaG3AwEjYAAE7LbKZhM5krsJuHZ8V/cEbxAwAgZAwAF5WijQ+Udy4byJnVtx26gMvaol4D5Fd0PAAJBQwMelAp1/JBcE/OL2n62SYKX5EDACBkDAyWeAgwv4zk3ATf0APz7NbpZGEXCO7oaAASCfgI+LBbqVf6PPXyt1aY/U5pTZwMJTy3ESJQIGgHwCHqclwMqX3RdodD8BdxEe1uylWAgYAQMg4HC8LKa4MXQYvlQIqLwRSTSwoKccJ1EiYABIJ+CpS3uaWxVwhBr0fAMjYAQMgICjMXVaURDwEpF843d13SmvgZUlZG85uhsCBoBkAj6uJt5Ve7MCjlGDnj5noF47AkbAAAjYg37qXQkCfgvd6JeHBzFq0KdxhoEVASexAgIGgFwCnh7LhQMpYgv48gx1F+WpTd+NpAj4JwJGwAAIuH4BOryA144CVnZg2TIsWLdAwAgYAAHXXwEtCniJ8CIIeOX4z2s/OEXAWwSMgAEQcP1SplSHTS/gNsyTm1q6UK4cASNgAAQcYTmtIuAlapkPngIOFOTfphlYEfCQo7shYADII+AZE8B3nl/cNWH+5ZWUdbusoycEjIABEHDuCeBbF3CUrcCnqUd4I2AEDICAs/v3tgV895j0ASJgBAyAgMOE77lftutiR3LBNL3vvzdnj4ARMAAkFPDsL8vetoBDhfmnRZpl+mFpCBgBAyBgB//euoADLcOaUoT+iIARMAACTu7fu/vbFnCoOL9folkQMAIGQMD153/JgJWNxjUHUh0CRsAACDjv+mcy4F8E2olUdngIAkbAAAg4TNT+thLu6iF2JHcXsDICsaf0OA5FwKsc3Q0BA0CCEvRpL6hwfesCDpUCl140AkbAAAg4Bq/fapSglxBw439560hP8oiAETAAZBLwaZxt4PXVCngo/YlQKXDZVSNgBAyAgOOUoWfG1esVcL9AE9RKgREwAgZAwIEi9zwfRhfw/PR0KP6RULG+6LIRMAIGQMCRytCzhHi9Ai6+vCbUXuCiFBgBI2AABBzKwJ8R8KwMuAkV7HcIGAEDQDIBzzIwAr6LdSJ0UQqMgBEwAAJOb2AE/ItNpKe4RcAIGACyCXjGSizmgH/RHiI9RASMgAEgnYCnG5gM+H885loIjYARMAACDsfU/cBkwL9/J1K8v5wC8zEGBAyAgOPxMu2uyIB/E2kr0uUNZQgYAQMg4IDsJt0VZ0EHLEJfHEQhYAQMgIAjLoWelPpxFKWea9s/wkvzCC0CRsAACDiigaeE2OAZcLvc5UXaDHxpDPURASNgAAScfSFWh4ADFqGPfs2CgBEwAAJ2ZMLHCYUMeFig0ZcUcKSV0L1fBjzk6G4IGABSCnhCEbpDwH//WJxp4J1fBoyAETAAAvYsYRYXoRHwO+LsRRoRMAIGgJQCLt8NTAn6PXGmgQcEjIABIKWAi4vQZMDvaOJMA78gYAQMACkFXPZd92sW8KTNWH8rOMo08Ogm4C0CRsAACLhiDdNCwEtE8m5hAd99PGR4fspyMQSMgAEQsHMKtULAc/iaoQaNgBEwAAJOvw4ruIAfFhewcjjnYjVopVKexAoIGADyCrjMQIKAf8bOgFdzfzPIUugBASNgAMgp4NObs4CXCC/rCgK++xHi8e2cBPyWo7shYABILOCiFLhFwEENfG4du7JdCgEjYAAEHCIFbmNH8rWLvy7RhDBw7yPgY47uhoABILOAS86iCC7gT3U800Yw8OCjJwSMgAEQcIgUWNjQcgzd6KP0u81j7KeHgBEwAALOngIHF/Cm1tV9qG/gc1/UEPQ05uhuCBgAcgv48l7gBgH/M6vHyMMnBIyAARBw9oXQgoDH0GFYHx5U/zjhk8fA5HRaIWAEDICA/dldvC0E/K85cHeo+/DefATcp+huCBgAkgv48m5YIdAt0OgHD3sV077WnQRGwAgYANIK+OJHkZQdpf61zKaugGtvR/p3VT46vhIIGAEDIGDnLEoOdAukUp7rz4r4egg5elojYAQM/2Xv7Fbb1rYwapCM6dsYEmN6J6iN0Z0hMUZvYUhD0FtsaIzJ256ktD277Epe0pyfNOWOcZFL2/rJHOtbc2kJEHB0Cl2h01fybGwBZ7NNFbGAWwR8QsAIGAABj7ySJ76ADft0PXn9hvvxpqGbpy/mCBgBAyDg8MuwrhxWGbmSx3hb8aoOd+1WwiEZAkbAAAh4kGVYCDhhInqsEFwoEjACRsAACDjEHPQucn1ZRJkfvx/HByeFgKexGTQCBoDpC/jKMizDcp6v8nP+KYqAs2yU5dCNZzhHwAgYAAHH56QKmefI53zv/FOy7Di8gs8KAU9jM2gEDAA3IODzdAVsaFAX/r8mH1zBja40vMQqYXc0BIyAARCwTxVvddFcoIcIVbhQ/J77w8AKbjqKrH4LdmoQMAIGQMD/5WmyAq5Fo47e89CzzbAK3vufmYlshYWAAeAWBHxWCVgepQwCls2z3m+PAcZOFj+dEDACBkDAA81Bt8nIspxHLWDDTpTKdH43nIJfFX56msK/GwIGgFsQcOucYy76XA/ymAJ+V/BmIAWfFX6axE4cCBgAbkLAbRXXspxHPZc5F5jLK5wPs0V04+RF+Rb33CBgBAwQRsCXzWa72Tym/DlsD8fjy2XIOejAAg79iNQsG2A9VmObfYeAETAAAk4oeNndLFvOEv78EGW2Oby4VoJCI2D1VlgGAQ8yzZptX9QObprlX6vGYwgYAQPcVALuUdpnm6NjbT9pKp06SpXBBfyO62XqIOCFajyGgBEwwE0l4H5f6Ljrw+s0BWz4acOt9L13nq1IO465wuoIGAEDkIB/xSuvVqImZl7iFuHTgHdGLnws6RUB97ozX3yoETDA35mAZx9PnDqF4L1GwNq5zMgLtH//oToFN907lqfHJvEgsE3AXzMXTIvNETDApBPwbLZ0MnCLjyzLebQCtrxxYOiQp9qcQyLgKTwIbBSw069AwAB/bwJ+575W1vGZbTmPVnPzt+kI+GNzDkXbsmnFsultDFN4DgkBA8DICdjLwBeNgLVzmRYBFyPcIW4Ng5QDqQVWR8AIGIAE/LuHamEdt2lOW2Esk+PjKCbzV3ChEFQR/98NAQPA+Al4NltJm8CWbqK2mWipfiPdJFnu3QreKwS1R8AIGIAEnFTVd/Y6/lUiYG0z0VCDL+PdJ1vfx4KfFGqYwDJoBAwAERLwLLcv72lRZdhmYh11ZHDlah0956G/ud+O0zADAgaACAnYuO3CNVVadFEoRTbZdb6eneCmWf7F22RPDwIGgOkkYGshaG/7VZJPtTMXaGsgHN9VKBHwJf6/GwIGgBgJ2LbvglDAymbiasKlz28t1lkyKVKE/3dDwAAQJAHbWn7tmbAMmjQtv+s09t2SbZ0EfJEMyfbh/90QMAAEScD2CHyWuF3ZTCwnLRgvAzduhSV6Kg0BI2AAErBrKWhbhRX03e5ZNe2E52XgpjNsWugVfzdoBAwAURKwfSH0UvLJhU5gk+9x7lwEXCgEHH8ZNAIGgDAJ2PyG8r1EwLqoOZeMNqZn4EJyPyyj/7shYAAIk4BNM8WtC5ZN7eWT7HxbnrMJ8raBu8pBwHuJG/bR/90QMADEScDWZViNbb9M8qmj1r4oM6yWNxpfU6VtXfwp+r8bAgaAOAnYOgfdLOA6pOqqGxCwx3s0TpIZkfCrsBAwAMRJwNaOYqOUTMuNdc3E+ib0UskEbFuVF34vLAQMAIESsHUd9FJS6/aq2dvbqHz2Lcz+kXzypUDACBiABJyKaaq47dGcUhHQrJj2Og70uj3zSuhvGrXvg/+7IWAACJSArdOZjSXX1E1UzfaWN2IX8zqsV8147GvwfzcEDACBErA1TJ0kAlatdzIV4EjzqzuVgG2Kir4VBwIGgEgJ2NgE/kfyuaJmoi3fRRKwtQt81sghehMYAQNApAR8L3oOKeKLdWyDguXtqEQl4OhNYAQMAJESsLHr1/gzbG1KzYKnkNPio0xcnCWnKNRCNQQMANETsLEoXTRi19iuuh0B34nGTSqxI2AEDEACdi4HF02xk8z32sYEwbZ5Eo2brM3lZeh/NwQMAKES8GdNxc1sZaYQnGybXILNri5iCniPgBEwAAl4mErebMpdON2tb0ktuUbA1o1ZYm8HjYABIFQCnosizyJcIS9vKtvVEgHLllebWDlNiCBgAAiVgFUCNu7rv3Q/18ZwVwS7dWxlXPSxotNUnX1uBwQMAKESsLHrdxJ9rn8hz0cYEWwi3jqtArbusXUSHGrmJT8EDAChEnAmKrjGwOnfBLa1gHud77zW5WbbriKqCRHJHPRHN+MBASNggJtLwLM3UT2ogxXyavjfsxMuSrIF+qVKwIoHkT6M5bLLJQIGgFAJ2CjKV1G1c28Cj/Cin7wWbmCZaTRpftfwyf9Iv185jzYwAgaAWAlYlVSNy3n2kaZs+3llp1w8bRtQLEW3g2L9+tzNfwgYAGIlYNXU7CJWIR9+PPB9O2zd5oyW69YSzI3PIQky/88r9zDyrY6AARCwcwKWvQJ2ZSzkzqfamOyKfgFYGIFLTQK2PofkfsC/or69DYyAAeCWEnCzJ63dxML1TM8HHw78eB/UV9W9IxLw2ipg76mLud89j4ABIFQClgnY+HyT84NIRq/0qP07r9w2rIDNy6C9D7j0UyACBoC/IwFbJ319u6fV0D/m1wuRVRHYsmVGS6PWvAza55Hd/55Hh49GwABwUwl4qXKe6xy0VSvdy95OtyrJIdM3/ybr6xi8R04rx3SNgAEgVgK2FdyWkvjZWMg956Ctnc2TIbg9aO4dkYDN4ybn7v3vP8f2NDACBoBYCVgm4EWcJJVZrbI3TBCLnkSyCLgllRtf5Ow9cso9LYiAAeCWEnBL3JnHSVKDb7D4W+fyJLl3VAn4s1nAF+FRXizzCQgYAG4pAbdYMouTpHZDK2Wna4r+xPSctXKw4voocOW5yBoBA0CsBKyLqXWUJGVeWNT1bOe1SkhOCbjDpO+oN+cfRgPPCBgAbiQBZ7q0U0VJUivrD+la9UrluuAfLEQCti+DdmwelK4iRMAAECoBCzesMncTX0OUvO5d3Fw4J+uSgC86Tbm66o+DgUvvs4mAASBUAp7rUurCXMiXIcYYnQVaah+NFQvYvgzabTeshe+nI2AACJWAhQK2L+fxWYa1HnggkEuXJf1kpxKw/XS5rZ9rMObz0vXjEDAAAh4nAS90AjYvg/YZZtibmh03syqVy5Jc6vhFOSTrcca6/pJHBAwAN5CAPwkFbO8meiRHe6Lr1ov+44y3/3ZYpWpg47AM2ikCl873BQIGgFAJuBQK2N5N9Bhn2IcB3+xn1LaHovdhtZ9Wh2XQLsebN/+Qc4GAAWDyCbgSZtSdvZAX5gMcemOJXNoVHULADquwXOYu2m6f5+HvdQQMgICdE3AtLLQrex23P4lUDTwKKLULg39NL9Sys7rzELC9C9x+hA+D3woIGAAB+ybgXJl0PLqJVm/NB3ZJrq7fHuf2VX3KPCJ/e+++z9PACBgAIiXguVLAHpsqWSOwQwDuNNgpPY0xjoBdVmHZI3/t3mVGwAAQKQEvpAnVwX7GCOyR5rqMAfIB2vYJ+fAK/+hmt92Etfb/fAQMAJESsHnBzV766dYInHkMAZ6czudDjFvnqoBdxk3WoVPCKKDz+UTAABApAVfSKrvwqOOWqdvVwD8gl07Kul24U/tn73wEbLpH1wLDI2AACJSAc23McVnOY3ik1GUytYs3S/GS7v9TC4cUPquwTJE/rwV3BgIGgEAJeK61k083sX8d3w0c5HKdkVxHTnv1sMwc+XcKJyJgAAiUgEuxgKtR63ju4v9Xv9N5LrzunIVSwC57YZmclXrluo1oEDAAxEnA8vcUlKPWcZ/FRCfH+QS3h4FtJ7YY5MQZIn8lGZshYACIk4Dtzb4rAl741PF9r6NbD/3llepIvDPqUpqv7ZMX6WvnOrWBETAAxEnA9oB6ZSDg1E3sta+hzwR0h++e64zke16vHpLXKqye92mXK9dFiwgYAMIkYIc1Uhf5N/RdP+zTf+6ikGq4kdNaedE83uRs0lanK7cXfS4CBkDAyjo+1+vJq5vYvZno9DBruvvnA9bxSjymqPwM3P3KdXt4u8OcAgIGgDAJuNIL+JNXHf8ireIea7AqmZG8Z/avjylKPwF3vnL3HWdN0tvACBgAoiRgj07feYDv6NM87VrF+68Y7nykDm3gtVrAc0cBdzzevJKZEQEDQJQE7DHPeK2W5251vNMztLmbfy/+Z9P+NLDx6K4X8fxtLAP3ad0/DHLDI2AAQYFBDQAADs5JREFUBOyWgF1SzpO26P2b5/Q6nvt966vgbD4vx71yCW+XqD0N3GHEke2EhkfAABAjAfusEj5py00/bzn6N/lVSNWAtdx6eHu1JfobuN/SuWcEDABTSsA+21SchvmaThnYb/45/SmXjqH0cdSpi2Kou6NzRj1K5YiAASBEAnay1FU/uXYTkww89/Rv6jYcXWu7ZSl0NYCA8zdnA6cccHbs/fF7/YlDwAAI2CcBe21TcbXwZfXAdXzr275UhdL+Bp4PMajwvWwfX3rdX/nR8PEpQzMEDAABEnDmtU1FIa43XSdvs6Pv1yWuwRIu3fUfOiUNKpwvW8L0xcrk/GfNVULAAAjYOwF7+TchTDl3E9/OX5q/M/ONv8kt4F6htKeB18MMKtbuAn67PLbcLXfWkVOCHxEwAIyegN3yb8rPmLsX8ucGBWebo/t3FUkntF9lf1z2uHYOO4wkCdj/sr3zsrlrOCr7yCmhO4GAAWDsBOzn35Sf4d5NfK+1hz8U8nuBfhNPc19Z9TCwR+8+6ckqwWX7Pnh6/PKHgZPLxMX1Z50QMACMnIDvHUWVEqYqSSE/bP6Vg7P7zeFF8TVpLeDeR9hhbxHH3kHatHr5puHlsNn8duW2RyfXP2vvRAQMgICNCdi3TZpSDtaqSv58ODw+braH7eHlRfQdSa4yzNY+d3xTwXa4aXXVZft+5Z4/rtz7hTscPa/ctaerETAAjJiAs63vPO1J66exSds/wlLXL5225Fh5DJ4SH23OJ3i59ggYAIIm4HzrnRSTEmI9WQEnnWXbAOPSYRraxb/Jt84EL9uVNxMiYAAYJQHfbQ5H/5Ja6CvOmCQtV7L2uF9SQ7CPf5MFPMXL9oqAAUAv4EM6/2vvfFcbR4I9OqCEeR2BE+arIDZhvwlsY/wWA7YRfo6x0euunSXZGXYTt6T+U7/yOZe7cL9Nuev26apqdTabrjumqWeCupk/ZAUcUuBP77AHFsGx7q6HikRydLBEwACQWsBGhm5hnW/Z8ALOF1He9Oz3s5s/YrTh/c/QgYXkmjUIGADuQsCB3cyj4/Ai1Yn96uUr28e8u96GZudWcs1qBAwA9yDgk+8wA2rFKpql+sNnz0R9m8W8ux76951URwd7BAwA9yDgwL9Wr/ohUpM5tO6P10XeFT+P++lY+PU90dHBEgEDwB0IOLCbWbmdcMcrgD8cvJ7/a+HZPP7d9VNwdiZ6jTL5sjUIGAD8C7gJjFNymhiiqiS1fd91hwvXy+sJXvj6mUsV9sbACBgA3Ag4eJyoOU28Xd9XW49RffAsmpd7BAwA3gUc/ByX5DQx4B1KxeF2E56eD5o96E9bFwgYANwIOHicqFgpBhwvFMMa9ISa5ujg0yIfAQOAGwHvMm06VqNTLIBPQ/JTc3Tw6WQEAQOAGwG3wYG67NVK1vW7Ifmp+SHSKU1Bj4ABELDUkPTDVXrTxNsdaMk7Su2gBN26ChEBA4AXAQ/4k4iVXg/65n4rWQCH/fmMD14FI+wTHScQMAAC1hwn6vWgb5aKkgXwwL8jrdiD/oWAAcC9gHeed/Kb3zhrFsCngRmqNzr4YnaPgAHAi4DbIaFuvZnq0f+aSWboOVUOImAABKxTI/7Bd2em0iyAhzzDIdqD3iFgAHAv4LPnnfzmexXf72DNJM8ZDQIGAPcCHrgVaO3kNzvQR8k1O7lP0XOyFETAAAhYdZz43Vdw23tYM8Ee9E8EDAD+BdwMbGb6mm8/38Oa6fWgv3wcBgEDgA8BDx4nKu3kt7c5yb9Wfx6Ro1rvQZ/SZSACBkDAoiNgrZqx9SamsSNgtR50i4ABwL+A28E7uU7NGPKFleIfy23HJKlS56JPGAkCBkDAVqgz7zw5CdlrBZ+3HrFmYqX+LwQMAP4FPGKcqNODDqoUH+9hzcR60A0CBgD/At4Nj1bm3lKgqLZqa/azhDEMLRwCBgAXAm4d7+SBhwu5ErgZl6WPXpISAQOABwEPewhabCcPFFUtdg3rPDJLZToXt5ISAQOABwGfRsW79SUqsfegf3lP01PS9EPAAAhYtwOtcqE2ODaxxziasWn64CQpETAAOBDwqA60yE4+ILZXqTUbn6dOOhcIGAAcCPhUZPMxF5vUYxwTBKLRa795dw4BA4ADAbcjA1a4hjWkU/t6B2um0mvvby4cAgYABwKux+7k9puZg+4KP91FB1rjoHG7c4GAAUBfwKfREdu/htVm3E1FOtAaw/vbnQsEDAD6Ah7fzTQ/NR14vUzmkYq+nZSpLjoXCBgA5AU88g60RMk4dJvdiqzZeVqm2j9otKnXCgEDIGDpDrT9nbxxFs87u4mp6qFzgYABQF7Ak7qZtkvGs7N4Pqgnpqr14f0++VIhYAAErN2Btv5HCYefLTRK4PPUVLX+JVJI5wIBA4C6gHd+d/IxnpIogdvC3jAxFUHAAKAu4GZa0JabmT9HxKNQAvfTc/VB/4CBgAFAXMBTu5mGv0Qa11wXKIF3xcVhIScRMACIC7j1u5OP85T9Vypuv9IoXukvETAA3IGAp13BMi2ssZ76y/qanaJk61Y9JxEwAGgLeFd6C0rH2C3WfAncRsnWR/WcRMAAIC3gGN3MB2+hGf9bBedI6Wq1BA5tyiBgAJAW8MnvTj4+NOMvXLeR0tXqJ9z7LGmHgAEQcGGaGHE/egvN9DtR52j5utXOSQQMAMoCPvvdyafU9qZfF9lFy1ebJfApT9YhYAAE7KKbabEEbrwFNHBCGnLOMFkCBy8cAgYAYQFH62ba28mnDbdtqilyAWyzBD5lSjoEDICAXVznMVgxNt4Cei+Am5gZa/Cc0WT6xyNgAATs4zqPuW+B994Ciu0Nq+eMAZ0LBAwAugJu44Vu7Fvg6XWi0U+R4hbABkvgJte/HQEDIGAfBbC1xysi7K42P0XaRU5ZayXwkNE9AgYAWQFHLaZMVYxRbgpbvIcV8Qq0zVZ7k22BEDAAAtYoNsQqxmWMgCzew1pGz1lbrfZBOYmAAUBUwLGniYYer4jUW7f3JPQ5QdKainJQTiJgABAV8D529HYqxtZjcRj51pzFg9PAnETAAKAp4NgFsKHHK6LVidaa0OckWfusmpMIGAA0BRx/mmjlU6R4R4vq1fmZydbBaagTETAASAr4XCeI/1VxG9dpQu8Tpa2VQn/oFW8EDACSAk5STJkYJ0Y9Wlh6LDn+J0i2Dk6Dv3FGwACgKOBExZQFX7VRPfWXnTVrk+WtjXtYg09OCBgABAWcpAE9fU80eLSwc0f4kDBxHyUPGAgYAAQFnKyYKj40jX5RycyAtEmYuBbuYQ1/FwYBA4CegPfpfoIf7o4WRl74WibN3PKF/ogDBgIGADkBJ2tAl29CH9xFlKEBfaX49H6fe2EQMAACdtbMLNuEThKahW+R0q6ZgWPGmEMhAgYANQGv/NZSafq0BsbAy+S5W/iYMWZ0gIABQEzA+8Q/QsHno1KFtvC+ZsWb0KMCRMAAoCXgpAPgN56O3kIr/SRl+jW7UjDIcW+MIGAAkBJw+mFiuZZtutBmW+9rdm1ClwtyXIcdAQOAlICXOX6HH+5CKzohXWZK32JBjnQhAgYAIQH3uzw/xFZnFw+t6ssZeJ8rfetCs+6xHXYEDABCAs61lxd41yH1nLTYHaVDxgQuMwZuixzzEDAAAva5l2fvZqafk5YqD5uMCVxk1j3ahAgYAGQEfKjz/RSZC8Y+w5y0SHmY6QLWOwVusI8/FSJgAFAR8CHrXp63YFzlCKmAgftl5hTOPuuecMJAwAAgIuC8/s377ezeX0gZDxYlO+1TThgIGAA0BJzZv1nnibl667NX9/7NXedPiRABA4CEgHPOf98LxlwGPmeLrXp171+h1gUCBgAFAe/rAj/H7OjMvy4b6+UOTlOXDgEDgICAC23lWT5GynxP+NX7oum0LhAwAJgXcPartDkN3DWZY8p1S2lVLo8zvQo99eiEgAHAuoCzKyqngfv8wS2y1PWrkomcxcCTlw4BA4BtAffZrz/nNPC5RHAZvpUt698sBu7bqf9IBAwApgVceidPu5UfmrpITBu3Q4N3ngRCRMAAYFnAh5fSv0mV0FbFivtZWj11L+VzObGBYxwxEDAA2BVwv6oN/CrJDFyyuZ5yEFx2aJClzO9jHDEQMABYFXC/erHxszyk+XSn7OniKVlr3cSpKd2yvY3uo2QmAgYAowJev5j5XaqFQ0/N0nyP1C8r18sWz78IGABsCnjdmPplol8c7svHV6X4230HS+tWPSdptMd6FhUBA4A9AXdWupi/9TM3JvfwicSeBBe/s/6fZUtg4GgvfCFgALAl4L4z1Hv+vZp6jbeXH614qop7V7jQV1VfRhj7KlYX7wuraQI+IWAABBxxb+u69erF7K/z3Dls09aLLtryrSqLyxa3yo+5dq/dFHau/hUA8Hwoxnq9Ws1fvtWWf55qHWMv71e1qSirOArujU3t/yVilR/3u7jZJOIlwJR/Rc2uCRDr/xULVmJv/2Od+fS9/PBirU6sHxaTw+oPdjsXVRWrCDYcJACA9xPK1L38bO962VuROE3B/WFu+vBURymCja4dAMC98DBBwf2qMXu0mI/vrxvX7z/hbSd3nyl/AQCKl4vHkVv4zHJY1bgyuF9LiKmaTetdoF8AANXN3Lh+35g9Db2QdRCI6mPZRiv4snYVaQ8AYIOB1eJhrhFW/e1hsTkeQ+3biJ2cRim4W9UzEh4AwA5P664PfFrkIqpaKrTFpvvawl13sa9iVfi0Gebgbk3vGQDAHvN1d6tl2x0Ed/Drh8pP8/X6+tLC8c9TxrG/uHetOxGtLiV+F+jg/nLKqOk9AwBYLRYvmjp+ViWu5+L102w+XywW6wubzfW/i/k1olp+0Ta3JNxfF68mvwEAjFvqoqjDP0/zHd/+ezhcH/ZydHPHWSF4qYPfCvz/V++1xEe+AABCHn6aX+rDy//ObL01CZ9p+LJg68Vq/c7i8n+sLuvH6gEAACSu7H9/f7X++A8AAAAAAAAAAAAAAAAAAAAAAAAAAAAAAAAAAAAAAAAAAAAAAAAAAAAAAAAAAABAEH8DS5h0l5KLz7IAAAAASUVORK5CYII=;" parent="1" vertex="1">
          <mxGeometry x="850" y="290" width="71.11" height="40" as="geometry" />
        </mxCell>
      </root>
    </mxGraphModel>
  </diagram>
  <diagram name="BME280 State Machine Diagram" id="c4acf3e9-155e-7222-9cf6-157b1a14988f">
    <mxGraphModel dx="6034" dy="2807" grid="1" gridSize="10" guides="1" tooltips="1" connect="1" arrows="1" fold="1" page="1" pageScale="1" pageWidth="850" pageHeight="1100" background="none" math="0" shadow="0">
      <root>
        <mxCell id="0" />
        <mxCell id="1" parent="0" />
        <mxCell id="4hGOtepsm4wSv6MPAV9k-1" value="INIT" style="rounded=1;whiteSpace=wrap;html=1;" vertex="1" parent="1">
          <mxGeometry x="-850" y="100" width="80" height="40" as="geometry" />
        </mxCell>
        <mxCell id="4hGOtepsm4wSv6MPAV9k-31" style="edgeStyle=orthogonalEdgeStyle;rounded=0;orthogonalLoop=1;jettySize=auto;html=1;entryX=0.5;entryY=0;entryDx=0;entryDy=0;" edge="1" parent="1" source="4hGOtepsm4wSv6MPAV9k-2" target="4hGOtepsm4wSv6MPAV9k-29">
          <mxGeometry relative="1" as="geometry" />
        </mxCell>
        <mxCell id="4hGOtepsm4wSv6MPAV9k-2" value="SETUP&#xa;(bme280_setup())" style="rounded=1;whiteSpace=wrap;html=1;" vertex="1" parent="1">
          <mxGeometry x="-740" y="90" width="110" height="60" as="geometry" />
        </mxCell>
        <mxCell id="4hGOtepsm4wSv6MPAV9k-26" style="edgeStyle=orthogonalEdgeStyle;rounded=0;orthogonalLoop=1;jettySize=auto;html=1;entryX=0;entryY=0.5;entryDx=0;entryDy=0;" edge="1" parent="1" source="4hGOtepsm4wSv6MPAV9k-3" target="4hGOtepsm4wSv6MPAV9k-4">
          <mxGeometry relative="1" as="geometry" />
        </mxCell>
        <mxCell id="4hGOtepsm4wSv6MPAV9k-3" value="TRIGGER_MEASUREMENT&#xa;(bme280_set_sensor_mode())" style="rounded=1;whiteSpace=wrap;html=1;" vertex="1" parent="1">
          <mxGeometry x="-440" y="90" width="180" height="60" as="geometry" />
        </mxCell>
        <mxCell id="4hGOtepsm4wSv6MPAV9k-4" value="WAIT_MEASUREMENT&#xa;(120ms delay)" style="rounded=1;whiteSpace=wrap;html=1;" vertex="1" parent="1">
          <mxGeometry x="-210" y="90" width="150" height="60" as="geometry" />
        </mxCell>
        <mxCell id="4hGOtepsm4wSv6MPAV9k-28" style="edgeStyle=orthogonalEdgeStyle;rounded=0;orthogonalLoop=1;jettySize=auto;html=1;entryX=1;entryY=0.5;entryDx=0;entryDy=0;" edge="1" parent="1" source="4hGOtepsm4wSv6MPAV9k-5" target="4hGOtepsm4wSv6MPAV9k-6">
          <mxGeometry relative="1" as="geometry">
            <Array as="points">
              <mxPoint x="-300" y="240" />
              <mxPoint x="-300" y="240" />
            </Array>
          </mxGeometry>
        </mxCell>
        <mxCell id="4hGOtepsm4wSv6MPAV9k-35" style="edgeStyle=orthogonalEdgeStyle;rounded=0;orthogonalLoop=1;jettySize=auto;html=1;entryX=1;entryY=0.5;entryDx=0;entryDy=0;" edge="1" parent="1" source="4hGOtepsm4wSv6MPAV9k-5" target="4hGOtepsm4wSv6MPAV9k-7">
          <mxGeometry relative="1" as="geometry" />
        </mxCell>
        <mxCell id="4hGOtepsm4wSv6MPAV9k-5" value="READ_DATA&#xa;(bme280_get_sensor_data())" style="rounded=1;whiteSpace=wrap;html=1;" vertex="1" parent="1">
          <mxGeometry x="-210" y="240" width="160" height="60" as="geometry" />
        </mxCell>
        <mxCell id="4hGOtepsm4wSv6MPAV9k-6" value="DELAY" style="rounded=1;whiteSpace=wrap;html=1;" vertex="1" parent="1">
          <mxGeometry x="-480" y="220" width="70" height="40" as="geometry" />
        </mxCell>
        <mxCell id="4hGOtepsm4wSv6MPAV9k-7" value="ERROR" style="rounded=1;whiteSpace=wrap;html=1;strokeColor=#ff0000;" vertex="1" parent="1">
          <mxGeometry x="-630" y="250" width="80" height="40" as="geometry" />
        </mxCell>
        <mxCell id="4hGOtepsm4wSv6MPAV9k-8" value="" style="ellipse;whiteSpace=wrap;html=1;aspect=fixed;" vertex="1" parent="1">
          <mxGeometry x="-880" y="110" width="20" height="20" as="geometry" />
        </mxCell>
        <mxCell id="4hGOtepsm4wSv6MPAV9k-9" style="edgeStyle=none;html=1;exitX=1;exitY=0.5;exitDx=0;exitDy=0;entryX=0;entryY=0.5;entryDx=0;entryDy=0;" edge="1" parent="1" source="4hGOtepsm4wSv6MPAV9k-8" target="4hGOtepsm4wSv6MPAV9k-1" />
        <mxCell id="4hGOtepsm4wSv6MPAV9k-10" style="edgeStyle=none;html=1;" edge="1" parent="1" source="4hGOtepsm4wSv6MPAV9k-1" target="4hGOtepsm4wSv6MPAV9k-2" />
        <mxCell id="4hGOtepsm4wSv6MPAV9k-11" value="" style="edgeStyle=none;html=1;align=left;" edge="1" parent="1" source="4hGOtepsm4wSv6MPAV9k-23" target="4hGOtepsm4wSv6MPAV9k-3">
          <mxGeometry relative="1" as="geometry">
            <mxPoint x="-540" y="120" as="sourcePoint" />
          </mxGeometry>
        </mxCell>
        <mxCell id="4hGOtepsm4wSv6MPAV9k-12" value="result != BME280_OK" style="edgeStyle=none;html=1;exitX=0.5;exitY=1;exitDx=0;exitDy=0;entryX=0.5;entryY=0;entryDx=0;entryDy=0;strokeColor=#ff0000;" edge="1" parent="1" source="4hGOtepsm4wSv6MPAV9k-2" target="4hGOtepsm4wSv6MPAV9k-7" />
        <mxCell id="4hGOtepsm4wSv6MPAV9k-13" style="edgeStyle=none;html=1;" edge="1" parent="1" source="4hGOtepsm4wSv6MPAV9k-3" target="4hGOtepsm4wSv6MPAV9k-4" />
        <mxCell id="4hGOtepsm4wSv6MPAV9k-14" value="120ms elapsed" style="edgeStyle=none;html=1;exitX=0.5;exitY=1;exitDx=0;exitDy=0;entryX=0.5;entryY=0;entryDx=0;entryDy=0;" edge="1" parent="1" source="4hGOtepsm4wSv6MPAV9k-4" target="4hGOtepsm4wSv6MPAV9k-5" />
        <mxCell id="4hGOtepsm4wSv6MPAV9k-15" style="edgeStyle=none;html=1;" edge="1" parent="1" source="4hGOtepsm4wSv6MPAV9k-5" target="4hGOtepsm4wSv6MPAV9k-6" />
        <mxCell id="4hGOtepsm4wSv6MPAV9k-16" value="10s elapsed" style="edgeStyle=none;html=1;exitX=0;exitY=0.5;exitDx=0;exitDy=0;entryX=0;entryY=0.5;entryDx=0;entryDy=0;" edge="1" parent="1" source="4hGOtepsm4wSv6MPAV9k-6" target="4hGOtepsm4wSv6MPAV9k-3">
          <mxGeometry x="-0.0087" relative="1" as="geometry">
            <mxPoint x="-490" y="210" as="sourcePoint" />
            <mxPoint x="-440" y="210" as="targetPoint" />
            <Array as="points">
              <mxPoint x="-490" y="210" />
              <mxPoint x="-490" y="120" />
              <mxPoint x="-440" y="120" />
            </Array>
            <mxPoint as="offset" />
          </mxGeometry>
        </mxCell>
        <mxCell id="4hGOtepsm4wSv6MPAV9k-17" value="" style="edgeStyle=none;align=left;html=1;exitX=1;exitY=0.5;exitDx=0;exitDy=0;" edge="1" parent="1" source="4hGOtepsm4wSv6MPAV9k-1">
          <mxGeometry relative="1" as="geometry">
            <mxPoint x="-760" y="119" as="sourcePoint" />
            <mxPoint x="-740" y="119" as="targetPoint" />
          </mxGeometry>
        </mxCell>
        <mxCell id="4hGOtepsm4wSv6MPAV9k-24" value="" style="edgeStyle=none;html=1;align=left;" edge="1" parent="1" source="4hGOtepsm4wSv6MPAV9k-2" target="4hGOtepsm4wSv6MPAV9k-23">
          <mxGeometry relative="1" as="geometry">
            <mxPoint x="-610" y="120" as="sourcePoint" />
            <mxPoint x="-440" y="120" as="targetPoint" />
          </mxGeometry>
        </mxCell>
        <mxCell id="4hGOtepsm4wSv6MPAV9k-23" value="&lt;span style=&quot;background-color: rgb(47, 47, 47); padding: 0px 0px 0px 2px;&quot;&gt;&lt;span style=&quot;color: rgb(204, 204, 204); font-family: Consolas; white-space: pre;&quot;&gt;&lt;span style=&quot;color: rgb(249, 250, 244);&quot;&gt;&lt;/span&gt;&lt;span style=&quot;color: rgb(255, 191, 38);&quot;&gt;result&lt;/span&gt;&lt;span style=&quot;color: rgb(217, 232, 247);&quot;&gt; =&lt;/span&gt;&lt;span style=&quot;color: rgb(230, 230, 250);&quot;&gt;=&lt;/span&gt;&lt;span style=&quot;color: rgb(217, 232, 247);&quot;&gt; BME280_OK&lt;/span&gt;&lt;/span&gt;&lt;/span&gt;" style="text;html=1;align=center;verticalAlign=middle;whiteSpace=wrap;rounded=0;fontSize=10;" vertex="1" parent="1">
          <mxGeometry x="-610" y="90" width="110" height="20" as="geometry" />
        </mxCell>
        <mxCell id="4hGOtepsm4wSv6MPAV9k-27" style="edgeStyle=orthogonalEdgeStyle;rounded=0;orthogonalLoop=1;jettySize=auto;html=1;entryX=0.466;entryY=-0.05;entryDx=0;entryDy=0;entryPerimeter=0;" edge="1" parent="1" source="4hGOtepsm4wSv6MPAV9k-4" target="4hGOtepsm4wSv6MPAV9k-5">
          <mxGeometry relative="1" as="geometry" />
        </mxCell>
        <mxCell id="4hGOtepsm4wSv6MPAV9k-33" style="edgeStyle=orthogonalEdgeStyle;rounded=0;orthogonalLoop=1;jettySize=auto;html=1;entryX=0;entryY=0.5;entryDx=0;entryDy=0;" edge="1" parent="1" source="4hGOtepsm4wSv6MPAV9k-29" target="4hGOtepsm4wSv6MPAV9k-7">
          <mxGeometry relative="1" as="geometry" />
        </mxCell>
        <mxCell id="4hGOtepsm4wSv6MPAV9k-29" value="&lt;span style=&quot;background-color: rgb(47, 47, 47); padding: 0px 0px 0px 2px;&quot;&gt;&lt;span style=&quot;color: rgb(204, 204, 204); font-family: Consolas; white-space: pre;&quot;&gt;&lt;span style=&quot;color: rgb(249, 250, 244);&quot;&gt;&lt;/span&gt;&lt;span style=&quot;color: rgb(255, 191, 38);&quot;&gt;result&lt;/span&gt;&lt;span style=&quot;color: rgb(217, 232, 247);&quot;&gt; !&lt;/span&gt;&lt;span style=&quot;color: rgb(230, 230, 250);&quot;&gt;=&lt;/span&gt;&lt;span style=&quot;color: rgb(217, 232, 247);&quot;&gt; BME280_OK&lt;/span&gt;&lt;/span&gt;&lt;/span&gt;" style="text;html=1;align=center;verticalAlign=middle;whiteSpace=wrap;rounded=0;rotation=0;fontSize=10;" vertex="1" parent="1">
          <mxGeometry x="-740" y="200" width="110" height="20" as="geometry" />
        </mxCell>
        <mxCell id="4hGOtepsm4wSv6MPAV9k-34" style="edgeStyle=orthogonalEdgeStyle;rounded=0;orthogonalLoop=1;jettySize=auto;html=1;entryX=0.446;entryY=1.025;entryDx=0;entryDy=0;entryPerimeter=0;" edge="1" parent="1" source="4hGOtepsm4wSv6MPAV9k-7" target="4hGOtepsm4wSv6MPAV9k-1">
          <mxGeometry relative="1" as="geometry">
            <Array as="points">
              <mxPoint x="-590" y="300" />
              <mxPoint x="-814" y="300" />
            </Array>
          </mxGeometry>
        </mxCell>
        <mxCell id="4hGOtepsm4wSv6MPAV9k-38" value="5s elapsed" style="edgeLabel;html=1;align=center;verticalAlign=middle;resizable=0;points=[];" vertex="1" connectable="0" parent="4hGOtepsm4wSv6MPAV9k-34">
          <mxGeometry x="-0.4449" y="3" relative="1" as="geometry">
            <mxPoint as="offset" />
          </mxGeometry>
        </mxCell>
        <mxCell id="4hGOtepsm4wSv6MPAV9k-36" value="&lt;span style=&quot;background-color:#2f2f2f;padding:0px 0px 0px 2px;&quot;&gt;&lt;span style=&quot;color: rgb(204, 204, 204); font-family: Consolas; white-space: pre;&quot;&gt;&lt;span style=&quot;color:#f9faf4;&quot;&gt;&lt;/span&gt;&lt;span style=&quot;color:#ffbf26;&quot;&gt;task_data&lt;/span&gt;&lt;span style=&quot;color:#e6e6fa;&quot;&gt;.&lt;/span&gt;&lt;span style=&quot;color:#66e1f8;&quot;&gt;result&lt;/span&gt;&lt;span style=&quot;color:#d9e8f7;&quot;&gt; &lt;/span&gt;&lt;span style=&quot;color:#e6e6fa;&quot;&gt;==&lt;/span&gt;&lt;span style=&quot;color:#d9e8f7;&quot;&gt; BME280_OK&lt;/span&gt;&lt;/span&gt;&lt;/span&gt;" style="text;html=1;align=center;verticalAlign=middle;whiteSpace=wrap;rounded=0;fontSize=10;" vertex="1" parent="1">
          <mxGeometry x="-370" y="210" width="170" height="30" as="geometry" />
        </mxCell>
        <mxCell id="4hGOtepsm4wSv6MPAV9k-37" value="&lt;span style=&quot;background-color: rgb(47, 47, 47); padding: 0px 0px 0px 2px;&quot;&gt;&lt;span style=&quot;color: rgb(204, 204, 204); font-family: Consolas; white-space: pre;&quot;&gt;&lt;span style=&quot;color: rgb(249, 250, 244);&quot;&gt;&lt;/span&gt;&lt;span style=&quot;color: rgb(255, 191, 38);&quot;&gt;task_data&lt;/span&gt;&lt;span style=&quot;color: rgb(230, 230, 250);&quot;&gt;.&lt;/span&gt;&lt;span style=&quot;color: rgb(102, 225, 248);&quot;&gt;result&lt;/span&gt;&lt;span style=&quot;color: rgb(217, 232, 247);&quot;&gt; !&lt;/span&gt;&lt;span style=&quot;color: rgb(230, 230, 250);&quot;&gt;=&lt;/span&gt;&lt;span style=&quot;color: rgb(217, 232, 247);&quot;&gt; BME280_OK&lt;/span&gt;&lt;/span&gt;&lt;/span&gt;" style="text;html=1;align=center;verticalAlign=middle;whiteSpace=wrap;rounded=0;fontSize=10;" vertex="1" parent="1">
          <mxGeometry x="-450" y="280" width="170" height="30" as="geometry" />
        </mxCell>
      </root>
    </mxGraphModel>
  </diagram>
  <diagram id="dj4HILKkC_QP_OF-LalK" name="Wiring ">
    <mxGraphModel dx="1355" dy="880" grid="1" gridSize="10" guides="1" tooltips="1" connect="1" arrows="1" fold="1" page="1" pageScale="1" pageWidth="850" pageHeight="1100" math="0" shadow="0">
      <root>
        <mxCell id="0" />
        <mxCell id="1" parent="0" />
        <mxCell id="DDX-XGdT-3IaOn3rSHQS-2" value="" style="rounded=0;whiteSpace=wrap;html=1;movable=0;resizable=0;rotatable=0;deletable=0;editable=0;locked=1;connectable=0;" vertex="1" parent="1">
          <mxGeometry x="210" y="70" width="430" height="510" as="geometry" />
        </mxCell>
        <mxCell id="DDX-XGdT-3IaOn3rSHQS-3" value="" style="ellipse;whiteSpace=wrap;html=1;fillColor=#008a00;strokeColor=#005700;fontColor=#ffffff;" vertex="1" parent="1">
          <mxGeometry x="250" y="100" width="30" height="30" as="geometry" />
        </mxCell>
        <mxCell id="DDX-XGdT-3IaOn3rSHQS-4" value="Wiring Colour Scheme" style="text;html=1;align=center;verticalAlign=middle;whiteSpace=wrap;rounded=0;" vertex="1" parent="1">
          <mxGeometry x="230" y="30" width="390" height="30" as="geometry" />
        </mxCell>
        <mxCell id="DDX-XGdT-3IaOn3rSHQS-5" value="Ground (GND) Wires" style="text;html=1;align=center;verticalAlign=middle;whiteSpace=wrap;rounded=0;" vertex="1" parent="1">
          <mxGeometry x="310" y="100" width="260" height="30" as="geometry" />
        </mxCell>
        <mxCell id="DDX-XGdT-3IaOn3rSHQS-6" value="" style="ellipse;whiteSpace=wrap;html=1;fillColor=#e51400;strokeColor=#B20000;fontColor=#ffffff;" vertex="1" parent="1">
          <mxGeometry x="250" y="150" width="30" height="30" as="geometry" />
        </mxCell>
        <mxCell id="DDX-XGdT-3IaOn3rSHQS-7" value="3.3V Power Wires" style="text;html=1;align=center;verticalAlign=middle;whiteSpace=wrap;rounded=0;" vertex="1" parent="1">
          <mxGeometry x="310" y="150" width="260" height="30" as="geometry" />
        </mxCell>
        <mxCell id="DDX-XGdT-3IaOn3rSHQS-8" value="" style="ellipse;whiteSpace=wrap;html=1;" vertex="1" parent="1">
          <mxGeometry x="250" y="200" width="30" height="30" as="geometry" />
        </mxCell>
        <mxCell id="DDX-XGdT-3IaOn3rSHQS-9" value="Other Colours used for signalling" style="text;html=1;align=center;verticalAlign=middle;whiteSpace=wrap;rounded=0;" vertex="1" parent="1">
          <mxGeometry x="310" y="200" width="260" height="30" as="geometry" />
        </mxCell>
      </root>
    </mxGraphModel>
  </diagram>
</mxfile>
